<?xml version="1.0" encoding="UTF-8"?>
<!DOCTYPE svg PUBLIC "-//W3C//DTD SVG 1.1//EN" "http://www.w3.org/Graphics/SVG/1.1/DTD/svg11.dtd">
<!-- Creator: CorelDRAW -->
<svg xmlns="http://www.w3.org/2000/svg" xml:space="preserve" width="0.99913in" height="1.05627in" version="1.1" style="shape-rendering:geometricPrecision; text-rendering:geometricPrecision; image-rendering:optimizeQuality; fill-rule:evenodd; clip-rule:evenodd"
viewBox="0 0 999.13 1056.26"
 xmlns:xlink="http://www.w3.org/1999/xlink"
 xmlns:xodm="http://www.corel.com/coreldraw/odm/2003">
 <defs>
  <style type="text/css">
   <![CDATA[
    .fil0 {fill:mediumseagreen}
   ]]>
  </style>
 </defs>
 <g id="Layer_x0020_1">
  <metadata id="CorelCorpID_0Corel-Layer"/>
  <g id="_2120302299040">
   <path class="fil0" d="M543.68 827.17l0 88.88 0 82.17 0 58.04 77.23 0 189.27 0 90.91 0 0 -19.07 0 -58.16 -59.39 0 -110.37 0 -87.39 0 -23.02 0.03 0 -78.55c31.67,-9.56 61.76,-22.76 89.78,-39.13l60.23 58.99c21.94,-14.16 42.69,-29.98 62.09,-47.29l-58.6 -57.39 -63.32 -62.01c-20.26,16.84 -42.54,31.32 -66.46,43l-0.01 0c-7.74,3.79 -15.65,7.27 -23.72,10.45 -24.45,9.64 -50.33,16.46 -77.23,20.04z"/>
   <path class="fil0" d="M876.11 683.62c10.74,-21.88 19.63,-44.83 26.47,-68.66l84.55 0c5.94,-25.07 9.98,-50.87 12,-77.23l-82.09 0 -88.74 0c-3.12,26.86 -9.46,52.74 -18.61,77.23 -0.33,0.88 -0.66,1.76 -1,2.63 -9.72,25.35 -22.46,49.18 -37.8,71.09l63.74 62.42 58.86 57.64c16.18,-20.56 30.78,-42.4 43.63,-65.37l-61.01 -59.76z"/>
   <path class="fil0" d="M899.25 372.22c-7.95,-25.05 -18.18,-49.08 -30.46,-71.84l60.41 -59.17c-13.48,-22.42 -28.67,-43.69 -45.39,-63.65l-58.65 57.44 -63.41 62.11c16.14,20.92 29.83,43.82 40.65,68.28 1,2.26 1.98,4.54 2.93,6.83 10.14,24.41 17.44,50.29 21.49,77.23l89.05 0 82.28 0c-2.6,-26.4 -7.24,-52.2 -13.77,-77.23l-85.14 0z"/>
   <path class="fil0" d="M696.78 129.07c-24,-12.82 -49.39,-23.37 -75.88,-31.36l0 -84.83c-25.05,-6.24 -50.85,-10.58 -77.23,-12.88l0 82.18 0 88.88c26.9,3.59 52.78,10.4 77.23,20.04 2.96,1.17 5.91,2.38 8.83,3.63 24.8,10.62 48.04,24.18 69.28,40.24l63.61 -62.3 58.78 -57.57c-20.02,-16.78 -41.35,-32.04 -63.84,-45.57l-60.79 59.54z"/>
   <path class="fil0" d="M378.22 97.72c-24.7,7.45 -48.43,17.13 -70.97,28.78l-61.01 -59.75c-22.69,13.32 -44.23,28.37 -64.45,44.98l58.85 57.64 63.74 62.42c21.59,-15.79 45.17,-29.02 70.28,-39.27 1.19,-0.48 2.37,-0.96 3.56,-1.43 24.45,-9.64 50.33,-16.46 77.23,-20.04l0 -88.88 0 -82.18c-26.38,2.3 -52.18,6.65 -77.23,12.88l0 84.83z"/>
   <path class="fil0" d="M240.64 292.94l-63.32 -62.01 -58.6 -57.39c-16.9,19.75 -32.29,40.83 -45.99,63.05l60.23 59c-13.45,24.18 -24.58,49.83 -33.09,76.64l-85.14 0c-6.53,25.03 -11.17,50.83 -13.78,77.23l82.28 0 89.05 0c4.05,-26.94 11.35,-52.83 21.49,-77.23 1.68,-4.02 3.42,-8 5.24,-11.94 11.18,-24.17 25.2,-46.76 41.61,-67.35z"/>
   <path class="fil0" d="M170.82 537.73l-88.74 0 -82.09 0c2.02,26.37 6.06,52.16 12,77.23l84.55 0c7.35,25.63 17.09,50.25 28.94,73.61l-60.79 59.54c13.07,22.78 27.87,44.43 44.24,64.77l58.78 -57.57 63.61 -62.3c-15.61,-21.56 -28.68,-45.07 -38.79,-70.1 -1.06,-2.64 -2.1,-5.29 -3.09,-7.96 -9.15,-24.5 -15.49,-50.37 -18.61,-77.23z"/>
   <path class="fil0" d="M378.22 979.3l-23.02 -0.27 -79.84 0 -110.38 0 -66.92 0 0 65.54 0 11.69 98.44 0 181.72 0 77.23 0 0 -58.04 0 -82.17 0 -88.88c-26.9,-3.58 -52.78,-10.4 -77.23,-20.04 -6.31,-2.49 -12.54,-5.17 -18.65,-8.03 -24.22,-11.32 -46.83,-25.49 -67.42,-42.07l-63.41 62.1 -58.66 57.44c19.61,17.13 40.56,32.76 62.69,46.7l60.42 -59.17c26.67,15.11 55.14,27.38 85.04,36.4l0 78.79z"/>
  </g>
 </g>
</svg>
