<?xml version="1.0" encoding="UTF-8" standalone="no"?>
<svg
   xmlns:dc="http://purl.org/dc/elements/1.1/"
   xmlns:cc="http://creativecommons.org/ns#"
   xmlns:rdf="http://www.w3.org/1999/02/22-rdf-syntax-ns#"
   xmlns:svg="http://www.w3.org/2000/svg"
   xmlns="http://www.w3.org/2000/svg"
   viewBox="0 0 3333.3333 3333.3333"
   height="3333.3333"
   width="3333.3333"
   xml:space="preserve"
   id="svg2"
   version="1.1"><metadata
     id="metadata8"><rdf:RDF><cc:Work
         rdf:about=""><dc:format>image/svg+xml</dc:format><dc:type
           rdf:resource="http://purl.org/dc/dcmitype/StillImage" /></cc:Work></rdf:RDF></metadata><defs
     id="defs6" /><g
     transform="matrix(1.3333333,0,0,-1.3333333,0,3333.3333)"
     id="g10"><g
       transform="scale(0.1)"
       id="g12"><g
         transform="scale(1.53374)"
         id="g14"><path
           id="path16"
           style="fill:#ffffff;fill-opacity:1;fill-rule:nonzero;stroke:none"
           d="M 16300,0 H 0 V 16300 H 16300 V 0" /></g><g
         transform="scale(1.27787)"
         id="g18"><path
           id="path20"
           style="fill:#000000;fill-opacity:1;fill-rule:nonzero;stroke:none"
           d="m 13482.8,16144.6 c -6.4,0 -12.4,3.5 -15.4,9.5 l -59,118.8 c -4.3,8.4 -0.7,18.7 7.7,22.9 8.5,4.2 18.7,0.7 22.9,-7.7 l 59,-118.8 c 4.3,-8.4 0.8,-18.7 -7.6,-22.9 -2.5,-1.2 -5.1,-1.8 -7.6,-1.8" /></g><g
         transform="scale(1.25619)"
         id="g22"><path
           id="path24"
           style="fill:#000000;fill-opacity:1;fill-rule:nonzero;stroke:none"
           d="m 13855.5,16141.9 c -6.5,0 -12.6,3.5 -15.6,9.7 l -60.1,120.8 c -4.3,8.6 -0.7,19 7.9,23.3 8.6,4.3 19,0.8 23.3,-7.8 l 60,-120.8 c 4.3,-8.6 0.8,-19.1 -7.8,-23.4 -2.5,-1.2 -5.2,-1.8 -7.7,-1.8" /></g><g
         transform="scale(1.2593)"
         id="g26"><path
           id="path28"
           style="fill:#000000;fill-opacity:1;fill-rule:nonzero;stroke:none"
           d="m 13520.9,16202.9 c -6.4,0 -12.6,3.5 -15.6,9.6 -4.3,8.6 -0.7,19 7.9,23.3 l 120.4,59.9 c 8.7,4.3 19,0.8 23.3,-7.8 4.3,-8.6 0.8,-19 -7.8,-23.3 l -120.5,-59.9 c -2.5,-1.2 -5.1,-1.8 -7.7,-1.8" /></g><g
         transform="scale(1.27008)"
         id="g30"><path
           id="path32"
           style="fill:#000000;fill-opacity:1;fill-rule:nonzero;stroke:none"
           d="m 13684.4,16203.8 c -6.3,0 -12.3,3.5 -15.4,9.5 -4.2,8.5 -0.7,18.8 7.8,23.1 l 119.4,59.4 c 8.6,4.2 18.8,0.8 23.1,-7.8 4.2,-8.5 0.8,-18.8 -7.7,-23 l -119.5,-59.4 c -2.5,-1.3 -5.1,-1.8 -7.7,-1.8" /></g><g
         transform="scale(1.30179)"
         id="g34"><path
           id="path36"
           style="fill:#ffffff;fill-opacity:1;fill-rule:nonzero;stroke:none"
           d="m 15054.6,10477.7 c 0,-3215.6 -2589.2,-5822.4 -5783.11,-5822.4 -3193.99,0 -5783.21,2606.8 -5783.21,5822.4 0,3215.5 2589.22,5822.3 5783.21,5822.3 3193.91,0 5783.11,-2606.8 5783.11,-5822.3" /></g><g
         transform="scale(1.28769)"
         id="g38"><path
           id="path40"
           style="fill:#000000;fill-opacity:1;fill-rule:nonzero;stroke:none"
           d="m 7826.71,16004.7 h 0.15 z m 277.86,-136.6 c 88.53,0 150.42,-14.6 199.58,-143.3 28.27,-74.2 25.47,-225.1 22.6,-384.9 -3.34,-180.2 -7.15,-384.4 36.26,-484.2 56,-128.8 135.75,-217.3 208.13,-231 34.79,-6.5 66.94,4.8 95.6,33.7 45.35,45.5 69.11,130.5 92.1,212.6 29.2,104.5 59.4,212.5 136.67,254.9 220.24,121 598.36,379.8 618.48,582.6 24.69,248.3 -162.47,402.6 -541.28,446.1 -331.99,38.2 -949.92,109.3 -1131.95,-159.4 -2.87,-4.2 -3.18,-17.8 7.61,-38.1 23.84,-45 84.96,-90.3 167.67,-90.3 17.63,0 34.09,0.3 49.54,0.7 13.59,0.3 26.56,0.6 38.99,0.6 z M 8590.01,14589 c -8.23,0 -16.62,0.8 -25.09,2.4 -84.64,15.9 -171.7,109.6 -233.05,250.8 -46.28,106.5 -42.63,305.7 -39.06,498.4 2.87,156.4 5.59,304.1 -20.42,372.1 -47.53,124.4 -97.23,123.3 -206.03,120.9 -15.69,-0.4 -32.46,-0.8 -50.32,-0.8 -103.44,0 -171.16,58.4 -197.65,108.4 -15.45,29 -17.47,55.6 -5.74,73 193.6,285.8 824.81,213.2 1163.94,174.1 394.81,-45.4 597.66,-217 571.18,-483.2 -26.49,-266.9 -573.67,-574.7 -635.95,-608.9 -64.76,-35.6 -93.03,-136.6 -120.37,-234.3 -24.07,-86.3 -49.08,-175.6 -100.64,-227.5 -29.74,-30 -64.23,-45.4 -100.8,-45.4" /></g><path
         id="path42"
         style="fill:#000000;fill-opacity:1;fill-rule:nonzero;stroke:none"
         d="m 8109.1,13734.8 10.71,-19.1 c -64.39,-36.1 -102.45,-104.7 -99.34,-178.9 9.91,-235.8 -78.8,-901.2 -295.82,-1119.7 -201.98,-203.3 -180.86,-541.7 -166.86,-765.6 3.41,-54.9 6.38,-102.3 5.59,-140 -8.11,-380.5 26.62,-541.1 427.29,-720.4 57.52,-25.8 111.05,-48.5 158.26,-68.5 295.49,-125.5 430.37,-182.7 457.64,-512.5 7.31,-88.2 15.35,-232.8 25.57,-415.9 32.39,-581.6 81.33,-1460.3 173.22,-1737.9 117.43,-354.6 375.6,-957.9 512.91,-1096.1 68.74,-69.2 185.91,-120.2 244.12,-82.8 60.33,38.9 52.71,172.5 -20.95,366.4 -14.88,39.2 -29.32,76.8 -43.21,112.9 -170.3,443.4 -264.1,687.7 -45.02,967 223.68,285.3 605.29,957.8 635.59,1216.5 32.1,275.1 176.8,431.1 305.9,463.6 139.5,35.1 377.6,125.3 445.7,207.5 40.8,49.3 -3.4,175.9 -50.2,309.9 -29.3,83.7 -59.5,170.3 -76.3,255 -50.4,253.3 -32.5,392.8 347.1,576.2 135,65.2 202.1,176.6 189.1,313.7 -16.7,175.3 -181.9,403.2 -505.2,489.4 -537.7,143.3 -856.39,443.4 -792.96,746.7 35.35,169.1 -95.82,215.1 -312.75,276.2 -93.51,26.3 -190.22,53.5 -270.99,99.2 -116.34,65.9 -177,148.4 -235.65,228.2 -66.24,90.1 -128.84,175.2 -269.22,228.7 -349.72,133.3 -597.38,63.4 -743.52,-18.8 z M 9513.7,6821.4 c -75.29,-0.1 -165.99,47.1 -226.42,108 -141.73,142.7 -404.66,754.6 -523.39,1113.1 -93.7,283.1 -142.86,1165.4 -175.37,1749.2 -9.8,175.6 -18.23,327.2 -25.5,414.8 -25.09,303.5 -135.67,350.4 -431.15,475.9 -47.41,20.1 -101.15,42.9 -159.03,68.8 -422.9,189.2 -461.54,368.1 -453.16,761.2 0.77,35.9 -2.13,82.5 -5.5,136.4 -14.47,231.7 -36.33,581.9 179.47,799.1 192.61,193.9 294.25,822.9 283.18,1087.1 -3.8,90.7 42.77,174.6 121.56,218.8 154.3,86.7 414.9,160.8 780.51,21.6 152.4,-58.1 221.78,-152.5 288.85,-243.7 55.95,-76.1 113.76,-154.8 222,-216.1 76.14,-43.1 170.25,-69.6 261.26,-95.2 191.35,-53.8 389.19,-109.5 343.68,-327.2 -57.43,-274.7 255.71,-560.7 761.51,-695.5 294.3,-78.4 515.3,-295.3 537.4,-527.5 14.7,-154.3 -63.2,-284.4 -213.5,-357.1 -372.7,-180.1 -366.5,-311.6 -323.4,-528.4 16.2,-81.7 46,-166.8 74.7,-249.1 53.2,-152.3 99.2,-283.8 42.6,-352.1 -82.2,-99.4 -351.3,-192.5 -468.7,-222.1 -110.8,-27.9 -243.6,-173.2 -273.1,-426.3 -31,-265.3 -418,-949.3 -644.59,-1238.3 -203.79,-259.9 -118.52,-482 51.41,-924.4 13.91,-36.2 28.38,-73.8 43.25,-113 106.2,-279.6 60.67,-382 3.77,-418.7 -20.8,-13.4 -45.61,-19.3 -72.34,-19.3" /><g
         transform="scale(1.25702)"
         id="g44"><path
           id="path46"
           style="fill:#000000;fill-opacity:1;fill-rule:nonzero;stroke:none"
           d="m 11580.4,10639.1 c 187.8,0 324.4,-39.2 407.9,-117.3 108.3,-101.2 94.8,-237.4 89.7,-288.7 -0.6,-6.6 -1.2,-11.7 -1.2,-14.9 0,-3.5 0,-9.9 -0.1,-18.7 -4.1,-446.96 22.5,-740.84 73.1,-806.31 98.2,-127.12 294.7,-469.84 0.7,-907.46 -235.8,-350.91 -199.8,-1052.02 -46.4,-1229.42 35.2,-40.65 72.4,-50.76 113.9,-30.87 140.2,67.22 283.5,242.8 435.2,428.55 134.9,165.32 274.5,336.12 430,456.64 155.5,120.45 352.7,449.96 490.8,819.96 149.2,399.99 188.4,729.19 104.8,880.66 -132.8,240.65 30.7,447.25 175,629.55 69.4,87.7 135,170.5 155.5,244.9 65.3,236.6 32.2,345.6 -61.6,487.2 -70.9,107 -143.4,347.1 166.8,753 52,68.1 73.1,141.4 62.7,217.9 -22.7,166.4 -184.8,311.6 -279.5,383.3 -16.9,12.9 -24,33.5 -18.3,54 5.5,20.3 22.7,35 43.8,37.4 163.1,18.8 561.4,-32.3 732.9,-905.6 94.7,-482.6 176.7,-734 243.7,-747.3 29.8,-5.8 64.9,46.7 95.9,93.2 16.6,25 33.8,50.8 51.8,71 43.1,48.2 33.8,115.4 22.1,200.5 -16.4,118.9 -36.9,266.8 92.7,416.3 135.7,157 202.5,390.2 234.6,559.5 -426.4,1726.5 -1581.9,3163.8 -3172.9,3947.8 -1.9,-139.9 -31.7,-419.8 -227.1,-559.6 -145.9,-104.5 -354.6,-109.7 -620,-15.6 -0.6,0.2 -1.2,0.5 -1.7,0.7 -1.3,0.6 -129.9,60.1 -231.3,-13.1 -82.6,-59.6 -169.6,-225.4 -114.4,-676.2 36.7,-299.6 99.5,-373.8 145.6,-383.3 97.9,-20.2 235.6,215.4 317.8,356.1 52.3,89.6 78.3,133.1 99,143.5 58.5,29.5 113.2,29.7 153.8,0.6 85.5,-61.5 106.7,-249.4 62.8,-558.5 -0.1,-1.4 -4.6,-66.6 -69.8,-122.4 -74.7,-63.9 -195.1,-88.3 -357.7,-72.5 -175.9,17.1 -304.1,-9.6 -381.2,-79.6 -65.3,-59.2 -72.3,-131.8 -72.3,-160.2 0,-11.5 0.5,-25.1 1.1,-40.5 4.4,-126.5 12.9,-361.8 -185.7,-538.2 -135.6,-120.5 -156.3,-367.4 -77.4,-477.5 44.6,-62.3 113,-69.8 197.8,-21.5 132.1,75.2 247.2,226.9 358.5,373.6 134.6,177.4 261.7,345 413,374 135.3,25.9 262.5,-43.9 385.6,-111.5 130,-71.5 252.9,-139 378.1,-94.9 138.1,48.7 160.6,210.1 178.7,339.7 14.2,101.1 26.5,188.4 95.3,188.4 73.2,0 184.4,-73 270.1,-177.5 83.2,-101.4 121.3,-208.2 104.4,-293.2 -17.3,-87 -99.8,-152.7 -179.5,-216.3 -106.8,-85 -207.6,-165.3 -153.7,-287.6 53.2,-120.3 137,-151.8 218.1,-182.2 68.6,-25.8 133.6,-50.1 165.2,-126.7 21.3,-51.6 1.4,-108.3 -54.7,-155.7 -124.9,-105.3 -388.3,-137.9 -596.3,-7.1 -165,103.8 -248.7,64.8 -322.6,30.4 -59.1,-27.5 -114.9,-53.5 -190.2,9.6 -55.9,46.9 -94.1,112.3 -127.8,169.9 -64,109.5 -110.3,188.6 -237.4,135.9 -103,-42.7 -187,-107.3 -276,-175.6 -95,-72.9 -202.4,-155.5 -349.2,-222.7 -322.8,-147.7 -500.6,-311.1 -500.6,-459.9 0,-64.3 13.7,-132.1 28.3,-203.9 25.9,-127.8 55.4,-272.6 22.5,-454.9 -64,-354 -22.8,-608.2 122.7,-755.4 129.9,-131.5 344,-173.4 636.2,-124.3 122.7,20.6 232.3,30.9 328.4,30.9 z M 12178,7180.73 c -35.8,0 -69.8,17.74 -100.2,52.83 -163.5,189.02 -204.1,902.53 43.8,1271.58 281.5,418.85 94.3,745.65 0.8,866.73 -72,93.16 -83.5,501.67 -80.5,827.93 l 0.2,18.4 c 0,3.9 0.5,10.2 1.3,18.3 5.1,51 16.9,170.4 -78.8,259.9 -118.1,110.3 -355.8,136.4 -706.8,77.5 -304.2,-51 -528.4,-5.9 -666.7,134.2 -153.8,155.7 -198.3,420.2 -132.2,786 31.7,175.7 2.9,317 -22.4,441.8 -14.9,73.5 -29,143 -29,210.8 0,209.2 283.3,382.8 520.9,491.5 143.2,65.5 244.5,143.4 342.5,218.6 90.8,69.8 176.7,135.8 283.8,180.2 155.2,64.3 219.1,-44.8 280.8,-150.4 33.9,-58 68.9,-117.9 120.2,-160.9 58.3,-48.9 96,-31.3 153.1,-4.7 77.9,36.3 174.8,81.4 355.8,-32.4 214.9,-135.4 458.5,-77.5 555.4,4.2 25.7,21.7 65.7,65.6 45,115.8 -25.9,62.6 -81.2,83.4 -145.4,107.5 -83.7,31.4 -178.5,67 -237.5,200.7 -64.8,146.8 51.3,239.3 163.7,328.8 74.9,59.6 152.4,121.4 167.2,195.8 14.8,74.8 -20.6,171.2 -97.2,264.5 -77.1,93.9 -181.8,164.8 -243.3,164.8 -38.6,0 -48.9,-73.5 -60.8,-158.5 -18.4,-131.7 -43.7,-312 -201.7,-367.7 -139.7,-49.1 -275.2,25.2 -406.3,97.3 -117.7,64.5 -239.4,131.4 -362.4,107.8 -138.1,-26.5 -261.3,-188.9 -391.8,-360.9 -113.5,-149.5 -230.7,-304.1 -369.1,-382.8 -99.6,-56.7 -188.2,-45.3 -243.2,31.4 -88.7,123.9 -68,389.9 82.6,523.8 186.3,165.5 178.3,390.2 174,510.9 -0.5,15.9 -1,29.9 -1,41.8 0,33.1 8.1,117.4 83.6,186 84.7,76.8 221.9,106.6 407.9,88.4 150.2,-14.6 264.6,7.4 331,63.6 54.2,45.8 58.5,98 58.6,100.2 52.4,369.2 2.5,490.1 -48.5,526.8 -37.9,27.1 -85,13.1 -117.9,-3.5 -12.9,-7.1 -51,-72.3 -84.6,-129.9 -93,-159.3 -218.6,-374.6 -335.9,-374.6 -6.3,0 -12.6,0.6 -18.9,1.9 -84.6,17.4 -141.1,152.6 -173,413.2 -46.1,375.7 -2.7,614.2 128.8,708.8 114.7,82.6 251.8,22.7 265.4,16.5 253.7,-89.8 451.4,-86 587.3,11.3 196.4,140.5 214.1,437.7 212.7,559 -0.1,6.1 2.9,11.7 8,14.9 5.2,3.2 11.5,3.6 16.9,1 783.2,-381.5 1489,-942.9 2041.3,-1623.6 558.1,-687.9 964.7,-1505 1176,-2363 0.7,-2.5 0.7,-5 0.3,-7.4 -32.6,-173.9 -101.4,-415.5 -243.3,-579.5 -119.2,-137.7 -100.7,-271.1 -84.5,-388.9 11.9,-86.5 23.2,-168.2 -30.6,-228.4 -16.3,-18.3 -32.8,-43 -48.8,-67 -38.8,-58.3 -78.7,-118.5 -131.6,-108.2 -61.1,12.3 -141.2,113.9 -271,774.8 -165.9,844.8 -541,895.2 -694.9,877.8 -10.4,-1.2 -13.5,-9.6 -14.2,-12.1 -0.9,-3.2 -2,-11.1 5.9,-17.1 98.9,-74.9 268.5,-227.5 292.9,-406.3 11.7,-86 -11.8,-168 -69.6,-243.8 -220.2,-288.1 -279,-541.2 -165.4,-712.6 111.3,-168.2 127.4,-293.4 66.2,-515.6 -22.5,-81.2 -90.2,-166.8 -161.9,-257.4 -137.5,-173.7 -293.4,-370.6 -171.7,-591.07 201.5,-365.15 -277.7,-1491.62 -604.9,-1744.92 -152.3,-118.06 -290.6,-287.35 -424.2,-451.07 -154.3,-188.86 -299.9,-367.3 -447.2,-437.94 -18.7,-8.99 -37.1,-13.37 -55,-13.37" /></g><g
         transform="scale(1.24329)"
         id="g48"><path
           id="path50"
           style="fill:#000000;fill-opacity:1;fill-rule:nonzero;stroke:none"
           d="m 5353.56,15181.5 c 4.62,-251.7 -49.75,-478.6 -161.58,-674.8 -348.14,-610.5 -364.52,-929 -394.27,-1507.3 -2.48,-48.4 -5.05,-98.7 -7.96,-150.9 -37.21,-674.6 807.84,-1834.9 999.4,-1948.4 47.85,-28.3 87.27,-34 117.17,-17 64.25,36.6 96.83,173.3 96.83,406.4 0,208.9 -70.66,471.3 -210.04,780 -105.11,232.8 -134.21,423.9 -86.45,568.1 19.29,58.2 66.57,100.3 126.43,112.6 66.74,13.7 134.28,-11.7 185.34,-69.5 97.22,-110.1 324.99,-197.9 424.65,-136.8 81.4,49.8 90.77,199.9 99.04,332.3 4.95,79.1 9.22,147.4 28.1,190.2 22.18,50.2 82.4,91.5 152.1,139.3 95.42,65.4 214.16,146.8 277.08,280.6 116.7,248 323.16,352 522.83,452.5 79.9,40.2 156.12,72.2 223.37,100.4 112.67,47.3 201.67,84.6 222.31,126.1 14.15,28.6 13.9,77.3 13.57,139 -0.43,84.1 -0.98,188.7 34.4,302.7 19.71,63.4 48.02,130.4 75.45,195.1 54.37,128.5 110.51,261.4 73.51,321.1 -19.78,31.8 -77.21,108 -183.96,129.2 -109.11,21.6 -236.65,-19.4 -379.22,-121.9 -224.96,-161.8 -333.67,-212.4 -415.37,-193.2 -52.4,12.3 -92.23,52.1 -137.48,137.5 -50.61,95.6 -26.4,256.4 60.23,400.4 111.64,185.4 291.92,291.8 494.62,291.8 320.31,0 491.77,81.9 509.63,243.5 10.94,99.5 -113.03,216.1 -255.13,239.9 -77.95,13 -118.13,-6.9 -251.34,-72.8 -102.76,-50.8 -258.06,-127.7 -523.65,-234.7 -302.38,-121.7 -462.78,-39 -604.29,34 -49.58,25.6 -96.54,49.9 -145.68,62.3 -266.08,-198.8 -736.14,-603.2 -979.64,-857.7 z m 515.33,-4343.3 c -29.41,0 -62.07,10.6 -97.66,31.6 -230.42,136.5 -1052.77,1324.4 -1016.55,1980.6 2.87,52.2 5.46,102.4 7.94,150.8 29.04,564.5 46.56,905.1 398.82,1522.9 109.72,192.4 162.48,415.8 156.84,663.9 -0.1,4.7 1.64,9.2 4.84,12.5 245.2,257.6 727.9,672.7 995.68,871.8 4.11,3.1 9.34,4.2 14.37,3.1 56.35,-12.8 107.59,-39.2 161.83,-67.2 134.82,-69.6 287.6,-148.4 575.05,-32.7 264.33,106.5 418.91,183 521.18,233.6 137.37,68 183.7,90.9 272.73,76 161.85,-27.2 297.35,-159.9 284.23,-278.4 -20.1,-182.4 -203.34,-274.8 -544.53,-274.8 -269.93,0 -414.77,-192.2 -464.51,-274.9 -79.24,-131.6 -103.62,-282 -59.29,-365.7 39.94,-75.4 73.09,-110.1 114.44,-119.8 69.48,-16.2 174.2,34.6 386.84,187.5 150.81,108.4 287.6,151.5 406.57,127.9 120.27,-23.9 184.77,-109.5 206.97,-145.2 46.65,-75.1 -10.53,-210.2 -71.02,-353.2 -27.02,-64 -55.01,-130.2 -74.24,-191.9 -33.74,-108.9 -33.21,-210.5 -32.8,-292.1 0.36,-66.4 0.62,-118.8 -17.24,-154.8 -26.46,-53.3 -116.1,-90.9 -240.17,-142.9 -66.73,-28 -142.38,-59.8 -221.19,-99.4 -238.76,-120.2 -403.05,-215.5 -506.8,-436.1 -66.99,-142.4 -190.1,-226.8 -289.01,-294.6 -65.31,-44.8 -121.7,-83.5 -139.84,-124.6 -16.35,-37 -20.62,-105.5 -25.17,-178.1 -8.8,-140.9 -18.77,-300.7 -115.76,-360.1 -126.85,-77.8 -372.2,33.5 -469.38,143.5 -42.47,48.1 -97.93,69.4 -151.91,58.4 -47.42,-9.7 -84.84,-43.1 -100.13,-89.3 -44.89,-135.5 -16.25,-318 85.11,-542.6 141.45,-313.2 213.16,-580.5 213.16,-794.4 0,-250 -37.47,-393 -114.56,-437 -16.76,-9.5 -35.07,-14.3 -54.84,-14.3" /></g><g
         transform="scale(1.18934)"
         id="g52"><path
           id="path54"
           style="fill:#ffffff;fill-opacity:1;fill-rule:nonzero;stroke:none"
           d="m 16179.7,10320.2 c -95.7,21.4 -74.4,-214 -201.9,-256.8 -127.5,-42.8 -180.7,-106.93 -148.8,-342.36 31.9,-235.34 -21.2,-545.51 -148.8,-663.22 -127.4,-117.72 -308.1,-203.31 -318.7,-492.13 -10.7,-288.81 -276.3,-567.03 -435.7,-663.22 -159.4,-96.36 -403.8,-246.11 -403.8,-492.13 0,-158.48 -4.2,-360.95 32.4,-516.75 843.5,823.65 1459.8,1881.55 1745.6,3069.61 -25,157.9 -65.7,344.7 -120.3,357" /></g><g
         transform="scale(1.30313)"
         id="g56"><path
           id="path58"
           style="fill:#000000;fill-opacity:1;fill-rule:nonzero;stroke:none"
           d="m 9261.96,16266.5 c -3176.37,0 -5760.49,-2601.7 -5760.49,-5799.6 0,-3197.91 2584.12,-5799.58 5760.49,-5799.58 3176.24,0 5760.44,2601.67 5760.44,5799.58 0,3197.9 -2584.2,5799.6 -5760.44,5799.6 z m 0,-11632.72 c -1547.66,0 -3002.69,606.77 -4097.05,1708.51 -1094.3,1101.73 -1696.97,2566.52 -1696.97,4124.61 0,1558 602.67,3022.9 1696.97,4124.6 1094.36,1101.7 2549.39,1708.5 4097.05,1708.5 1547.64,0 3002.64,-606.8 4097.04,-1708.5 1094.2,-1101.7 1697,-2566.6 1697,-4124.6 0,-1558.09 -602.8,-3022.88 -1697,-4124.61 C 12264.6,5240.55 10809.6,4633.78 9261.96,4633.78" /></g><path
         id="path60"
         style="fill:#ffffff;fill-opacity:1;fill-rule:nonzero;stroke:none"
         d="m 4092.06,4478.2 40.28,-386.3 259.51,-30.6 v 458 l -299.79,-41.1" /><path
         id="path62"
         style="fill:#000000;fill-opacity:1;fill-rule:nonzero;stroke:none"
         d="M 4152.26,4111.5 4370,4085.9 v 408.4 l -254.03,-34.8 z m 239.59,-72.1 c -0.85,0 -1.71,0.1 -2.56,0.2 l -259.51,30.6 c -10.16,1.2 -18.12,9.3 -19.16,19.4 l -40.29,386.4 c -1.23,11.7 7.07,22.3 18.76,23.9 l 299.8,41.1 c 6.22,0.8 12.56,-1 17.32,-5.2 4.76,-4.1 7.49,-10.1 7.49,-16.5 v -458 c 0,-6.3 -2.67,-12.2 -7.34,-16.3 -4.01,-3.6 -9.2,-5.6 -14.51,-5.6" /><path
         id="path64"
         style="fill:#ffffff;fill-opacity:1;fill-rule:nonzero;stroke:none"
         d="m 4432.72,3388.7 c -108.18,-15.3 -285.6,-28.7 -493.86,0.3 -68.09,9.5 -113.27,76.1 -96.85,143.3 45.84,187.5 124.83,543.4 260.42,708.3 l 33.67,-89.4 46.51,84.2 c 6.37,11.5 17.81,19.3 30.82,20.9 l 101.87,13 c 21.29,2.8 41.07,-11.4 45.49,-32.6 l 16.21,-77.5 62.1,101.7 27.59,-379.9 c 5.91,-81.4 18.13,-162.2 36.56,-241.7 l 27.78,-119.8 c 8.3,-63.4 -35.45,-121.8 -98.31,-130.8" /><path
         id="path66"
         style="fill:#000000;fill-opacity:1;fill-rule:nonzero;stroke:none"
         d="M 4096,4195.6 C 3986.36,4036.3 3916.19,3746 3873.13,3567.9 l -9.89,-40.8 c -6.38,-26.1 -1.39,-53.8 13.67,-76 14.98,-22.1 38.66,-36.8 64.97,-40.5 203.83,-28.4 377.75,-15.8 487.77,-0.2 50.68,7.2 86.45,54.9 79.73,106.3 l -27.41,117.7 c -18.63,80.3 -31.09,162.7 -37.06,245 l -22.66,311.9 -26.6,-43.5 c -4.67,-7.7 -13.53,-11.8 -22.36,-10.2 -8.83,1.6 -15.83,8.3 -17.66,17.1 l -16.22,77.6 c -2.12,10 -10.92,16.7 -21.33,15.4 l -101.88,-13 c -6.08,-0.8 -11.48,-4.5 -14.44,-9.9 l -46.54,-84.2 c -4.11,-7.4 -12.07,-11.7 -20.69,-11.2 -8.49,0.6 -15.85,6.1 -18.86,14.1 z m 336.73,-806.9 h 0.21 z M 4187.36,3350 c -76.19,0 -160.97,4.7 -251.5,17.3 -38.53,5.4 -73.2,27 -95.11,59.3 -22,32.4 -29.27,72.8 -19.97,110.9 l 9.88,40.7 c 46.91,194 125.4,518.8 254.89,676.2 4.95,6.1 12.62,9.2 20.44,7.7 7.7,-1.2 14.12,-6.5 16.87,-13.8 l 17,-45.1 23.65,42.7 c 9.66,17.6 27.3,29.6 47.14,32.1 l 101.88,13 c 32.45,4.1 62.93,-17.7 69.63,-49.8 l 4.93,-23.6 33.37,54.7 c 4.95,8.1 14.57,12.1 23.79,9.8 9.24,-2.2 15.96,-10.2 16.64,-19.6 l 27.59,-379.9 c 5.82,-80 17.94,-160.2 36.07,-238.4 l 27.78,-119.8 c 10.17,-77.1 -42.26,-146.8 -116.53,-157.3 -63.9,-9 -148.85,-17.1 -248.44,-17.1" /><path
         id="path68"
         style="fill:#000000;fill-opacity:1;fill-rule:nonzero;stroke:none"
         d="m 4195.36,3464.8 c -64.67,0 -141.62,6.7 -228.07,26.5 -11.76,2.7 -19.12,14.5 -16.41,26.2 2.69,11.8 14.42,19.2 26.18,16.4 250.98,-57.6 420.93,1.7 422.6,2.3 11.26,4.1 23.83,-1.8 27.95,-13.2 4.07,-11.3 -1.78,-23.8 -13.12,-27.9 -4.93,-1.8 -86.07,-30.3 -219.13,-30.3" /><path
         id="path70"
         style="fill:#000000;fill-opacity:1;fill-rule:nonzero;stroke:none"
         d="m 4070.14,3761.6 c -11.71,0 -21.42,9.2 -21.8,21.1 -0.41,12 9.04,22.1 21.1,22.5 l 243.24,8.1 c 11.65,0.8 22.16,-9 22.55,-21.1 0.4,-12 -9.05,-22.2 -21.1,-22.5 l -243.24,-8.1 c -0.26,0 -0.49,0 -0.75,0" /><path
         id="path72"
         style="fill:#ffffff;fill-opacity:1;fill-rule:nonzero;stroke:none"
         d="m 5307.54,4683.9 38.89,-563.7 h 312.26 l 14.51,563.7 h -365.66" /><path
         id="path74"
         style="fill:#000000;fill-opacity:1;fill-rule:nonzero;stroke:none"
         d="m 5366.83,4142 h 270.57 l 13.38,520.1 h -319.83 z m 291.86,-43.7 h -312.25 c -11.48,0 -21.02,8.9 -21.81,20.4 l -38.89,563.7 c -0.41,6.1 1.7,12 5.82,16.4 4.14,4.4 9.92,7 15.98,7 h 365.66 c 5.89,0 11.54,-2.4 15.64,-6.6 4.11,-4.2 6.36,-10 6.2,-15.8 l -14.5,-563.8 c -0.33,-11.8 -10.01,-21.3 -21.85,-21.3" /><path
         id="path76"
         style="fill:#ffffff;fill-opacity:1;fill-rule:nonzero;stroke:none"
         d="m 5264.85,3801.9 c -0.79,-53.3 35.41,-100.2 87.03,-112.3 179.51,-42 583.9,-135.6 699.25,-152.9 149.71,-22.5 333.71,23.7 412.81,111.8 79.1,88.2 -177.14,298.7 -298.74,375.2 -180.66,113.8 -354.2,338.6 -426.98,348.7 -72.78,10.1 -208.63,-202.4 -208.63,-202.4 l -222.05,93.9 c 0,0 -38.7,-191.5 -42.69,-462" /><path
         id="path78"
         style="fill:#000000;fill-opacity:1;fill-rule:nonzero;stroke:none"
         d="m 5264.85,3801.9 h 0.21 z m 59.33,431.3 c -10.39,-61.3 -34.41,-223.7 -37.49,-431.6 -0.64,-42.9 28.87,-81 70.18,-90.7 171.14,-40.1 581.75,-135.3 697.5,-152.6 145.35,-21.8 321.85,25.2 393.3,104.8 7.9,8.8 10.67,19.5 8.71,33.6 -11.8,84.3 -183.44,233.4 -302.83,308.5 -91.95,58 -179.53,141.6 -256.81,215.4 -64.92,62 -132.02,126.1 -161.52,130.2 -36.33,4.5 -125.51,-96 -187.22,-192.5 -5.73,-9.1 -17.08,-12.5 -26.92,-8.4 z m 804.92,-724 c -27.43,0 -54.72,1.9 -81.22,5.8 -117.34,17.6 -529.32,113.1 -701,153.4 -61.12,14.3 -104.81,70.6 -103.88,133.8 3.97,269.4 42.74,464.1 43.12,466.1 1.3,6.4 5.42,11.9 11.22,15 5.8,3 12.66,3.3 18.71,0.7 l 205.24,-86.8 c 38.28,57.5 146.06,206.8 219.95,196.9 43.45,-6.1 103.11,-63 185.67,-141.9 75.79,-72.4 161.7,-154.4 249.94,-210 98.5,-62 307.03,-226.6 322.79,-339.5 3.72,-26.6 -3,-50.4 -19.45,-68.8 -68.04,-75.8 -211.77,-124.7 -351.09,-124.7" /><path
         id="path80"
         style="fill:#000000;fill-opacity:1;fill-rule:nonzero;stroke:none"
         d="m 6127.25,3647.5 c -273.24,0 -625.2,124.5 -753.61,173.8 -11.27,4.3 -16.9,16.9 -12.57,28.2 4.31,11.2 16.92,16.8 28.23,12.6 120.92,-46.4 735.75,-270.1 964.97,-119.9 10.09,6.6 23.62,3.8 30.23,-6.3 6.61,-10.1 3.8,-23.6 -6.29,-30.2 -63.88,-41.9 -152.31,-58.2 -250.96,-58.2" /><path
         id="path82"
         style="fill:#000000;fill-opacity:1;fill-rule:nonzero;stroke:none"
         d="m 5780.23,3954.1 c -5.67,0 -11.32,2.2 -15.61,6.6 -8.43,8.6 -8.3,22.4 0.34,30.9 l 129.35,126.6 c 8.6,8.5 22.42,8.3 30.9,-0.3 8.42,-8.6 8.3,-22.4 -0.35,-30.9 l -129.35,-126.7 c -4.25,-4.1 -9.75,-6.2 -15.28,-6.2" /><path
         id="path84"
         style="fill:#ffffff;fill-opacity:1;fill-rule:nonzero;stroke:none"
         d="m 4003.51,8359.2 c 0,0 -96.76,-1762.4 -147.39,-2370.8 C 3805.48,5380 3974.52,4402 3974.52,4402 l 482,25.5 c 0,0 33.03,1189.1 68.84,1519.3 0,0 203.59,447.6 263.93,846.9 60.34,399.2 265.89,1029.8 265.89,1029.8 0,0 166.92,-3147.5 183.01,-3394.7 0,0 377.96,-17 513.47,68.8 0,0 240.1,1147.7 205.63,1772.1 -34.48,624.4 3.38,2175.8 3.38,2175.8 l -1957.16,-86.3" /><path
         id="path86"
         style="fill:#000000;fill-opacity:1;fill-rule:nonzero;stroke:none"
         d="m 4024.23,8338.2 c -10.82,-195.9 -99.14,-1784.6 -146.36,-2351.6 -45.93,-552.1 91.92,-1422 114.98,-1561.7 l 442.39,23.4 c 4.57,158.1 35.46,1197.2 68.4,1500.8 0.26,2.4 0.88,4.6 1.84,6.7 2.02,4.5 203.02,449.6 262.23,841.1 59.9,396.5 264.63,1027.1 266.68,1033.4 3.27,10 13.35,16.2 23.64,14.9 10.43,-1.4 18.39,-10 18.97,-20.5 1.62,-30.8 160.01,-3016.9 181.75,-3374.7 76.59,-1.9 357.14,-4.1 473.46,61.5 22.66,110.8 235.56,1172.3 203.28,1757 -31.83,576.3 -1.73,1957.3 2.82,2154.2 z m -49.73,-3958 c -10.56,0 -19.7,7.6 -21.51,18.1 -1.68,9.8 -168.93,987.7 -118.64,1591.9 50.03,601.1 146.38,2352.5 147.36,2370.2 0.59,11.2 9.62,20.1 20.84,20.6 l 1957.18,86.3 c 6.01,0.7 11.92,-1.9 16.25,-6.2 4.33,-4.2 6.7,-10.1 6.55,-16.1 -0.38,-15.5 -37.46,-1557.7 -3.43,-2174.1 34.24,-620.1 -203.65,-1766.2 -206.05,-1777.7 -1.2,-5.8 -4.7,-10.9 -9.69,-14 -139.72,-88.5 -510.44,-73 -526.16,-72.3 -11.12,0.5 -20.1,9.3 -20.82,20.5 -14.1,216.9 -145.83,2694.4 -176.61,3274.3 -61.72,-200.6 -184.89,-620.2 -228.86,-911.3 -57.43,-379.8 -245.63,-807.8 -264.19,-849.4 -35.18,-330.3 -68.04,-1502.2 -68.36,-1514.1 -0.32,-11.4 -9.32,-20.6 -20.69,-21.2 l -482,-25.5 c -0.38,0 -0.77,0 -1.17,0" /><path
         id="path88"
         style="fill:#000000;fill-opacity:1;fill-rule:nonzero;stroke:none"
         d="m 4436.61,5925 h -147.34 c -12.07,0 -21.84,9.8 -21.84,21.9 0,12.1 9.77,21.8 21.84,21.8 h 147.34 c 12.08,0 21.85,-9.7 21.85,-21.8 0,-12.1 -9.77,-21.9 -21.85,-21.9" /><path
         id="path90"
         style="fill:#000000;fill-opacity:1;fill-rule:nonzero;stroke:none"
         d="m 5486.09,5009.7 c -0.13,0 -0.26,0 -0.41,0 -12.05,0.2 -21.65,10.1 -21.44,22.2 5.34,292.8 323.52,816 337.07,838.1 6.28,10.3 19.76,13.6 30.02,7.2 10.31,-6.3 13.55,-19.7 7.23,-30 -3.24,-5.3 -325.5,-535.2 -330.62,-816.1 -0.22,-11.9 -9.97,-21.4 -21.85,-21.4" /><path
         id="path92"
         style="fill:#ffffff;fill-opacity:1;fill-rule:nonzero;stroke:none"
         d="m 6257.76,11147.2 c 26.73,2.1 248.86,-379.2 353.32,-561.3 29.71,-51.8 95.94,-68.6 146.56,-37.4 l 816.73,504.2 c 66.65,41.2 123.9,96.3 167,162 68.21,103.9 108.79,209.5 200.09,283.4 74.27,60 149.47,126.7 171.99,144.2 14.06,10.9 79.61,-35.7 30.26,-118.5 -15.17,-25.4 -71.83,-77 -87.34,-100.4 -24.73,-37.3 -24.73,-87.1 2.77,-122.4 29.32,-37.7 53.76,-98 20.85,-182 -48.67,-124.2 -158.96,-154.9 -221.43,-162.2 -31.38,-3.6 -60.19,-18.8 -81.04,-42.7 l -753.68,-863.6 c -116.94,-134 -312.43,-164.2 -463.9,-71.7 -245.06,149.7 -560.54,451.3 -787.8,832.6 l 485.62,335.8" /><path
         id="path94"
         style="fill:#000000;fill-opacity:1;fill-rule:nonzero;stroke:none"
         d="m 5801.44,10805 c 239.53,-394.7 553.68,-675.5 769.89,-807.6 142.56,-87.1 325.97,-58.7 436.04,67.5 l 753.67,863.6 c 24.45,28 58.21,45.8 95.01,50 56.9,6.6 158.98,34.6 203.62,148.5 23.81,60.8 17.83,114.9 -17.78,160.6 -32.85,42.2 -34.37,101.6 -3.75,147.8 8.26,12.5 24.77,29.9 42.25,48.3 17.66,18.6 37.65,39.7 44.56,51.3 19.21,32.2 16.56,54.4 10.92,67.4 -4.18,9.7 -10.58,15.5 -14.71,18.1 -10.18,-8.3 -26.37,-22.1 -45.98,-38.9 -32.41,-27.7 -76.76,-65.6 -119.99,-100.5 -61.38,-49.6 -99.61,-116.1 -140.06,-186.4 -17.28,-30 -35.16,-61 -55.5,-92 -44.18,-67.4 -104.28,-125.7 -173.79,-168.6 L 6769.13,10530 c -29.55,-18.3 -64.31,-23.7 -97.87,-15.1 -33.66,8.5 -61.76,29.9 -79.13,60.1 -201.44,351.2 -302.93,509.1 -334.89,545.3 z m 947.95,-901.5 c -68.87,0 -138.34,18.5 -200.85,56.6 -223.84,136.8 -550.28,429.3 -795.17,840.1 -5.87,9.8 -3.11,22.6 6.36,29.1 l 485.63,335.9 c 3.15,2.2 6.84,3.5 10.68,3.8 19.74,1.9 43.74,3.5 373.98,-572.2 11.42,-19.9 29.89,-34 51.97,-39.6 22.04,-5.6 44.79,-2.1 64.18,9.9 l 816.72,504.2 c 64.11,39.6 119.51,93.3 160.22,155.3 19.63,30 37.17,60.4 54.15,89.9 42.54,73.9 82.75,143.8 150.45,198.5 42.78,34.6 85.08,70.8 119.07,99.8 24.24,20.7 43.4,37.1 53.3,44.8 14.06,10.9 35.29,7.2 54.04,-9.4 27.29,-24.1 45.87,-74.7 8.36,-137.6 -9.39,-15.7 -29.32,-36.7 -50.4,-58.9 -15.42,-16.3 -31.38,-33.1 -37.5,-42.4 -20.24,-30.5 -19.52,-69.5 1.79,-96.9 31.45,-40.4 61.15,-108.5 23.96,-203.3 -52.95,-135.2 -172.64,-168.3 -239.27,-176 -25.98,-3 -49.81,-15.5 -67.08,-35.3 l -753.67,-863.6 c -75.89,-87 -182.64,-132.7 -290.92,-132.7" /><path
         id="path96"
         style="fill:#000000;fill-opacity:1;fill-rule:nonzero;stroke:none"
         d="m 3454.61,10438 c 0,0 -54.33,1004 704.67,1286 587.74,218.4 1338.27,124.2 1573.49,42.6 579.14,-200.9 864.21,-966.1 864.21,-966.1 l -678.73,-95.6 c 0,0 204.57,-2198.5 115.84,-2688.9 0,0 -546.21,-64.1 -777.87,27.7 -231.67,91.9 -993.4,220.5 -1357.52,52.2 l 66.17,2351.5 -510.26,-9.4" /><path
         id="path98"
         style="fill:#ffffff;fill-opacity:1;fill-rule:nonzero;stroke:none"
         d="m 4400.62,8558.6 c -10.39,0 -19.61,7.5 -21.48,18.1 -2.12,11.8 5.8,23.2 17.68,25.3 864.13,153.7 1116.6,755.5 1119.05,761.5 4.53,11.2 17.26,16.6 28.45,12.1 11.17,-4.5 16.59,-17.2 12.09,-28.4 -2.52,-6.3 -262.87,-630 -1151.95,-788.2 -1.28,-0.3 -2.58,-0.4 -3.84,-0.4" /><path
         id="path100"
         style="fill:#ffffff;fill-opacity:1;fill-rule:nonzero;stroke:none"
         d="M 6020.03,9629.2 H 4908.05 l 348.29,1250.3 H 6368.32 L 6020.03,9629.2" /><path
         id="path102"
         style="fill:#000000;fill-opacity:1;fill-rule:nonzero;stroke:none"
         d="m 4936.81,9651.1 h 1066.63 l 336.13,1206.6 H 5272.93 Z m 1083.23,-43.7 H 4908.05 c -6.83,0 -13.27,3.2 -17.39,8.6 -4.14,5.5 -5.48,12.5 -3.65,19.1 l 348.29,1250.3 c 2.62,9.4 11.22,15.9 21.04,15.9 h 1111.99 c 6.83,0 13.27,-3.1 17.39,-8.6 4.14,-5.4 5.48,-12.5 3.65,-19.1 l -348.3,-1250.3 c -2.62,-9.4 -11.22,-15.9 -21.03,-15.9" /><path
         id="path104"
         style="fill:#ffffff;fill-opacity:1;fill-rule:nonzero;stroke:none"
         d="m 3586.4,10437.1 489.01,22.2 c 0,0 3.67,-414.6 47.79,-422 157.19,-26.3 486.38,-27.6 700.63,-1.6 74.6,9.1 133.68,66.5 147.71,140.8 10.59,56.2 40.79,122.1 117.38,169.5 74.03,45.9 1.03,-98.4 70.25,-191.3 37.2,-49.9 154.93,-27.8 315.5,9.6 160.57,37.5 201.34,-135.2 21.39,-239.6 -195.08,-113.2 -319.04,-100.5 -381.25,-113.7 -123.92,-26.4 -1219.57,-199.3 -1388.69,-106.7 -130.67,71.4 -139.72,732.8 -139.72,732.8" /><path
         id="path106"
         style="fill:#000000;fill-opacity:1;fill-rule:nonzero;stroke:none"
         d="m 3608.61,10416.2 c 5.2,-252.3 43.37,-646.5 127.98,-692.8 154.68,-84.5 1196.14,71.1 1373.67,109 14.44,3 31.3,4.7 50.79,6.8 69.6,7.1 174.74,17.8 324.04,104.4 89.67,52 119.51,122.3 102.64,164.8 -13.37,33.8 -54.77,47 -108.08,34.7 -169.17,-39.5 -292.46,-62.6 -337.99,-1.5 -38.57,51.8 -38.02,116.6 -37.68,159.4 0.09,9.1 0.18,20.4 -0.38,28.4 -0.96,-0.6 -2.03,-1.2 -3.18,-1.9 -58.71,-36.4 -94.85,-88.6 -107.42,-155 -15.96,-84.6 -82.88,-148.3 -166.54,-158.5 -215.1,-26.1 -545.38,-25.3 -706.87,1.8 -16.72,2.8 -60.61,10.2 -65.79,420.6 z m 329.94,-760.7 c -103.81,0 -184.27,8.5 -222.91,29.6 -137.89,75.4 -150.15,682.6 -151.09,751.6 -0.15,11.8 9.07,21.6 20.87,22.2 l 489.01,22.2 c 6.04,0.5 11.71,-1.9 16,-6 4.31,-4.1 6.77,-9.7 6.83,-15.7 1.51,-170.7 15.04,-368.6 34.48,-401.3 157.38,-25.3 483.61,-25.8 689.43,-0.7 64.69,7.8 116.49,57.4 128.91,123.2 14.7,77.9 58.73,141.5 127.34,184 8.35,5.2 30.51,18.9 50.12,7.9 20.65,-11.6 20.41,-38.2 20.14,-71.9 -0.32,-39.2 -0.77,-92.9 29.01,-132.8 32.01,-43 182.84,-7.8 293.04,17.8 74.69,17.4 137.01,-6.5 158.62,-61.1 23.02,-58.1 -5.12,-151.3 -121.33,-218.7 -157.43,-91.3 -272.68,-103.1 -341.53,-110.1 -18.24,-1.9 -33.98,-3.5 -46.14,-6.1 -61.98,-13.2 -788.28,-134.1 -1180.8,-134.1" /><path
         id="path108"
         style="fill:#ffffff;fill-opacity:1;fill-rule:nonzero;stroke:none"
         d="m 5270.3,11748.7 c 0,0 -126.61,77.9 -125.38,123.5 l -36.14,233.8 c -0.36,21.4 12.84,40.6 32.75,47.6 l 149.74,51.5 c 19.07,6.7 31.38,25.5 30.1,46 l -11.68,185.8 58.69,52 c 4.61,4.1 5.16,11.1 1.26,15.8 l -92.7,113 c -30.32,42.7 -60.74,144.8 -85.55,137.8 0,0 -528.22,61.1 -553.98,-205.3 -3.73,-38.5 7.87,-77.1 30.23,-108.6 l 46.78,-65.9 c 46.98,-66.3 71.71,-147.4 63.38,-228.6 -1.73,-16.9 -23.67,-125.4 -38.37,-197.2 -8.35,-40.7 -30.97,-77 -63.8,-102.3 -41.25,-31.8 -91.49,-72.2 -83.3,-74.9 0,0 58.5,-42.9 150.84,-81 163.99,-67.6 350.49,-50.8 502.03,41.7 l 25.1,15.3" /><path
         id="path110"
         style="fill:#000000;fill-opacity:1;fill-rule:nonzero;stroke:none"
         d="m 4624.04,11777.8 c 23.74,-15.2 68.71,-41.7 127.45,-65.9 154.1,-63.5 332.33,-49.5 477.86,37.5 -42.56,29.2 -105.05,79.3 -106.27,121 l -35.88,232.3 c -0.15,1 -0.24,1.9 -0.26,2.9 -0.51,30.9 18.49,58.5 47.32,68.6 l 149.9,51.5 c 9.66,3.4 16.06,13.3 15.4,24 l -11.67,185.9 c -0.42,6.7 2.29,13.2 7.32,17.7 l 51.2,45.3 -86.36,105.2 c -13.55,19 -25.54,44.8 -37.1,69.6 -9.71,20.9 -24.02,51.7 -32.43,60.3 -0.55,0 -1.09,0.1 -1.62,0.1 -3.31,0.4 -329.93,36.5 -469.71,-76.5 -36.12,-29.2 -55.75,-64.9 -60.03,-109.2 -3.12,-32.2 6.23,-65.5 26.3,-93.8 l 46.77,-66 c 52.01,-73.3 75.9,-159.8 67.31,-243.4 -1.43,-13.9 -14.45,-81 -38.71,-199.4 -9.36,-45.8 -34.88,-86.7 -71.85,-115.2 -34.78,-26.8 -54.15,-42.9 -64.94,-52.5 z m 327.51,-148.9 c -73.78,0 -147.49,14.1 -216.7,42.6 -93.72,38.7 -152.97,81.8 -155.45,83.6 -4.82,3.6 -8.44,9.1 -9.45,14.8 -2.45,14 -3.69,21.1 92.36,95 28.65,22.1 48.45,53.9 55.73,89.4 22.93,112 36.8,183.1 38.01,195 7.54,73.2 -13.58,149.1 -59.45,213.7 l -46.77,66 c -26.16,36.9 -38.3,80.6 -34.16,123.3 5.4,55.8 31,102.5 76.11,139 147.61,119.3 460.44,90.4 498.72,86.3 30.14,4.1 48.86,-35.9 72.07,-85.7 10.73,-23.1 21.86,-47 32.19,-61.6 l 91.78,-111.7 c 11.42,-13.9 9.8,-34.1 -3.69,-46.1 l -50.69,-44.9 11.01,-175.1 c 1.88,-30.1 -16.47,-58.1 -44.63,-68 l -149.9,-51.5 c -10.52,-3.7 -17.69,-13.8 -18.01,-25.3 l 35.89,-232.2 c 0.19,-1.3 0.28,-2.6 0.25,-3.9 -0.47,-17.3 54.34,-67 115,-104.3 6.46,-4 10.41,-11 10.39,-18.6 -0.02,-7.6 -3.99,-14.7 -10.48,-18.6 l -25.11,-15.3 c -93.19,-56.9 -199.2,-85.9 -305.02,-85.9" /><path
         id="path112"
         style="fill:#000000;fill-opacity:1;fill-rule:nonzero;stroke:none"
         d="m 5208.96,13160.9 c -120.37,6.2 31.84,-117.8 -414.08,10.3 -177.58,51.1 -86.36,-157.3 -132.46,-144.2 -170.25,48.5 -164.4,47 -247.15,24.4 -54.8,-14.9 -89.76,-117.4 -78.85,-193.8 14.41,-100.7 127.43,-260.7 228.64,-429.8 52.42,-87.5 145.21,-95.5 257.44,34.8 11.95,13.9 -49.11,95.6 -17.24,130.8 82.83,91.6 119.64,-46.7 186.5,-4 64.19,41 90.72,67.5 158.56,129.5 82.1,75 219.94,-41.8 267.48,127.1 24.8,88 -44.06,306.4 -208.84,314.9" /><g
         transform="scale(1.16994)"
         id="g114"><path
           id="path116"
           style="fill:#ffffff;fill-opacity:1;fill-rule:nonzero;stroke:none"
           d="m 8655.15,13119.3 h -5556 v 3158.9 c 0,12.1 9.75,21.8 21.76,21.8 h 5504.84 c 16.24,0 29.4,-13.1 29.4,-29.4 v -3151.3" /></g><g
         transform="scale(1.17128)"
         id="g118"><path
           id="path120"
           style="fill:#000000;fill-opacity:1;fill-rule:nonzero;stroke:none"
           d="M 3114.26,13122.9 H 8626.54 V 16252 c 0,5.9 -4.78,10.7 -10.67,10.7 H 3117.33 c -1.69,0 -3.07,-1.4 -3.07,-3.1 z m 5530.98,-37.3 H 3095.61 c -10.31,0 -18.66,8.3 -18.66,18.6 v 3155.4 c 0,22.3 18.13,40.4 40.38,40.4 h 5498.54 c 26.47,0 47.98,-21.5 47.98,-48 v -3147.8 c 0,-10.3 -8.36,-18.6 -18.61,-18.6" /></g><g
         transform="scale(1.07263)"
         id="g122"><path
           id="path124"
           style="fill:#000000;fill-opacity:1;fill-rule:nonzero;stroke:none"
           d="m 8490.88,16259.3 c -24.56,0 -44.53,-20 -44.53,-44.6 v -518.2 c 0,-24.6 19.97,-44.6 44.53,-44.6 h 233.61 c 24.56,0 44.53,20 44.53,44.6 v 518.2 c 0,24.6 -19.97,44.6 -44.53,44.6 z m 233.61,-648.1 h -233.61 c -47.02,0 -85.27,38.3 -85.27,85.3 v 518.2 c 0,47 38.25,85.3 85.27,85.3 h 233.61 c 47.02,0 85.27,-38.3 85.27,-85.3 v -518.2 c 0,-47 -38.25,-85.3 -85.27,-85.3" /></g><g
         transform="scale(1.07263)"
         id="g126"><path
           id="path128"
           style="fill:#000000;fill-opacity:1;fill-rule:nonzero;stroke:none"
           d="m 8923.77,16259.3 c -28.18,0 -51.1,-22.9 -51.1,-51.1 V 15703 c 0,-28.1 22.92,-51.1 51.1,-51.1 h 220.51 c 28.16,0 51.07,23 51.07,51.1 v 505.2 c 0,28.2 -22.91,51.1 -51.07,51.1 z m 220.51,-648.1 h -220.51 c -50.64,0 -91.83,41.2 -91.83,91.8 v 505.2 c 0,50.6 41.19,91.8 91.83,91.8 h 220.51 c 50.62,0 91.81,-41.2 91.81,-91.8 V 15703 c 0,-50.6 -41.19,-91.8 -91.81,-91.8" /></g><g
         transform="scale(1.02524)"
         id="g130"><path
           id="path132"
           style="fill:#000000;fill-opacity:1;fill-rule:nonzero;stroke:none"
           d="m 8863.94,16257.4 c -15.01,0 -27.22,-12.2 -27.22,-27.2 v -581 c 0,-15 12.21,-27.2 27.22,-27.2 h 283.17 c 15,0 27.22,12.2 27.22,27.2 v 581 c 0,15 -12.22,27.2 -27.22,27.2 z m 283.17,-678 h -283.17 c -38.5,0 -69.85,31.3 -69.85,69.8 v 581 c 0,38.5 31.35,69.8 69.85,69.8 h 283.17 c 38.5,0 69.84,-31.3 69.84,-69.8 v -581 c 0,-38.5 -31.34,-69.8 -69.84,-69.8" /></g><g
         transform="scale(1.02524)"
         id="g134"><path
           id="path136"
           style="fill:#000000;fill-opacity:1;fill-rule:nonzero;stroke:none"
           d="m 9338.14,16257.4 c -30.52,0 -55.38,-24.9 -55.38,-55.4 v -524.6 c 0,-30.5 24.86,-55.4 55.38,-55.4 h 226.85 c 30.52,0 55.37,24.9 55.37,55.4 v 524.6 c 0,30.5 -24.85,55.4 -55.37,55.4 z m 226.85,-678 h -226.85 c -54.04,0 -97.99,43.9 -97.99,98 v 524.6 c 0,54.1 43.95,98 97.99,98 h 226.85 c 54.04,0 97.99,-43.9 97.99,-98 v -524.6 c 0,-54.1 -43.95,-98 -97.99,-98" /></g><g
         transform="scale(1.0721)"
         id="g138"><path
           id="path140"
           style="fill:#000000;fill-opacity:1;fill-rule:nonzero;stroke:none"
           d="m 3671.64,16259.2 c -24.58,0 -44.56,-19.9 -44.56,-44.5 v -518.5 c 0,-24.6 19.98,-44.6 44.56,-44.6 h 233.73 c 24.58,0 44.56,20 44.56,44.6 v 518.5 c 0,24.6 -19.98,44.5 -44.56,44.5 z m 233.73,-648.3 h -233.73 c -47.04,0 -85.31,38.3 -85.31,85.3 v 518.5 c 0,47 38.27,85.3 85.31,85.3 h 233.73 c 47.04,0 85.31,-38.3 85.31,-85.3 v -518.5 c 0,-47 -38.27,-85.3 -85.31,-85.3" /></g><g
         transform="scale(1.0721)"
         id="g142"><path
           id="path144"
           style="fill:#000000;fill-opacity:1;fill-rule:nonzero;stroke:none"
           d="m 4104.75,16259.2 c -28.2,0 -51.13,-22.9 -51.13,-51.1 v -505.4 c 0,-28.1 22.93,-51.1 51.13,-51.1 h 220.61 c 28.2,0 51.13,23 51.13,51.1 v 505.4 c 0,28.2 -22.93,51.1 -51.13,51.1 z m 220.61,-648.3 h -220.61 c -50.67,0 -91.88,41.2 -91.88,91.8 v 505.4 c 0,50.7 41.21,91.9 91.88,91.9 h 220.61 c 50.67,0 91.88,-41.2 91.88,-91.9 v -505.4 c 0,-50.6 -41.21,-91.8 -91.88,-91.8" /></g><g
         transform="scale(1.02471)"
         id="g146"><path
           id="path148"
           style="fill:#000000;fill-opacity:1;fill-rule:nonzero;stroke:none"
           d="m 3822.04,16257.4 c -15.01,0 -27.23,-12.2 -27.23,-27.3 v -581.2 c 0,-15 12.22,-27.2 27.23,-27.2 h 283.32 c 15.02,0 27.24,12.2 27.24,27.2 v 581.2 c 0,15.1 -12.22,27.3 -27.24,27.3 z m 283.32,-678.4 h -283.32 c -38.52,0 -69.87,31.4 -69.87,69.9 v 581.2 c 0,38.6 31.35,69.9 69.87,69.9 h 283.32 c 38.52,0 69.87,-31.3 69.87,-69.9 v -581.2 c 0,-38.5 -31.35,-69.9 -69.87,-69.9" /></g><g
         transform="scale(1.02471)"
         id="g150"><path
           id="path152"
           style="fill:#000000;fill-opacity:1;fill-rule:nonzero;stroke:none"
           d="m 4296.5,16257.4 c -30.55,0 -55.41,-24.9 -55.41,-55.4 v -524.9 c 0,-30.6 24.86,-55.4 55.41,-55.4 h 226.96 c 30.54,0 55.4,24.8 55.4,55.4 v 524.9 c 0,30.5 -24.86,55.4 -55.4,55.4 z M 4523.46,15579 H 4296.5 c -54.08,0 -98.05,44 -98.05,98.1 v 524.9 c 0,54 43.97,98 98.05,98 h 226.96 c 54.06,0 98.03,-44 98.03,-98 v -524.9 c 0,-54.1 -43.97,-98.1 -98.03,-98.1" /></g><g
         transform="scale(1.25109)"
         id="g154"><path
           id="path156"
           style="fill:#ffffff;fill-opacity:1;fill-rule:nonzero;stroke:none"
           d="M 8183.21,15019.6 H 2808.69 c -46.38,0 -78.65,46.1 -62.78,89.7 l 417.44,1146.6 c 9.66,26.5 34.95,44.1 63.18,43.9 l 4527.95,-27.2 c 27.53,-0.2 52.13,-17.2 61.98,-42.9 l 429.09,-1119.3 c 16.79,-43.8 -15.5,-90.8 -62.34,-90.8" /></g><g
         transform="scale(1.25241)"
         id="g158"><path
           id="path160"
           style="fill:#000000;fill-opacity:1;fill-rule:nonzero;stroke:none"
           d="m 3222.71,16265.1 c -20.67,0 -39.26,-13 -46.32,-32.4 l -417,-1145.4 c -5.57,-15.3 -3.41,-31.8 5.94,-45.1 9.35,-13.4 24.08,-21 40.39,-21 h 5368.82 c 16.45,0 31.3,7.8 40.64,21.3 9.27,13.6 11.26,30.2 5.35,45.6 l -428.63,1118.1 c -7.32,19.1 -25.27,31.6 -45.73,31.7 l -4523.16,27.2 c -0.1,0 -0.21,0 -0.3,0 z M 8174.54,14986.3 H 2805.72 c -27.44,0 -53.23,13.4 -68.97,35.9 -15.75,22.5 -19.52,51.3 -10.14,77.1 l 417,1145.3 c 12.06,33.2 43.81,55.4 79.1,55.4 0.17,0 0.33,0 0.51,0 l 4523.15,-27.2 c 34.96,-0.3 65.61,-21.5 78.09,-54.1 l 428.65,-1118.1 c 9.9,-25.9 6.46,-55 -9.18,-77.8 -15.73,-22.9 -41.68,-36.5 -69.39,-36.5" /></g><g
         transform="scale(1.31517)"
         id="g162"><path
           id="path164"
           style="fill:#ffffff;fill-opacity:1;fill-rule:nonzero;stroke:none"
           d="M 6723.27,11670.5 6713.12,14437.6 5245.01,16300 3733,14463.6 l 14.15,-2793.1 h 2976.12" /></g><g
         transform="scale(1.31656)"
         id="g166"><path
           id="path168"
           style="fill:#000000;fill-opacity:1;fill-rule:nonzero;stroke:none"
           d="m 3759.7,11674.8 h 2939.8 l -10.06,2741.7 -1450.25,1839.8 -1493.51,-1813.9 z m 2956.46,-33.2 H 3743.19 c -9.14,0 -16.55,7.4 -16.59,16.5 l -14.13,2790.1 c -0.02,3.9 1.31,7.6 3.78,10.6 l 1510.4,1834.5 c 3.21,3.9 8.27,6.7 13,6.1 5.02,-0.1 9.74,-2.4 12.85,-6.4 l 1466.55,-1860.4 c 2.3,-2.9 3.55,-6.5 3.56,-10.2 l 10.15,-2764.1 c 0.01,-4.4 -1.72,-8.7 -4.85,-11.8 -3.11,-3.2 -7.34,-4.9 -11.75,-4.9" /></g><g
         transform="scale(1.07324)"
         id="g170"><path
           id="path172"
           style="fill:#000000;fill-opacity:1;fill-rule:nonzero;stroke:none"
           d="m 5399.14,16259.3 c -24.55,0 -44.51,-20 -44.51,-44.5 v -727 c 0,-24.5 19.96,-44.5 44.51,-44.5 h 272.66 c 24.56,0 44.54,20 44.54,44.5 v 727 c 0,24.5 -19.98,44.5 -44.54,44.5 z m 272.66,-856.7 h -272.66 c -46.98,0 -85.22,38.2 -85.22,85.2 v 727 c 0,47 38.24,85.2 85.22,85.2 h 272.66 c 47,0 85.24,-38.2 85.24,-85.2 v -727 c 0,-47 -38.24,-85.2 -85.24,-85.2" /></g><g
         transform="scale(1.07324)"
         id="g174"><path
           id="path176"
           style="fill:#000000;fill-opacity:1;fill-rule:nonzero;stroke:none"
           d="m 4933.62,16259.3 c -28.15,0 -51.04,-22.9 -51.04,-51.1 v -713.8 c 0,-28.2 22.89,-51.1 51.07,-51.1 h 259.55 c 28.16,0 51.07,22.9 51.07,51.1 v 713.8 c 0,28.2 -22.91,51.1 -51.07,51.1 z m 259.58,-856.7 h -259.55 c -50.63,0 -91.79,41.2 -91.79,91.8 v 713.8 c 0,50.6 41.16,91.8 91.76,91.8 h 259.58 c 50.61,0 91.79,-41.2 91.79,-91.8 v -713.8 c 0,-50.6 -41.18,-91.8 -91.79,-91.8" /></g><g
         transform="scale(1.01056)"
         id="g178"><path
           id="path180"
           style="fill:#000000;fill-opacity:1;fill-rule:nonzero;stroke:none"
           d="m 5714.33,16256.8 c -15.22,0 -27.62,-12.4 -27.62,-27.6 v -811.4 c 0,-15.2 12.4,-27.6 27.62,-27.6 h 328.92 c 15.23,0 27.59,12.4 27.59,27.6 v 811.4 c 0,15.2 -12.36,27.6 -27.59,27.6 z m 328.92,-909.9 h -328.92 c -39.08,0 -70.85,31.8 -70.85,70.9 v 811.4 c 0,39 31.77,70.8 70.85,70.8 h 328.92 c 39.06,0 70.83,-31.8 70.83,-70.8 v -811.4 c 0,-39.1 -31.77,-70.9 -70.83,-70.9" /></g><g
         transform="scale(1.01056)"
         id="g182"><path
           id="path184"
           style="fill:#000000;fill-opacity:1;fill-rule:nonzero;stroke:none"
           d="m 5241.55,16256.8 c -30.97,0 -56.18,-25.2 -56.18,-56.2 v -754.3 c 0,-30.9 25.21,-56.1 56.18,-56.1 h 271.77 c 30.98,0 56.18,25.2 56.18,56.1 v 754.3 c 0,31 -25.2,56.2 -56.18,56.2 z m 271.77,-909.9 h -271.77 c -54.82,0 -99.42,44.6 -99.42,99.4 v 754.3 c 0,54.8 44.6,99.4 99.42,99.4 h 271.77 c 54.83,0 99.43,-44.6 99.43,-99.4 v -754.3 c 0,-54.8 -44.6,-99.4 -99.43,-99.4" /></g><g
         transform="scale(1.07217)"
         id="g186"><path
           id="path188"
           style="fill:#000000;fill-opacity:1;fill-rule:nonzero;stroke:none"
           d="m 7621.2,16259.3 c -24.57,0 -44.55,-20 -44.55,-44.6 V 15487 c 0,-24.6 19.98,-44.6 44.55,-44.6 h 272.94 c 24.57,0 44.57,20 44.57,44.6 v 727.7 c 0,24.6 -20,44.6 -44.57,44.6 z m 272.94,-857.6 H 7621.2 c -47.04,0 -85.3,38.3 -85.3,85.3 v 727.7 c 0,47 38.26,85.3 85.3,85.3 h 272.94 c 47.03,0 85.32,-38.3 85.32,-85.3 V 15487 c 0,-47 -38.29,-85.3 -85.32,-85.3" /></g><g
         transform="scale(1.07217)"
         id="g190"><path
           id="path192"
           style="fill:#000000;fill-opacity:1;fill-rule:nonzero;stroke:none"
           d="m 7155.21,16259.3 c -28.19,0 -51.12,-23 -51.12,-51.1 v -714.6 c 0,-28.2 22.93,-51.2 51.12,-51.2 h 259.84 c 28.18,0 51.11,23 51.11,51.2 v 714.6 c 0,28.1 -22.93,51.1 -51.11,51.1 z m 259.84,-857.6 h -259.84 c -50.66,0 -91.87,41.2 -91.87,91.9 v 714.6 c 0,50.6 41.21,91.8 91.87,91.8 h 259.84 c 50.65,0 91.85,-41.2 91.85,-91.8 v -714.6 c 0,-50.7 -41.2,-91.9 -91.85,-91.9" /></g><g
         transform="scale(1.0095)"
         id="g194"><path
           id="path196"
           style="fill:#000000;fill-opacity:1;fill-rule:nonzero;stroke:none"
           d="m 8074.66,16256.7 c -15.23,0 -27.63,-12.4 -27.63,-27.6 v -812.3 c 0,-15.2 12.4,-27.6 27.63,-27.6 h 329.28 c 15.23,0 27.62,12.4 27.62,27.6 v 812.3 c 0,15.2 -12.39,27.6 -27.62,27.6 z m 329.28,-910.8 h -329.28 c -39.12,0 -70.92,31.8 -70.92,70.9 v 812.3 c 0,39.1 31.8,70.9 70.92,70.9 h 329.28 c 39.09,0 70.9,-31.8 70.9,-70.9 v -812.3 c 0,-39.1 -31.81,-70.9 -70.9,-70.9" /></g><g
         transform="scale(1.0095)"
         id="g198"><path
           id="path200"
           style="fill:#000000;fill-opacity:1;fill-rule:nonzero;stroke:none"
           d="m 7601.39,16256.7 c -31,0 -56.24,-25.2 -56.24,-56.2 v -755.1 c 0,-31 25.24,-56.2 56.24,-56.2 h 272.05 c 31.01,0 56.25,25.2 56.25,56.2 v 755.1 c 0,31 -25.24,56.2 -56.25,56.2 z m 272.05,-910.8 h -272.05 c -54.89,0 -99.52,44.6 -99.52,99.5 v 755.1 c 0,54.9 44.63,99.5 99.52,99.5 h 272.05 c 54.89,0 99.53,-44.6 99.53,-99.5 v -755.1 c 0,-54.9 -44.64,-99.5 -99.53,-99.5" /></g><g
         transform="scale(1.07129)"
         id="g202"><path
           id="path204"
           style="fill:#000000;fill-opacity:1;fill-rule:nonzero;stroke:none"
           d="m 6058.04,14301 h 724.73 c 67.59,0 122.36,54.8 122.36,122.4 v 1754.2 c 0,67.6 -54.77,122.4 -122.36,122.4 h -724.73 c -67.58,0 -122.36,-54.8 -122.36,-122.4 v -1754.2 c 0,-67.6 54.78,-122.4 122.36,-122.4" /></g><g
         transform="scale(1.06763)"
         id="g206"><path
           id="path208"
           style="fill:#ffffff;fill-opacity:1;fill-rule:nonzero;stroke:none"
           d="m 6087.47,14420.9 h 706.09 c 45.2,0 81.84,36.7 81.84,81.9 v 1715.4 c 0,45.2 -36.64,81.8 -81.84,81.8 h -706.09 c -45.2,0 -81.84,-36.6 -81.84,-81.8 v -1715.4 c 0,-45.2 36.64,-81.9 81.84,-81.9" /></g><g
         transform="scale(1.06897)"
         id="g210"><path
           id="path212"
           style="fill:#000000;fill-opacity:1;fill-rule:nonzero;stroke:none"
           d="m 6079.85,16259.1 c -33.81,0 -61.32,-27.5 -61.32,-61.3 v -1713.2 c 0,-33.8 27.51,-61.3 61.32,-61.3 h 705.19 c 33.81,0 61.31,27.5 61.31,61.3 v 1713.2 c 0,33.8 -27.5,61.3 -61.31,61.3 z m 705.19,-1876.7 h -705.19 c -56.34,0 -102.19,45.9 -102.19,102.2 v 1713.2 c 0,56.4 45.85,102.2 102.19,102.2 h 705.19 c 56.33,0 102.18,-45.8 102.18,-102.2 v -1713.2 c 0,-56.3 -45.85,-102.2 -102.18,-102.2" /></g><path
         id="path214"
         style="fill:#ffffff;fill-opacity:1;fill-rule:nonzero;stroke:none"
         d="m 6265.36,15279.6 h 1221.07 c 34.17,0 61.87,27.7 61.87,61.8 v 63 c 0,34.2 -27.7,61.9 -61.87,61.9 H 6265.36 c -34.17,0 -61.87,-27.7 -61.87,-61.9 v -63 c 0,-34.1 27.7,-61.8 61.87,-61.8" /><path
         id="path216"
         style="fill:#000000;fill-opacity:1;fill-rule:nonzero;stroke:none"
         d="m 6265.35,15444.4 c -22.06,0 -40.01,-17.9 -40.01,-40 v -63 c 0,-22 17.97,-40 40.03,-40 h 1221.05 c 22.06,0 40.03,18 40.03,40 v 63 c 0,22.1 -17.97,40 -40.03,40 z m 1221.07,-186.7 H 6265.37 c -46.17,0 -83.72,37.6 -83.72,83.7 v 63 c 0,46.2 37.55,83.7 83.7,83.7 h 1221.07 c 46.17,0 83.72,-37.5 83.72,-83.7 v -63 c 0,-46.1 -37.55,-83.7 -83.72,-83.7" /><g
         transform="scale(1.05399)"
         id="g218"><path
           id="path220"
           style="fill:#000000;fill-opacity:1;fill-rule:nonzero;stroke:none"
           d="m 6259.73,15888.4 c -6.82,0 -13.5,3.4 -17.45,9.5 -6.19,9.7 -3.41,22.5 6.21,28.7 l 571.29,367.2 c 9.68,6.2 22.47,3.4 28.64,-6.2 6.2,-9.6 3.4,-22.5 -6.21,-28.6 l -571.29,-367.3 c -3.48,-2.2 -7.35,-3.3 -11.19,-3.3" /></g><g
         transform="scale(1.03649)"
         id="g222"><path
           id="path224"
           style="fill:#000000;fill-opacity:1;fill-rule:nonzero;stroke:none"
           d="m 6341.79,15907.5 c -6.93,0 -13.72,3.4 -17.74,9.7 -6.29,9.8 -3.46,22.8 6.32,29.1 l 540.41,347.4 c 9.84,6.3 22.85,3.5 29.13,-6.3 6.29,-9.8 3.45,-22.9 -6.32,-29.1 l -540.4,-347.4 c -3.56,-2.3 -7.48,-3.4 -11.4,-3.4" /></g><g
         transform="scale(1.31698)"
         id="g226"><path
           id="path228"
           style="fill:#000000;fill-opacity:1;fill-rule:nonzero;stroke:none"
           d="m 3564.75,14300.4 1650.55,1981.2 c 15.3,18.4 43.8,18.2 58.83,-0.4 L 6878.29,14300 c 10.44,-12.9 1.15,-32 -15.57,-32 H 6696.81 L 5244.97,16099.1 3706.16,14261.3 h -122.75 c -20.42,0 -31.65,23.5 -18.66,39.1" /></g><g
         transform="scale(1.21685)"
         id="g230"><path
           id="path232"
           style="fill:#000000;fill-opacity:1;fill-rule:nonzero;stroke:none"
           d="m 4713.89,15133.3 h 1873.37 v 194.1 c 0,516.5 -420.2,936.7 -936.67,936.7 -516.51,0 -936.7,-420.2 -936.7,-936.7 z m 1891.32,-35.9 H 4695.94 c -9.92,0 -17.95,8 -17.95,17.9 v 212.1 c 0,536.3 436.31,972.6 972.58,972.6 536.27,0 972.6,-436.3 972.6,-972.6 v -212.1 c 0,-9.9 -8.03,-17.9 -17.96,-17.9" /></g><g
         transform="scale(1.20328)"
         id="g234"><path
           id="path236"
           style="fill:#000000;fill-opacity:1;fill-rule:nonzero;stroke:none"
           d="m 5714.26,15394 c -10.03,0 -18.15,8.1 -18.15,18.2 v 869.6 c 0,10.1 8.12,18.2 18.15,18.2 10.04,0 18.16,-8.1 18.16,-18.2 v -869.6 c 0,-10.1 -8.12,-18.2 -18.16,-18.2" /></g><g
         transform="scale(1.16866)"
         id="g238"><path
           id="path240"
           style="fill:#000000;fill-opacity:1;fill-rule:nonzero;stroke:none"
           d="m 5705.05,15850.1 c -3.69,0 -7.41,1.1 -10.68,3.3 l -588.13,410 c -8.47,5.9 -10.53,17.6 -4.63,26.1 5.89,8.4 17.5,10.5 26.02,4.6 l 588.13,-410 c 8.48,-5.9 10.54,-17.5 4.64,-26 -3.63,-5.2 -9.44,-8 -15.35,-8" /></g><g
         transform="scale(1.16866)"
         id="g242"><path
           id="path244"
           style="fill:#000000;fill-opacity:1;fill-rule:nonzero;stroke:none"
           d="m 6062.09,15850.1 c -5.92,0 -11.73,2.8 -15.35,8 -5.91,8.5 -3.85,20.1 4.62,26 l 588.14,410 c 8.51,5.9 20.14,3.8 26.03,-4.6 5.9,-8.5 3.83,-20.2 -4.64,-26.1 l -588.12,-409.9 c -3.27,-2.3 -6.99,-3.4 -10.68,-3.4" /></g><g
         transform="scale(1.09183)"
         id="g246"><path
           id="path248"
           style="fill:#000000;fill-opacity:1;fill-rule:nonzero;stroke:none"
           d="m 4665.61,16254.7 c -11.04,0 -19.99,8.9 -20.01,19.9 -0.02,11.1 8.93,20.1 19.97,20.1 l 3263.99,5.3 c 0.01,0 0.01,0 0.04,0 11.03,0 19.98,-8.9 20,-20 0.02,-11 -8.93,-20 -19.97,-20 l -3263.98,-5.3 c -0.02,0 -0.02,0 -0.04,0" /></g><g
         transform="scale(1.11)"
         id="g250"><path
           id="path252"
           style="fill:#000000;fill-opacity:1;fill-rule:nonzero;stroke:none"
           d="m 4589.22,16255.4 c -10.85,0 -19.65,8.8 -19.67,19.7 -0.03,10.8 8.78,19.6 19.64,19.7 l 3210.55,5.2 c 0.01,0 0.01,0 0.03,0 10.86,0 19.66,-8.8 19.68,-19.6 0.02,-10.9 -8.78,-19.7 -19.64,-19.8 l -3210.54,-5.2 c -0.03,0 -0.03,0 -0.05,0" /></g><g
         transform="scale(1.32822)"
         id="g254"><path
           id="path256"
           style="fill:#000000;fill-opacity:1;fill-rule:nonzero;stroke:none"
           d="m 11210.4,16300 c -334.6,0 -605.9,-270.5 -605.9,-604.1 0,-83.5 37.9,-200.1 94.7,-328.2 143.1,-322.8 406.6,-718.1 487.2,-836.2 11.5,-16.9 36.4,-16.9 48,0 112.4,164.9 581.9,870.7 581.9,1164.4 0,333.6 -271.3,604.1 -605.9,604.1" /></g><g
         transform="scale(1.30071)"
         id="g258"><path
           id="path260"
           style="fill:#ffffff;fill-opacity:1;fill-rule:nonzero;stroke:none"
           d="m 11718.2,16029.3 c 0,-149.5 -121.2,-270.7 -270.7,-270.7 -149.5,0 -270.7,121.2 -270.7,270.7 0,149.5 121.2,270.7 270.7,270.7 149.5,0 270.7,-121.2 270.7,-270.7" /></g><g
         transform="scale(1.17626)"
         id="g262"><path
           id="path264"
           style="fill:#000000;fill-opacity:1;fill-rule:nonzero;stroke:none"
           d="m 15329.7,16300 c -377.8,0 -684.1,-305.4 -684.1,-682.2 0,-94.2 42.7,-225.9 106.8,-370.5 161.7,-364.5 459.2,-810.9 550.2,-944.2 13.1,-19.1 41.2,-19.2 54.2,-0.1 127,186.2 657.1,983.2 657.1,1314.8 0,376.8 -306.3,682.2 -684.2,682.2" /></g><g
         transform="scale(1.14875)"
         id="g266"><path
           id="path268"
           style="fill:#ffffff;fill-opacity:1;fill-rule:nonzero;stroke:none"
           d="m 16003.3,15993.5 c 0,-169.3 -137.2,-306.5 -306.5,-306.5 -169.2,0 -306.5,137.2 -306.5,306.5 0,169.3 137.3,306.5 306.5,306.5 169.3,0 306.5,-137.2 306.5,-306.5" /></g><g
         transform="scale(1.17701)"
         id="g270"><path
           id="path272"
           style="fill:#000000;fill-opacity:1;fill-rule:nonzero;stroke:none"
           d="m 12870.1,16170.7 c -2.6,0 -5.2,0.6 -7.8,1.7 -66.5,30.7 -134.9,60.8 -203.2,89.4 -9.4,3.9 -13.9,14.8 -9.9,24.2 3.9,9.5 14.7,14 24.3,10 68.6,-28.7 137.4,-59 204.4,-89.9 9.3,-4.3 13.3,-15.3 9.1,-24.6 -3.2,-6.8 -9.9,-10.8 -16.9,-10.8 z m 396.6,-202.3 c -3.1,0 -6.2,0.7 -9.1,2.3 -63.7,35.8 -129.5,71 -195.6,104.8 -9.2,4.6 -12.8,15.8 -8.2,24.9 4.7,9.1 15.8,12.8 25,8.1 66.6,-33.9 132.9,-69.4 196.9,-105.4 9.1,-5 12.2,-16.3 7.2,-25.3 -3.4,-6 -9.8,-9.4 -16.2,-9.4 z m 378.8,-233.9 c -3.6,0 -7.1,1 -10.4,3.1 -60.7,41.2 -123.4,81.7 -186.3,120.5 -8.7,5.4 -11.4,16.9 -6,25.6 5.4,8.7 16.8,11.4 25.6,6 63.2,-39 126.4,-79.9 187.5,-121.3 8.5,-5.8 10.8,-17.3 5,-25.8 -3.6,-5.3 -9.5,-8.1 -15.4,-8.1 z m 357.5,-265.4 c -4.1,0 -8.1,1.4 -11.6,4.2 -57.3,46.4 -116.3,92.2 -175.3,136 -8.2,6.1 -9.9,17.7 -3.8,26 6.1,8.2 17.7,9.9 25.9,3.8 59.5,-44.1 118.8,-90.2 176.5,-137 8,-6.5 9.2,-18.2 2.8,-26.1 -3.7,-4.6 -9.1,-6.9 -14.5,-6.9 z m 333.3,-295.3 c -4.7,0 -9.2,1.7 -12.9,5.2 -53,51.2 -107.8,101.9 -162.9,150.7 -7.6,6.8 -8.3,18.5 -1.5,26.2 6.8,7.7 18.5,8.4 26.2,1.6 55.4,-49.2 110.6,-100.2 164,-151.8 7.4,-7.1 7.6,-18.9 0.5,-26.2 -3.7,-3.8 -8.5,-5.7 -13.4,-5.7 z m 307.3,-322.2 c -5.2,0 -10.3,2.1 -13.9,6.3 -49,55.7 -99.4,110.8 -149.9,163.7 -7,7.4 -6.7,19.2 0.7,26.2 7.4,7.1 19.2,6.9 26.2,-0.6 50.8,-53.3 101.6,-108.7 150.9,-164.8 6.7,-7.7 6,-19.5 -1.7,-26.2 -3.5,-3.1 -7.9,-4.6 -12.3,-4.6 z m 281.2,-345.4 c -5.6,0 -11.2,2.6 -14.8,7.4 -45.1,59.6 -91.1,118.4 -137,174.8 -6.4,7.9 -5.3,19.6 2.7,26.1 8,6.4 19.7,5.2 26.1,-2.7 46.1,-56.7 92.5,-115.8 137.8,-175.8 6.2,-8.2 4.6,-19.8 -3.6,-26 -3.3,-2.6 -7.3,-3.8 -11.2,-3.8 z m 256.8,-364 c -6,0 -11.9,3 -15.5,8.4 -41.3,62.6 -83.4,124.3 -125.2,183.6 -6,8.4 -3.9,19.9 4.5,25.9 8.3,5.8 20,3.9 25.8,-4.5 42,-59.6 84.4,-121.7 125.9,-184.6 5.6,-8.5 3.3,-20.1 -5.3,-25.7 -3.2,-2.1 -6.6,-3.1 -10.2,-3.1" /></g><g
         transform="scale(1.29426)"
         id="g274"><path
           id="path276"
           style="fill:#ffffff;fill-opacity:1;fill-rule:nonzero;stroke:none"
           d="M 12218.7,5654.18 H 16300 V 10294.2 H 12218.7 V 5654.18" /></g><g
         transform="scale(1.2956)"
         id="g278"><path
           id="path280"
           style="fill:#000000;fill-opacity:1;fill-rule:nonzero;stroke:none"
           d="m 12222.9,5665.25 h 4043.4 v 4601.45 h -4043.4 z m 4060.3,-33.73 h -4077.1 c -9.4,0 -16.9,7.56 -16.9,16.82 v 4635.26 c 0,9.3 7.5,16.8 16.9,16.8 h 4077.1 c 9.3,0 16.8,-7.5 16.8,-16.8 V 5648.34 c 0,-9.26 -7.5,-16.82 -16.8,-16.82" /></g><g
         transform="scale(1.32106)"
         id="g282"><path
           id="path284"
           style="fill:#ffffff;fill-opacity:1;fill-rule:nonzero;stroke:none"
           d="M 15699.5,11017.4 H 10195.8 L 9595.24,9968.43 H 16300 l -600.5,1048.97" /></g><g
         transform="scale(1.32247)"
         id="g286"><path
           id="path288"
           style="fill:#000000;fill-opacity:1;fill-rule:nonzero;stroke:none"
           d="m 9613.55,9974.32 h 6640.75 l -581.1,1014.88 h -5478.6 z m 6669.15,-33.05 H 9585.04 c -5.82,0 -11.34,3.18 -14.29,8.25 -2.94,5.14 -2.94,11.41 0,16.48 l 599.85,1048 c 3,5.1 8.5,8.3 14.4,8.3 h 5497.8 c 5.9,0 11.4,-3.2 14.3,-8.3 L 16297,9966 c 3,-5.07 2.9,-11.34 0,-16.48 -3,-5.07 -8.4,-8.25 -14.3,-8.25" /></g><g
         transform="scale(1.03064)"
         id="g290"><path
           id="path292"
           style="fill:#ffffff;fill-opacity:1;fill-rule:nonzero;stroke:none"
           d="M 16300,7100.41 H 10798.9 V 14684.5 H 16300 V 7100.41" /></g><g
         transform="scale(1.03199)"
         id="g294"><path
           id="path296"
           style="fill:#000000;fill-opacity:1;fill-rule:nonzero;stroke:none"
           d="m 10805.9,7112.39 h 5451.8 v 7531.81 h -5451.8 z m 5472.9,-42.35 h -5494 c -11.7,0 -21.2,9.5 -21.2,21.13 v 7574.23 c 0,11.7 9.5,21.1 21.2,21.1 h 5494 c 11.7,0 21.2,-9.4 21.2,-21.1 V 7091.17 c 0,-11.63 -9.5,-21.13 -21.2,-21.13" /></g><g
         transform="scale(1.06617)"
         id="g298"><path
           id="path300"
           style="fill:#ffffff;fill-opacity:1;fill-rule:nonzero;stroke:none"
           d="m 15739,13868.9 h -5282 l 2641,2431.1 2641,-2431.1" /></g><g
         transform="scale(1.09129)"
         id="g302"><path
           id="path304"
           style="fill:#000000;fill-opacity:1;fill-rule:nonzero;stroke:none"
           d="m 12796.5,15924.7 2507.1,-2307.8 h 407.7 L 12796.5,16300 9881.68,13616.9 h 407.62 l 2507.2,2307.8" /></g><path
         id="path306"
         style="fill:#000000;fill-opacity:1;fill-rule:nonzero;stroke:none"
         d="M 12460.4,14246 H 15469 v 253.2 c 0,736.6 -599.2,1335.7 -1335.8,1335.7 h -337.1 c -736.5,0 -1335.7,-599.1 -1335.7,-1335.7 z m 3030.4,-43.7 h -3052.3 c -12,0 -21.8,9.8 -21.8,21.9 v 275 c 0,760.6 618.8,1379.4 1379.4,1379.4 h 337.1 c 760.6,0 1379.4,-618.8 1379.4,-1379.4 v -275 c 0,-12.1 -9.7,-21.9 -21.8,-21.9" /><path
         id="path308"
         style="fill:#000000;fill-opacity:1;fill-rule:nonzero;stroke:none"
         d="m 13964.7,14397.5 c -12.1,0 -21.9,9.8 -21.9,21.9 v 1153.4 c 0,12.1 9.8,21.9 21.9,21.9 12,0 21.8,-9.8 21.8,-21.9 v -1153.4 c 0,-12.1 -9.8,-21.9 -21.8,-21.9" /><path
         id="path310"
         style="fill:#000000;fill-opacity:1;fill-rule:nonzero;stroke:none"
         d="m 12774.8,14526.7 c -5.6,0 -11.2,2.1 -15.4,6.4 -8.6,8.5 -8.6,22.4 0,30.9 l 902.3,902.3 c 8.5,8.6 22.4,8.6 30.9,0 8.5,-8.5 8.5,-22.3 0,-30.9 l -902.3,-902.3 c -4.3,-4.3 -9.9,-6.4 -15.5,-6.4" /><path
         id="path312"
         style="fill:#000000;fill-opacity:1;fill-rule:nonzero;stroke:none"
         d="m 14281.3,14683.6 c -5.6,0 -11.2,2.2 -15.4,6.4 -8.6,8.6 -8.6,22.4 0,30.9 l 596.3,596.4 c 8.5,8.5 22.4,8.5 30.9,0 8.5,-8.6 8.5,-22.4 0,-30.9 l -596.4,-596.4 c -4.2,-4.2 -9.8,-6.4 -15.4,-6.4" /><g
         transform="scale(1.05188)"
         id="g314"><path
           id="path316"
           style="fill:#ffffff;fill-opacity:1;fill-rule:nonzero;stroke:none"
           d="m 16300,6754.69 h -6048 v 843.54 h 6048 v -843.54" /></g><g
         transform="scale(1.05321)"
         id="g318"><path
           id="path320"
           style="fill:#000000;fill-opacity:1;fill-rule:nonzero;stroke:none"
           d="m 10259.6,6766.8 h 5998.9 v 800.98 h -5998.9 z m 6019.7,-41.49 h -6040.5 c -11.4,0 -20.7,9.31 -20.7,20.8 v 842.47 c 0,11.39 9.3,20.7 20.7,20.7 h 6040.5 c 11.4,0 20.7,-9.31 20.7,-20.7 v -842.47 c 0,-11.49 -9.3,-20.8 -20.7,-20.8" /></g><path
         id="path322"
         style="fill:#000000;fill-opacity:1;fill-rule:nonzero;stroke:none"
         d="m 11476.6,8014.2 h 453.2 v 3611.1 h -453.2 z m 475,-43.7 h -496.8 c -12.1,0 -21.9,9.8 -21.9,21.9 v 3654.7 c 0,12.1 9.8,21.9 21.9,21.9 h 496.8 c 12.1,0 21.9,-9.8 21.9,-21.9 V 7992.4 c 0,-12.1 -9.8,-21.9 -21.9,-21.9" /><g
         transform="scale(1.01205)"
         id="g324"><path
           id="path326"
           style="fill:#000000;fill-opacity:1;fill-rule:nonzero;stroke:none"
           d="m 15809,7918.79 h 447.8 V 11486.9 H 15809 Z m 469.5,-43.18 h -491 c -12,0 -21.7,9.68 -21.7,21.64 v 3611.15 c 0,12 9.7,21.7 21.7,21.7 h 491 c 11.8,0 21.5,-9.7 21.5,-21.7 V 7897.25 c 0,-11.96 -9.7,-21.64 -21.5,-21.64" /></g><path
         id="path328"
         style="fill:#000000;fill-opacity:1;fill-rule:nonzero;stroke:none"
         d="m 12545.5,8014.2 h 1251.7 v 3034.6 h -1251.7 z m 1273.6,-43.7 h -1295.4 c -12.1,0 -21.9,9.8 -21.9,21.9 v 3078.3 c 0,12 9.8,21.8 21.9,21.8 h 1295.4 c 12.1,0 21.8,-9.8 21.8,-21.8 V 7992.4 c 0,-12.1 -9.7,-21.9 -21.8,-21.9" /><path
         id="path330"
         style="fill:#000000;fill-opacity:1;fill-rule:nonzero;stroke:none"
         d="m 14132.1,8014.2 h 1251.7 v 3034.6 h -1251.7 z m 1273.6,-43.7 h -1295.5 c -12,0 -21.8,9.8 -21.8,21.9 v 3078.3 c 0,12 9.8,21.8 21.8,21.8 h 1295.5 c 12,0 21.8,-9.8 21.8,-21.8 V 7992.4 c 0,-12.1 -9.8,-21.9 -21.8,-21.9" /><g
         transform="scale(1.01205)"
         id="g332"><path
           id="path334"
           style="fill:#000000;fill-opacity:1;fill-rule:nonzero;stroke:none"
           d="m 16278.5,7588.96 h -4960.1 c -11.9,0 -21.6,9.68 -21.6,21.64 0,11.95 9.7,21.54 21.6,21.54 h 4960.1 c 11.8,0 21.5,-9.59 21.5,-21.54 0,-11.96 -9.7,-21.64 -21.5,-21.64" /></g><g
         transform="scale(1.01205)"
         id="g336"><path
           id="path338"
           style="fill:#000000;fill-opacity:1;fill-rule:nonzero;stroke:none"
           d="m 16278.5,7288.38 h -4960.1 c -11.9,0 -21.6,9.59 -21.6,21.54 0,11.96 9.7,21.64 21.6,21.64 h 4960.1 c 11.8,0 21.5,-9.68 21.5,-21.64 0,-11.95 -9.7,-21.54 -21.5,-21.54" /></g><g
         transform="scale(1.09002)"
         id="g340"><path
           id="path342"
           style="fill:#ffffff;fill-opacity:1;fill-rule:nonzero;stroke:none"
           d="M 15675.1,11255.8 H 9947.57 l -624.94,-732.7 H 16300 l -624.9,732.7" /></g><g
         transform="scale(1.09146)"
         id="g344"><path
           id="path346"
           style="fill:#000000;fill-opacity:1;fill-rule:nonzero;stroke:none"
           d="m 9353.71,10529.3 h 6881.49 l -590,691.6 H 9943.74 Z m 6924.89,-40 H 9310.37 c -7.78,0 -14.93,4.4 -18.14,11.6 -3.3,7 -2.2,15.4 2.93,21.3 l 624.12,731.8 c 3.76,4.4 9.34,7 15.21,7 h 5719.91 c 5.9,0 11.5,-2.6 15.3,-7 l 624.1,-731.8 c 5.1,-5.9 6.2,-14.3 3,-21.3 -3.3,-7.2 -10.5,-11.6 -18.2,-11.6" /></g><path
         id="path348"
         style="fill:#000000;fill-opacity:1;fill-rule:nonzero;stroke:none"
         d="m 12459.4,12739.7 h 3007.1 v 1211.7 h -3007.1 z m 3029,-43.7 h -3050.9 c -12.1,0 -21.8,9.8 -21.8,21.9 v 1255.4 c 0,12 9.7,21.8 21.8,21.8 h 3050.9 c 12.1,0 21.8,-9.8 21.8,-21.8 v -1255.4 c 0,-12.1 -9.7,-21.9 -21.8,-21.9" /><path
         id="path350"
         style="fill:#000000;fill-opacity:1;fill-rule:nonzero;stroke:none"
         d="m 13041.6,13028.4 c -5.6,0 -11.2,2.1 -15.4,6.4 -8.6,8.5 -8.6,22.4 0,30.9 l 700.7,700.7 c 8.5,8.6 22.4,8.6 30.9,0 8.5,-8.5 8.5,-22.3 0,-30.8 l -700.7,-700.8 c -4.3,-4.3 -9.9,-6.4 -15.5,-6.4" /><path
         id="path352"
         style="fill:#000000;fill-opacity:1;fill-rule:nonzero;stroke:none"
         d="m 14291.7,12921.1 c -5.6,0 -11.2,2.1 -15.5,6.4 -8.5,8.5 -8.5,22.3 0,30.8 l 287.8,287.9 c 8.6,8.5 22.4,8.5 30.9,0 8.6,-8.6 8.6,-22.4 0,-30.9 l -287.8,-287.8 c -4.3,-4.3 -9.9,-6.4 -15.4,-6.4" /><g
         transform="scale(1.25156)"
         id="g354"><path
           id="path356"
           style="fill:#000000;fill-opacity:1;fill-rule:nonzero;stroke:none"
           d="m 14513.3,8646.18 h 1751.8 v 1473.62 h -1751.8 z m 1769.3,-34.92 h -1786.7 c -9.6,0 -17.5,7.83 -17.5,17.5 v 1508.54 c 0,9.6 7.9,17.4 17.5,17.4 h 1786.7 c 9.6,0 17.4,-7.8 17.4,-17.4 V 8628.76 c 0,-9.67 -7.8,-17.5 -17.4,-17.5" /></g><g
         transform="scale(1.18297)"
         id="g358"><path
           id="path360"
           style="fill:#000000;fill-opacity:1;fill-rule:nonzero;stroke:none"
           d="m 16281.5,9303.03 c -10.2,0 -18.4,8.2 -18.4,18.43 v 1245.04 c 0,10.3 8.2,18.6 18.4,18.6 10.2,0 18.5,-8.3 18.5,-18.6 V 9321.46 c 0,-10.23 -8.3,-18.43 -18.5,-18.43" /></g><g
         transform="scale(1.17626)"
         id="g362"><path
           id="path364"
           style="fill:#000000;fill-opacity:1;fill-rule:nonzero;stroke:none"
           d="m 15524.7,9342.85 c -4.8,0 -9.6,1.79 -13.1,5.44 -7.3,7.31 -7.3,19.04 0,26.27 l 754.9,755.04 c 7.2,7.2 19,7.2 26.3,0 7.2,-7.3 7.2,-19.1 0,-26.3 l -755,-755.01 c -3.6,-3.65 -8.4,-5.44 -13.1,-5.44" /></g><g
         transform="scale(1.16763)"
         id="g366"><path
           id="path368"
           style="fill:#000000;fill-opacity:1;fill-rule:nonzero;stroke:none"
           d="m 15759.8,10143.9 c -4.8,0 -9.6,1.9 -13.2,5.5 -7.4,7.4 -7.4,19.2 0,26.5 l 519.7,519.8 c 7.3,7.2 19.1,7.2 26.4,0 7.3,-7.4 7.3,-19.2 0,-26.5 l -519.7,-519.8 c -3.6,-3.6 -8.4,-5.5 -13.2,-5.5" /></g><g
         transform="scale(1.23184)"
         id="g370"><path
           id="path372"
           style="fill:#000000;fill-opacity:1;fill-rule:nonzero;stroke:none"
           d="m 15804.6,9172.86 c -4.5,0 -9,1.71 -12.5,5.19 -6.9,6.9 -6.9,18.19 0,25.09 l 475.9,475.96 c 6.9,6.9 18.1,6.9 25.1,0 6.9,-6.99 6.9,-18.19 0,-25.09 l -476,-475.96 c -3.4,-3.48 -8,-5.19 -12.5,-5.19" /></g><g
         transform="scale(1.25156)"
         id="g374"><path
           id="path376"
           style="fill:#000000;fill-opacity:1;fill-rule:nonzero;stroke:none"
           d="m 14513.3,6420.95 h 1751.8 v 1473.53 h -1751.8 z m 1769.3,-34.91 h -1786.7 c -9.6,0 -17.5,7.75 -17.5,17.42 v 1508.52 c 0,9.66 7.9,17.42 17.5,17.42 h 1786.7 c 9.6,0 17.4,-7.76 17.4,-17.42 V 6403.46 c 0,-9.67 -7.8,-17.42 -17.4,-17.42" /></g><g
         transform="scale(1.18297)"
         id="g378"><path
           id="path380"
           style="fill:#000000;fill-opacity:1;fill-rule:nonzero;stroke:none"
           d="m 16281.5,6948.7 c -10.2,0 -18.4,8.29 -18.4,18.43 v 1245.09 c 0,10.22 8.2,18.51 18.4,18.51 10.2,0 18.5,-8.29 18.5,-18.51 V 6967.13 c 0,-10.14 -8.3,-18.43 -18.5,-18.43" /></g><g
         transform="scale(1.17626)"
         id="g382"><path
           id="path384"
           style="fill:#000000;fill-opacity:1;fill-rule:nonzero;stroke:none"
           d="m 15524.7,6975.09 c -4.8,0 -9.6,1.87 -13.1,5.44 -7.3,7.31 -7.3,19.04 0,26.27 l 754.9,755.02 c 7.2,7.23 19,7.23 26.3,0 7.2,-7.31 7.2,-19.04 0,-26.27 l -755,-755.02 c -3.6,-3.57 -8.4,-5.44 -13.1,-5.44" /></g><g
         transform="scale(1.16763)"
         id="g386"><path
           id="path388"
           style="fill:#000000;fill-opacity:1;fill-rule:nonzero;stroke:none"
           d="m 15759.8,7758.69 c -4.8,0 -9.6,1.89 -13.2,5.48 -7.4,7.37 -7.4,19.19 0,26.47 l 519.7,519.77 c 7.3,7.28 19.1,7.28 26.4,0 7.3,-7.28 7.3,-19.18 0,-26.46 L 15773,7764.17 c -3.6,-3.59 -8.4,-5.48 -13.2,-5.48" /></g><g
         transform="scale(1.23184)"
         id="g390"><path
           id="path392"
           style="fill:#000000;fill-opacity:1;fill-rule:nonzero;stroke:none"
           d="m 15804.6,6911.93 c -4.5,0 -9,1.71 -12.5,5.2 -6.9,6.9 -6.9,18.18 0,25.09 l 475.9,475.95 c 6.9,6.9 18.1,6.9 25.1,0 6.9,-6.98 6.9,-18.18 0,-25.08 l -476,-475.96 c -3.4,-3.49 -8,-5.2 -12.5,-5.2" /></g><g
         transform="scale(1.04331)"
         id="g394"><path
           id="path396"
           style="fill:#000000;fill-opacity:1;fill-rule:nonzero;stroke:none"
           d="m 16064.1,5718.42 c -0.2,0 -0.4,0 -0.4,0 h -318.2 -0.3 c -130.2,0 -235.9,-312.85 -235.9,-694.81 0,-382.05 105.7,-694.99 235.9,-694.99 h 0.3 318.2 c 0,0 0.2,0 0.4,0 130.3,0 235.9,312.84 235.9,694.9 0,381.95 -105.6,694.9 -235.9,694.9" /></g><path
         id="path398"
         style="fill:#000000;fill-opacity:1;fill-rule:nonzero;stroke:none"
         d="m 15748.1,5912.7 c -0.1,0 -0.4,0 -0.4,0 h -331.9 -0.4 c -135.9,0 -246.1,-326.3 -246.1,-724.9 0,-398.5 110.2,-725.1 246.1,-725.1 h 0.3 332 c 0,0 0.3,0 0.4,0 135.9,0 246.1,326.5 246.1,725 0,398.6 -110.2,725 -246.1,725" /><path
         id="path400"
         style="fill:#000000;fill-opacity:1;fill-rule:nonzero;stroke:none"
         d="m 12226.9,5775.9 c -0.1,0 -0.4,0 -0.4,0 H 11942 c 0,0 -0.2,0 -0.3,0 -116.5,0 -210.9,-277.9 -210.9,-619.5 0,-341.6 94.4,-619.6 210.9,-619.6 0.1,0 0.3,0 0.3,0 h 284.5 c 0,0 0.3,0 0.4,0 116.5,0 210.9,277.9 210.9,619.5 0,341.6 -94.4,619.6 -210.9,619.6" /><g
         transform="scale(1.02319)"
         id="g402"><path
           id="path404"
           style="fill:#ffffff;fill-opacity:1;fill-rule:nonzero;stroke:none"
           d="m 16300,4762.36 -8,4322.27 -7975.8,-794.28 V 5130.52 L 16300,4762.36" /></g><g
         transform="scale(1.02453)"
         id="g406"><path
           id="path408"
           style="fill:#000000;fill-opacity:1;fill-rule:nonzero;stroke:none"
           d="m 8326.61,5144.2 7930.69,-365.74 -8,4270.73 -7922.69,-789.04 z m 7951.99,-409.36 c -0.3,0 -0.6,0 -1,0 l -7973.3,367.67 c -11.39,0.49 -20.34,9.86 -20.34,21.28 v 3155.68 c 0,10.94 8.31,20.11 19.22,21.18 l 7965.42,793.24 c 5.7,0.49 11.9,-1.36 16.4,-5.37 4.4,-4 7,-9.76 7,-15.81 l 8,-4316.5 c 0,-5.86 -2.3,-11.42 -6.6,-15.42 -3.9,-3.9 -9.2,-5.95 -14.8,-5.95" /></g><g
         transform="scale(1.08239)"
         id="g410"><path
           id="path412"
           style="fill:#ffffff;fill-opacity:1;fill-rule:nonzero;stroke:none"
           d="M 16300,5549.03 H 13121.9 V 9780.98 L 16300,9584.1 V 5549.03" /></g><g
         transform="scale(1.08372)"
         id="g414"><path
           id="path416"
           style="fill:#000000;fill-opacity:1;fill-rule:nonzero;stroke:none"
           d="m 16279.9,5521.98 c -11.2,0 -20.2,9.04 -20.2,20.21 v 4011.07 l -3155.2,195.53 c -11.1,0.65 -19.5,10.25 -18.9,21.32 0.8,11.07 10.6,19.47 21.4,18.92 l 3174.1,-196.64 c 10.6,-0.65 18.9,-9.51 18.9,-20.12 V 5542.19 c 0,-11.17 -9,-20.21 -20.1,-20.21" /></g><path
         id="path418"
         style="fill:#000000;fill-opacity:1;fill-rule:nonzero;stroke:none"
         d="m 14203,6006.2 v 4580.6 l -6049.8,-405.6 v -4066 l 6049.8,-109" /><path
         id="path420"
         style="fill:#000000;fill-opacity:1;fill-rule:nonzero;stroke:none"
         d="m 8184.52,6136.7 5996.68,-99.2 v 4525.9 L 8184.52,10160.8 Z M 14203,5993.5 c -0.1,0 -0.2,0 -0.4,0 l -6040.29,99.8 c -11.93,0.2 -21.48,10 -21.48,21.9 v 4066 c 0,11.5 8.91,21.1 20.37,21.8 l 6040.3,405.6 c 6.1,0 12,-1.8 16.4,-5.9 4.4,-4.1 7,-9.9 7,-15.9 V 6015.3 c 0,-5.8 -2.4,-11.4 -6.6,-15.5 -4.1,-4.1 -9.6,-6.3 -15.3,-6.3" /><path
         id="path422"
         style="fill:#000000;fill-opacity:1;fill-rule:nonzero;stroke:none"
         d="m 13692.5,5778.5 c -0.2,0 -0.5,0 -0.5,0 h -328.8 -0.4 c -134.6,0 -243.8,-323.4 -243.8,-718.2 0,-394.9 109.2,-718.4 243.8,-718.4 h 0.3 328.9 c 0,0 0.3,0 0.5,0 134.6,0 243.8,323.5 243.8,718.3 0,394.8 -109.2,718.3 -243.8,718.3" /><path
         id="path424"
         style="fill:#ffffff;fill-opacity:1;fill-rule:nonzero;stroke:none"
         d="m 13606.7,5068.5 c 0,-394.8 -109.2,-714.9 -243.9,-714.9 -134.6,0 -243.8,320.1 -243.8,714.9 0,394.9 109.2,715 243.8,715 134.7,0 243.9,-320.1 243.9,-715" /><path
         id="path426"
         style="fill:#000000;fill-opacity:1;fill-rule:nonzero;stroke:none"
         d="m 13362.8,5761.6 c -107.2,0 -222,-278.5 -222,-693.1 0,-414.6 114.8,-693.1 222,-693.1 107.2,0 222.1,278.5 222.1,693.1 0,414.6 -114.9,693.1 -222.1,693.1 z m 0,-1429.9 c -149,0 -265.7,323.7 -265.7,736.8 0,413.2 116.7,736.8 265.7,736.8 149,0 265.7,-323.6 265.7,-736.8 0,-413.1 -116.7,-736.8 -265.7,-736.8" /><path
         id="path428"
         style="fill:#000000;fill-opacity:1;fill-rule:nonzero;stroke:none"
         d="m 13363.2,5756.6 c -105.4,0 -222.4,-285.9 -222.4,-696.3 0,-410.5 117,-696.5 222,-696.5 h 329.2 c 105.5,0 222.5,286 222.5,696.4 0,410.4 -117,696.4 -222.1,696.4 z m 329.2,-1436.5 h -329.3 c -166.6,0 -266,376.3 -266,740.2 0,363.8 99.4,740 265.7,740 h 329.6 c 166.4,0 265.7,-376.3 265.7,-740.1 0,-363.8 -99.3,-740.1 -265.7,-740.1" /><path
         id="path430"
         style="fill:#000000;fill-opacity:1;fill-rule:nonzero;stroke:none"
         d="m 14752.4,5772 c -0.1,0 -0.4,0 -0.4,0 h -331.9 -0.4 c -135.9,0 -246.1,-326.4 -246.1,-724.9 0,-398.6 110.2,-725.1 246.1,-725.1 h 0.3 332 c 0,0 0.3,0 0.4,0 135.9,0 246.1,326.4 246.1,725 0,398.5 -110.2,725 -246.1,725" /><path
         id="path432"
         style="fill:#ffffff;fill-opacity:1;fill-rule:nonzero;stroke:none"
         d="m 14665.8,5055.4 c 0,-398.5 -110.1,-721.6 -246.1,-721.6 -135.9,0 -246.1,323.1 -246.1,721.6 0,398.5 110.2,721.6 246.1,721.6 136,0 246.1,-323.1 246.1,-721.6" /><path
         id="path434"
         style="fill:#000000;fill-opacity:1;fill-rule:nonzero;stroke:none"
         d="m 14419.7,5755.2 c -108.3,0 -224.3,-281.2 -224.3,-699.8 0,-418.6 116,-699.8 224.3,-699.8 108.3,0 224.3,281.2 224.3,699.8 0,418.6 -116,699.8 -224.3,699.8 z m 0,-1443.3 c -150.3,0 -268,326.6 -268,743.5 0,416.9 117.7,743.5 268,743.5 150.3,0 268,-326.6 268,-743.5 0,-416.9 -117.7,-743.5 -268,-743.5" /><path
         id="path436"
         style="fill:#000000;fill-opacity:1;fill-rule:nonzero;stroke:none"
         d="m 14420.1,5750.1 c -106.4,0 -224.7,-288.7 -224.7,-703 0,-414.5 118.3,-703.3 224.3,-703.3 h 332.3 c 106.5,0 224.7,288.8 224.7,703.2 0,414.4 -118.2,703.1 -224.3,703.1 z m 332.3,-1450 H 14420 c -168,0 -268.3,379.8 -268.3,747 0,367 100.3,746.7 268,746.7 h 332.7 c 167.8,0 268,-379.7 268,-746.8 0,-367.1 -100.2,-746.9 -268,-746.9" /><path
         id="path438"
         style="fill:#000000;fill-opacity:1;fill-rule:nonzero;stroke:none"
         d="m 9447.46,5751.9 c -0.12,0 -0.35,0 -0.35,0 h -273.98 c 0,0 -0.19,0 -0.28,0 -112.21,0 -203.17,-280.2 -203.17,-630.1 0,-349.9 90.96,-630.2 203.17,-630.2 0.07,0 0.23,0 0.23,0 h 274.03 c 0,0 0.23,0 0.35,0 112.2,0 203.17,280.2 203.17,630.1 0,350 -90.97,630.2 -203.17,630.2" /><path
         id="path440"
         style="fill:#ffffff;fill-opacity:1;fill-rule:nonzero;stroke:none"
         d="m 9376.01,5132.4 c 0,-349.9 -90.96,-633.6 -203.16,-633.6 -112.21,0 -203.17,283.7 -203.17,633.6 0,350 90.96,633.7 203.17,633.7 112.2,0 203.16,-283.7 203.16,-633.7" /><path
         id="path442"
         style="fill:#000000;fill-opacity:1;fill-rule:nonzero;stroke:none"
         d="m 9254.87,4469.7 h -81.8 c -146.38,0 -225.23,336 -225.23,652.1 0,316 78.85,651.9 225.02,651.9 h 82.01 c 12.07,0 21.84,-9.7 21.84,-21.8 0,-12.1 -9.77,-21.9 -21.84,-21.9 h -81.74 c -86.04,0 -181.6,-249.7 -181.6,-608.2 0,-358.5 95.56,-608.4 181.33,-608.4 h 82.01 c 12.07,0 21.84,-9.8 21.84,-21.8 0,-12.1 -9.77,-21.9 -21.84,-21.9" /><path
         id="path444"
         style="fill:#000000;fill-opacity:1;fill-rule:nonzero;stroke:none"
         d="m 9967.61,5744.1 c -0.11,0 -0.34,0 -0.34,0 H 9693.28 9693 c -112.21,0 -203.17,-280.2 -203.17,-630.1 0,-350 90.96,-630.3 203.17,-630.3 h 0.22 274.05 c 0,0 0.23,0 0.34,0 112.19,0 203.19,280.3 203.19,630.2 0,349.9 -91,630.2 -203.19,630.2" /><path
         id="path446"
         style="fill:#ffffff;fill-opacity:1;fill-rule:nonzero;stroke:none"
         d="m 9896.16,5124.6 c 0,-349.9 -90.95,-633.6 -203.16,-633.6 -112.2,0 -203.17,283.7 -203.17,633.6 0,350 90.97,633.6 203.17,633.6 112.21,0 203.16,-283.6 203.16,-633.6" /><path
         id="path448"
         style="fill:#000000;fill-opacity:1;fill-rule:nonzero;stroke:none"
         d="m 9795.08,4461.9 h -101.85 c -146.4,0 -225.25,336 -225.25,652.1 0,316 78.85,651.9 225.02,651.9 h 102.08 c 12.08,0 21.85,-9.8 21.85,-21.8 0,-12.1 -9.77,-21.9 -21.85,-21.9 h -101.8 c -86.05,0 -181.61,-249.8 -181.61,-608.2 0,-358.6 95.56,-608.4 181.33,-608.4 h 102.08 c 12.08,0 21.85,-9.8 21.85,-21.9 0,-12 -9.77,-21.8 -21.85,-21.8" /><path
         id="path450"
         style="fill:#000000;fill-opacity:1;fill-rule:nonzero;stroke:none"
         d="m 10510.4,5773.9 c -0.1,0 -0.4,0 -0.4,0 h -284.5 c 0,0 -0.2,0 -0.3,0 -116.5,0 -210.9,-299.6 -210.9,-667.7 0,-368.2 94.4,-667.9 210.9,-667.9 0.1,0 0.3,0 0.3,0 h 284.5 c 0,0 0.3,0 0.4,0 116.5,0 210.9,299.6 210.9,667.8 0,368.1 -94.4,667.8 -210.9,667.8" /><path
         id="path452"
         style="fill:#ffffff;fill-opacity:1;fill-rule:nonzero;stroke:none"
         d="m 10436.2,5116.9 c 0,-368.2 -94.5,-666.7 -211,-666.7 -116.5,0 -210.9,298.5 -210.9,666.7 0,368.1 94.4,666.6 210.9,666.6 116.5,0 211,-298.5 211,-666.6" /><path
         id="path454"
         style="fill:#000000;fill-opacity:1;fill-rule:nonzero;stroke:none"
         d="m 10225.5,5752 c -89.7,0 -189.4,-265.2 -189.4,-645.8 0,-380.7 99.7,-646.1 189.1,-646.1 h 284.8 c 89.8,0 189.5,265.3 189.5,646 0,380.6 -99.7,645.9 -189.1,645.9 z m 284.9,-1335.6 h -285 c -151.4,0 -232.99,355.4 -232.99,689.8 0,334.2 81.59,689.5 232.79,689.5 h 285.2 c 151.2,0 232.8,-355.3 232.8,-689.6 0,-334.4 -81.6,-689.7 -232.8,-689.7" /><g
         transform="scale(1.10323)"
         id="g456"><path
           id="path458"
           style="fill:#ffffff;fill-opacity:1;fill-rule:nonzero;stroke:none"
           d="m 15004.1,5812.91 185,-165.96 66.7,-1239.36 H 16300 v 1401.97 l -1295.9,3.35" /></g><g
         transform="scale(1.10458)"
         id="g460"><path
           id="path462"
           style="fill:#000000;fill-opacity:1;fill-rule:nonzero;stroke:none"
           d="m 15256,4422.06 h 1004.4 v 1360.7 l -1222.8,3.17 146.2,-131.18 c 3.9,-3.44 6.3,-8.42 6.5,-13.68 z m 1024.2,-39.57 h -1043 c -10.5,0 -19.2,8.24 -19.7,18.65 l -66.2,1229.62 -178.7,160.42 c -6.1,5.43 -8.1,14.12 -5.2,21.73 3,7.69 10.3,12.76 18.4,12.76 h 0.1 l 1294.4,-3.44 c 10.8,0 19.7,-8.87 19.7,-19.74 V 4402.23 c 0,-10.96 -8.9,-19.74 -19.8,-19.74" /></g><g
         transform="scale(1.11785)"
         id="g464"><path
           id="path466"
           style="fill:#000000;fill-opacity:1;fill-rule:nonzero;stroke:none"
           d="m 16015.4,5404.14 c -0.1,0 -0.4,0 -0.4,0 h -383.8 c 0,0 -0.3,0 -0.4,0 -157.2,0 -284.6,-374.56 -284.6,-835.36 0,-460.7 127.4,-835.53 284.6,-835.53 0.1,0 0.3,0 0.3,0 h 383.9 c 0,0 0.3,0 0.4,0 157.2,0 284.6,374.65 284.6,835.45 0,460.79 -127.4,835.44 -284.6,835.44" /></g><g
         transform="scale(1.09147)"
         id="g468"><path
           id="path470"
           style="fill:#ffffff;fill-opacity:1;fill-rule:nonzero;stroke:none"
           d="m 16300,4691.58 c 0,-471.93 -130.5,-854.45 -291.4,-854.45 -161,0 -291.5,382.52 -291.5,854.45 0,471.93 130.5,854.45 291.5,854.45 160.9,0 291.4,-382.52 291.4,-854.45" /></g><g
         transform="scale(1.09281)"
         id="g472"><path
           id="path474"
           style="fill:#000000;fill-opacity:1;fill-rule:nonzero;stroke:none"
           d="m 15988.9,5519.26 c -130.9,0 -271.1,-334.92 -271.1,-833.45 0,-498.53 140.2,-833.45 271.1,-833.45 130.9,0 271.1,334.92 271.1,833.45 0,498.53 -140.2,833.45 -271.1,833.45 z m 0,-1706.88 c -174.4,0 -311.1,383.68 -311.1,873.43 0,489.75 136.7,873.44 311.1,873.44 174.4,0 311.1,-383.69 311.1,-873.44 0,-489.75 -136.7,-873.43 -311.1,-873.43" /></g><g
         transform="scale(1.21516)"
         id="g476"><path
           id="path478"
           style="fill:#000000;fill-opacity:1;fill-rule:nonzero;stroke:none"
           d="m 16235.7,6347.73 h -64.2 c -27.7,0 -50.2,22.55 -50.2,50.28 v 429.08 c 0,33.74 27.4,61.14 61.3,61.14 h 37.4 c 44.2,0 80,-35.8 80,-79.99 v -396.16 c 0,-35.55 -28.8,-64.35 -64.3,-64.35" /></g><g
         transform="scale(1.28531)"
         id="g480"><path
           id="path482"
           style="fill:#000000;fill-opacity:1;fill-rule:nonzero;stroke:none"
           d="m 16052.5,4806.09 c -0.1,0 -0.4,0 -0.4,0 h -333.7 c 0,0 -0.3,0 -0.4,0 -136.7,0 -247.5,-325.84 -247.5,-726.52 0,-400.76 110.8,-726.75 247.5,-726.75 0.1,0 0.3,0 0.3,0 h 333.8 c 0,0 0.3,0 0.4,0 136.7,0 247.5,325.91 247.5,726.6 0,400.76 -110.8,726.67 -247.5,726.67" /></g><g
         transform="scale(1.32402)"
         id="g484"><path
           id="path486"
           style="fill:#ffffff;fill-opacity:1;fill-rule:nonzero;stroke:none"
           d="m 10931.6,4537.4 1658.6,-24.92 6.3,-832.17 h 128.7 c -2.3,108.31 -4.1,211.86 -4.1,285.57 0,443.73 207.8,803.46 464.1,803.46 167.4,0 314.1,-153.47 395.7,-383.45 323.4,-15.93 818.8,-8 1298,7.33 724.5,23.11 1412,63.14 1412,63.14 9.1,386.55 -376.5,546.06 -376.5,546.06 0,0 -37.4,315.18 -92.2,370.01 -54.7,54.76 -928.1,364.65 -928.1,364.65 l -400.4,1014.26 c -41.7,100 -99.9,192.52 -173.7,272.35 -180.6,195.32 -528,435.34 -1156.8,465.03 -96.5,4.53 -1296.8,100.75 -1896.5,127.94 -169.9,7.71 -302.7,-9.14 -335.1,-11.85 V 4537.4" /></g><g
         transform="scale(1.3242)"
         id="g488"><path
           id="path490"
           style="fill:#000000;fill-opacity:1;fill-rule:nonzero;stroke:none"
           d="m 16129,4828.21 -14,-11.25 c -42,-33.75 -68.8,-83.9 -73.6,-137.59 l -5.9,-67.74 c -1.5,-15.56 4,-30.97 14.9,-42.14 11,-11.18 25.8,-17.07 41.8,-16.09 l 171.6,10.58 c -17.6,97.41 -63,186.15 -134.8,264.23 z m -40.1,-307.96 c -23.4,0 -45.7,9.37 -62.1,26.21 -17.6,18.12 -26.5,42.89 -24.3,68.11 l 6.1,67.74 c 5.5,62.53 36.8,120.98 85.7,160.33 l 25.9,20.84 c 6.6,5.36 16.2,4.83 22.2,-1.36 87.3,-90.4 140.1,-195.14 156.9,-311.06 0.7,-4.6 -0.6,-9.21 -3.5,-12.84 -2.9,-3.54 -7.1,-5.74 -11.7,-6.04 l -189.9,-11.78 c -1.7,-0.07 -3.5,-0.15 -5.3,-0.15" /></g><g
         transform="scale(1.2199)"
         id="g492"><path
           id="path494"
           style="fill:#ffffff;fill-opacity:1;fill-rule:nonzero;stroke:none"
           d="m 15717.5,5778.66 -1577,448.07 -359.5,1145.17 c -45,143.46 -119.7,276.34 -221.7,386.76 -234.5,253.79 -728.4,576.85 -1694.7,495.2 v -3329.2 l 1724.8,-19.18 14.2,-919.42 h 207.5 c -2.5,117.55 -4.3,238.3 -4.3,318.3 0,481.6 225.6,872.04 503.8,872.04 181.6,0 340.8,-166.57 429.4,-416.18 351.1,-17.3 888.6,-8.69 1408.8,7.95 50.6,1.64 151.2,5.08 151.2,5.08 l -341.7,793.92 c -44.3,103.12 -132.8,180.83 -240.8,211.49" /></g><g
         transform="scale(1.18422)"
         id="g496"><path
           id="path498"
           style="fill:#000000;fill-opacity:1;fill-rule:nonzero;stroke:none"
           d="m 16278.9,5897.13 c -3.1,0 -6.3,0.75 -9.3,2.45 -26.3,15.28 -54.4,27.19 -83.6,35.46 l -1624.5,461.57 c -6,1.69 -10.7,6.25 -12.5,12.16 l -370.3,1179.68 c -46.3,147.35 -123.8,282.72 -224.4,391.48 -134.7,145.75 -305.6,263.46 -507.7,349.68 -9.4,4.06 -13.8,14.86 -9.7,24.24 3.9,9.37 14.8,13.68 24.1,9.71 207.1,-88.33 382.1,-209 520.4,-358.63 104.2,-112.74 184.6,-252.91 232.5,-405.42 l 367.2,-1170.13 1615,-458.87 c 32.2,-9.12 63.1,-22.21 92.1,-39.01 8.8,-5.07 11.8,-16.39 6.7,-25.17 -3.5,-5.91 -9.7,-9.2 -16,-9.2" /></g><g
         transform="scale(1.22133)"
         id="g500"><path
           id="path502"
           style="fill:#000000;fill-opacity:1;fill-rule:nonzero;stroke:none"
           d="m 14546.2,5632.79 h 0.1 z m -963.3,-1625.77 193.8,-7.04 c -2.5,117.09 -3.9,227.87 -3.9,299.35 0,490.12 233.7,888.86 521,888.86 181.6,0 346,-155.32 441.7,-416.26 302.8,-14.25 771.5,-11.38 1393.9,8.51 38.2,1.23 76.4,2.54 114.3,3.85 -544.3,644.71 -1114.4,924.24 -1694.7,830.81 -416.2,-66.97 -843,-511.73 -972.8,-728.06 z m 212,-43.48 c -0.1,0 -0.4,0 -0.5,0 l -229.9,8.36 c -9.6,0.32 -17.2,8.18 -17.3,17.76 l -6.9,902.05 c 0,3.28 0.9,6.47 2.5,9.25 133.8,226.72 564.7,679.35 1000.6,749.43 593.6,95.47 1199.2,-205.76 1751.3,-871.34 4.3,-5.24 5.3,-12.53 2.5,-18.75 -2.8,-6.22 -8.9,-10.32 -15.7,-10.48 -50,-1.8 -100.4,-3.52 -150.9,-5.08 -631.6,-20.22 -1105.5,-22.93 -1408.7,-7.94 -7.3,0.33 -13.6,4.99 -16,11.87 -89.7,252.84 -243.8,403.74 -412.1,403.74 -267.5,0 -485.3,-382.69 -485.3,-853.08 0,-75.08 1.7,-193.81 4.4,-317.53 0.1,-4.91 -1.8,-9.66 -5.3,-13.1 -3.4,-3.35 -7.9,-5.16 -12.7,-5.16" /></g><g
         transform="scale(1.04448)"
         id="g504"><path
           id="path506"
           style="fill:#000000;fill-opacity:1;fill-rule:nonzero;stroke:none"
           d="m 15446.5,7257.5 h 740.1 c 20.8,0 40,9.38 52.6,25.75 12.7,16.28 17,37.15 11.9,57.26 -43.5,168.69 -149.4,579.23 -194.4,744.96 v 0 c -8.9,33.03 -39,56.01 -73.2,56.01 h -537 z m 740.1,-41.84 h -761 c -11.6,0 -21,9.29 -21,20.87 v 925.92 c 0,11.49 9.4,20.87 21,20.87 h 557.9 c 52.9,0 99.7,-35.71 113.6,-86.84 45.1,-166.02 151,-576.74 194.5,-745.63 8.4,-32.65 1.3,-66.64 -19.3,-93.25 -20.6,-26.72 -51.9,-41.94 -85.7,-41.94" /></g><g
         transform="scale(1.29314)"
         id="g508"><path
           id="path510"
           style="fill:#ffffff;fill-opacity:1;fill-rule:nonzero;stroke:none"
           d="m 16292.8,4994.19 c 7.2,89.86 1.6,180.34 -17,268.5 -20.4,96.66 -52.6,203.69 -89.2,238.02 -25.4,23.75 -41.3,32.25 -104.3,59.16 h -872.1 c -66.1,0 -128.4,-31.78 -167.1,-85.52 -52.5,-72.85 -68.3,-165.8 -42.8,-251.87 l 95.1,-321.24 c 16.6,-56.22 68.3,-94.8 127,-94.8 h 918.8 c 77.2,0 141.4,59.31 147.5,136.25 l 4.1,51.5" /></g><g
         transform="scale(1.29449)"
         id="g512"><path
           id="path514"
           style="fill:#000000;fill-opacity:1;fill-rule:nonzero;stroke:none"
           d="m 16275.8,4988.99 h 0.3 z m -1081.4,548.25 c -60.6,0 -117.9,-29.36 -153.3,-78.49 -49,-67.98 -64.1,-156.51 -40.3,-236.93 l 95,-320.89 c 14.5,-48.67 60,-82.66 110.7,-82.66 h 917.9 c 67.8,0 125.2,52.99 130.6,120.58 l 4,51.45 c 7.1,88.84 1.4,177.45 -16.7,263.43 -24.7,117.19 -56.2,202.7 -84.1,228.89 -22.7,21.24 -35.6,28.66 -96.1,54.62 z m 930,-752.73 h -917.9 c -65.6,0 -124.4,43.95 -143,106.84 l -95.1,320.89 c -26.7,90.31 -9.8,189.88 45.3,266.21 41.8,57.94 109.3,92.55 180.7,92.55 h 871.1 c 2.4,0 4.6,-0.47 6.7,-1.4 62.4,-26.65 81.3,-36.3 109.1,-62.34 45.5,-42.72 78.5,-172.81 94.1,-246.5 18.7,-89.15 24.6,-181 17.3,-273.08 l -4.1,-51.45 c -6.8,-85.06 -78.8,-151.72 -164.2,-151.72" /></g><g
         transform="scale(1.00414)"
         id="g516"><path
           id="path518"
           style="fill:#000000;fill-opacity:1;fill-rule:nonzero;stroke:none"
           d="m 16192.9,7898.39 h -158.4 c -46.2,0 -83.6,37.45 -83.6,83.56 v 468.75 c 0,56.17 45.6,101.79 101.8,101.79 h 114.2 c 73.5,0 133.1,-59.56 133.1,-133.15 v -413.89 c 0,-59.06 -47.9,-107.06 -107.1,-107.06" /></g><g
         transform="scale(1.00414)"
         id="g520"><path
           id="path522"
           style="fill:#000000;fill-opacity:1;fill-rule:nonzero;stroke:none"
           d="m 16192.9,7486.1 h -158.4 c -46.2,0 -83.6,37.44 -83.6,83.55 v 164.72 c 0,56.27 45.6,101.88 101.8,101.88 h 114.2 c 73.5,0 133.1,-59.65 133.1,-133.15 v -109.94 c 0,-59.16 -47.9,-107.06 -107.1,-107.06" /></g><g
         transform="scale(1.32328)"
         id="g524"><path
           id="path526"
           style="fill:#ffffff;fill-opacity:1;fill-rule:nonzero;stroke:none"
           d="m 13959.1,3576.05 2073.2,97.26 c 111.7,5.21 202.4,91.82 212.9,203.05 l 54.8,582.5 -2711.5,-70.51 131.2,-627 c 23.5,-112.15 125,-190.67 239.4,-185.3" /></g><g
         transform="scale(1.32465)"
         id="g528"><path
           id="path530"
           style="fill:#000000;fill-opacity:1;fill-rule:nonzero;stroke:none"
           d="m 13594.6,4367.79 127.1,-606.95 c 21.9,-104.7 115.4,-176.88 222.2,-172.04 l 2071,97.15 c 102.7,4.84 187.4,85.61 197,187.98 l 53.1,563.32 z m 350.1,-795.45 h 0.1 z m -11.3,-16.76 c -118.1,-0.08 -219.6,81.76 -244,198.47 l -131.1,626.35 c -1.1,4.76 0.1,9.74 3.2,13.59 3,3.85 7.6,6.19 12.5,6.27 l 2708.7,70.5 c 4.8,-0.07 9.2,-1.81 12.5,-5.28 3.2,-3.4 4.8,-8.08 4.3,-12.76 l -54.8,-581.89 c -11.1,-118.59 -109.3,-212.28 -228.2,-217.86 l -2071,-97.16 c -4.1,-0.15 -8.1,-0.23 -12.1,-0.23" /></g><g
         transform="scale(1.32468)"
         id="g532"><path
           id="path534"
           style="fill:#000000;fill-opacity:1;fill-rule:nonzero;stroke:none"
           d="m 13933.1,3555.5 c -118.1,0 -219.6,81.75 -244,198.46 L 13558,4380.3 c -1.9,8.91 3.8,17.67 12.7,19.55 8.9,1.89 17.6,-3.85 19.5,-12.76 l 131.1,-626.34 c 21.9,-104.7 115.5,-176.87 222.3,-172.04 l 2071,97.16 c 102.6,4.83 187.3,85.6 196.9,187.97 l 54.8,581.88 c 0.9,9.05 8.9,15.55 18,14.87 9.1,-0.91 15.7,-8.91 14.9,-17.97 l -54.8,-581.88 c -11.1,-118.59 -109.3,-212.27 -228.3,-217.86 l -2070.9,-97.16 c -4.1,-0.15 -8.1,-0.22 -12.1,-0.22" /></g><g
         transform="scale(1.19663)"
         id="g536"><path
           id="path538"
           style="fill:#000000;fill-opacity:1;fill-rule:nonzero;stroke:none"
           d="M 14321.3,7179.69 14515.7,6518 c 15.9,-54.41 65,-92.35 121.7,-94.02 l 1564.3,-45.79 c 57.9,-1.68 98.3,56.99 75.9,110.47 l -246.1,656.18 c -20.4,54.4 -71.9,90.92 -130,92.18 l -1508.8,33.09 c -48.6,2.51 -85.1,-43.71 -71.4,-90.42" /></g><g
         transform="scale(1.19536)"
         id="g540"><path
           id="path542"
           style="fill:#000000;fill-opacity:1;fill-rule:nonzero;stroke:none"
           d="m 15572.7,5308.8 c -79.6,0 -144.4,-64.76 -144.4,-144.4 v -3.34 c 0,-87.92 71.6,-159.54 159.5,-159.54 h 650 c 14.3,0 18.8,11.38 19.8,14.9 1.1,3.51 3.4,15.47 -8.6,23.25 l -256.2,164.3 c -106.9,68.6 -230.5,104.83 -357.5,104.83 z m 665.1,-343.83 h -650 c -108.1,0 -196,87.92 -196,196.09 v 3.34 c 0,99.81 81.2,180.95 180.9,180.95 h 62.6 c 134,0 264.4,-38.23 377.3,-110.59 l 256,-164.3 c 22,-14.06 31.4,-39.32 24.1,-64.33 -7.3,-25.02 -28.9,-41.16 -54.9,-41.16" /></g><g
         transform="scale(1.32531)"
         id="g544"><path
           id="path546"
           style="fill:#000000;fill-opacity:1;fill-rule:nonzero;stroke:none"
           d="m 12517.3,3693.26 h 178.7 c -2.5,115.9 -3.7,206.29 -3.7,268.77 0,451.67 215.4,819.13 480.1,819.13 167.3,0 318.9,-143.14 407,-383.61 279.1,-13.13 711,-10.49 1284.6,7.85 656,20.97 1289,56.21 1394.7,62.24 -1.6,359.17 -362.4,513.17 -366.1,514.68 -5.9,2.41 -9.9,8.07 -10.2,14.49 0,2.64 -12.8,267.18 -100.5,359.01 -37.3,38.93 -563.4,236.7 -907.9,360.14 -4.5,1.58 -8,5.06 -9.8,9.51 l -400,1013.27 c -41.7,99.9 -99,189.84 -170.2,266.88 -178.8,193.32 -522.3,429.94 -1144.4,459.37 -27.1,1.28 -136.5,9.43 -302,21.73 -405.8,30.26 -1161,86.47 -1592.6,106.09 -147.2,6.71 -265.2,-5.13 -315.6,-10.19 -0.6,-0.07 -1.3,-0.15 -1.9,-0.22 V 4549.21 l 1557.3,-24.6 c 8.9,-0.15 16.2,-7.47 16.2,-16.37 z m 195.5,-32.98 h -211.9 c -9.1,0 -16.5,7.32 -16.5,16.38 l -6.2,815.21 -1557.4,24.59 c -9,0.16 -16.2,7.47 -16.2,16.53 v 3064.42 c 0,8.53 6.5,15.69 15.1,16.45 4,0.3 9.5,0.83 16.5,1.58 51.1,5.14 170.7,17.06 320.2,10.27 432.1,-19.62 1187.7,-75.84 1593.6,-106.09 159.4,-11.85 274.5,-20.45 301.1,-21.73 633.3,-29.88 984.2,-272.02 1167,-469.86 74,-79.98 133.4,-173.09 176.7,-276.91 l 397.3,-1006.64 c 116.2,-41.65 860.2,-310.04 913.5,-365.88 87,-90.99 106,-318.56 109.2,-370.18 60.5,-28.51 385.2,-198.67 376.7,-556.77 -0.2,-8.6 -6.9,-15.54 -15.5,-16.07 -6.9,-0.38 -695.2,-40.22 -1410.9,-63.08 -582.1,-18.64 -1018.8,-21.13 -1298.2,-7.32 -6.7,0.3 -12.5,4.6 -14.7,10.94 -82.7,233 -224.7,372.06 -379.8,372.06 -246.6,0 -447.2,-352.67 -447.2,-786.15 0,-65.27 1.4,-161.1 4.1,-284.92 0.1,-4.45 -1.6,-8.68 -4.7,-11.84 -3.1,-3.17 -7.4,-4.99 -11.8,-4.99" /></g><path
         id="path548"
         style="fill:#000000;fill-opacity:1;fill-rule:nonzero;stroke:none"
         d="m 14930.8,6389.6 h 594.7 v 672.6 h -594.7 z m 616.5,-43.7 h -638.4 c -12.1,0 -21.8,9.8 -21.8,21.8 v 716.4 c 0,12 9.7,21.8 21.8,21.8 h 638.4 c 12.1,0 21.9,-9.8 21.9,-21.8 v -716.4 c 0,-12 -9.8,-21.8 -21.9,-21.8" /><path
         id="path550"
         style="fill:#ffffff;fill-opacity:1;fill-rule:nonzero;stroke:none"
         d="m 8882.69,6053.9 1386.61,-242.4 1373.4,240.6 c 2.3,0.4 2.3,3.8 0,4.2 l -1389.1,243.3 -1370.91,-245.7" /><path
         id="path552"
         style="fill:#000000;fill-opacity:1;fill-rule:nonzero;stroke:none"
         d="m 9008.02,6054.2 1261.28,-220.5 1258.9,220.5 -1274.6,223.2 z m 1261.28,-264.5 c -1.2,0 -2.5,0.1 -3.7,0.3 l -1386.67,242.4 c -10.46,1.8 -18.08,10.9 -18.1,21.5 -0.02,10.6 7.55,19.6 17.99,21.5 l 1370.88,245.7 c 2.6,0.4 5.1,0.4 7.7,0 l 1389.1,-243.2 c 11.5,-2.1 19.8,-12.1 19.8,-23.7 0,-11.6 -8.3,-21.5 -19.7,-23.6 L 10273.1,5790 c -1.3,-0.2 -2.5,-0.3 -3.8,-0.3" /><path
         id="path554"
         style="fill:#ffffff;fill-opacity:1;fill-rule:nonzero;stroke:none"
         d="M 10269.1,3757 V 5813.5 L 8876.98,6054.8 V 4003.9 L 10269.1,3757" /><path
         id="path556"
         style="fill:#000000;fill-opacity:1;fill-rule:nonzero;stroke:none"
         d="m 8898.83,4022.2 1348.37,-239.1 v 2012 l -1348.37,233.7 z m 1370.27,-287 c -1.3,0 -2.6,0.1 -3.9,0.3 l -1392.04,246.9 c -10.43,1.8 -18.02,10.9 -18.02,21.5 v 2050.9 c 0,6.4 2.83,12.5 7.78,16.7 4.93,4.1 11.48,5.8 17.8,4.8 L 10272.8,5835 c 10.5,-1.8 18.1,-10.9 18.1,-21.5 V 3757 c 0,-6.4 -2.9,-12.6 -7.8,-16.7 -4,-3.3 -8.9,-5.1 -14,-5.1" /><path
         id="path558"
         style="fill:#ffffff;fill-opacity:1;fill-rule:nonzero;stroke:none"
         d="m 10269.1,3757 v 2056.5 l 1380,241.6 V 4002.7 l -1380,-245.7" /><path
         id="path560"
         style="fill:#000000;fill-opacity:1;fill-rule:nonzero;stroke:none"
         d="M 10290.9,5795.2 V 3783.1 l 1336.3,237.9 v 2008.1 z m -21.8,-2060 c -5.1,0 -10.1,1.8 -14.1,5.1 -4.9,4.1 -7.8,10.3 -7.8,16.7 v 2056.5 c 0,10.6 7.6,19.7 18.1,21.5 l 1380,241.6 c 6.4,1 12.9,-0.7 17.8,-4.8 4.9,-4.2 7.8,-10.3 7.8,-16.7 V 4002.7 c 0,-10.6 -7.6,-19.6 -18,-21.5 l -1380,-245.7 c -1.3,-0.2 -2.6,-0.3 -3.8,-0.3" /><path
         id="path562"
         style="fill:#ffffff;fill-opacity:1;fill-rule:nonzero;stroke:none"
         d="m 8795.91,7655.5 1045.11,-182.7 1033.48,181 c 2.1,0.4 2.1,3.4 0,3.8 l -1045.33,183 -1033.26,-185.1" /><path
         id="path564"
         style="fill:#000000;fill-opacity:1;fill-rule:nonzero;stroke:none"
         d="m 10870.6,7636.1 c 0.1,0 0.1,0 0.2,0 z m -1949.35,19.7 919.77,-160.8 917.58,160.7 -929.4,162.7 z m 919.77,-204.9 c -1.26,0 -2.52,0.1 -3.76,0.4 L 8792.16,7634 c -10.46,1.8 -18.07,10.8 -18.1,21.4 -0.02,10.7 7.56,19.7 17.99,21.6 l 1033.24,185.1 c 2.54,0.5 5.11,0.5 7.64,0.1 l 1045.27,-183.1 c 11.3,-1.9 19.6,-11.7 19.7,-23.3 0,-11.5 -8.2,-21.4 -19.5,-23.5 l -1033.61,-181 c -1.25,-0.3 -2.51,-0.4 -3.77,-0.4" /><path
         id="path566"
         style="fill:#ffffff;fill-opacity:1;fill-rule:nonzero;stroke:none"
         d="m 9840.82,5924.3 v 1550 L 8791.61,7656.1 V 6110.4 l 1049.21,-186.1" /><path
         id="path568"
         style="fill:#000000;fill-opacity:1;fill-rule:nonzero;stroke:none"
         d="m 9189.11,7406.4 221.48,-39.2 v 155.4 l -221.48,38.4 z m 243.33,-87.2 c -1.28,0 -2.54,0.1 -3.82,0.4 l -265.17,47 c -10.44,1.9 -18.03,10.9 -18.03,21.5 V 7587 c 0,6.4 2.84,12.5 7.78,16.7 4.93,4.1 11.48,5.9 17.8,4.8 l 265.17,-46 c 10.48,-1.8 18.11,-10.9 18.11,-21.5 v -199.9 c 0,-6.5 -2.86,-12.6 -7.81,-16.8 -3.97,-3.3 -8.94,-5.1 -14.03,-5.1" /><path
         id="path570"
         style="fill:#000000;fill-opacity:1;fill-rule:nonzero;stroke:none"
         d="m 8813.45,6128.7 1005.53,-178.3 v 1505.5 l -1005.53,174.3 z m 1027.38,-226.2 c -1.26,0 -2.54,0.1 -3.82,0.3 l -1049.23,186.1 c -10.43,1.8 -18.02,10.9 -18.02,21.5 v 1545.7 c 0,6.5 2.83,12.6 7.78,16.7 4.93,4.2 11.5,5.9 17.8,4.9 l 1049.22,-181.9 c 10.47,-1.8 18.11,-10.9 18.11,-21.5 v -1550 c 0,-6.4 -2.86,-12.6 -7.81,-16.7 -3.96,-3.3 -8.94,-5.1 -14.03,-5.1" /><path
         id="path572"
         style="fill:#ffffff;fill-opacity:1;fill-rule:nonzero;stroke:none"
         d="m 9840.82,5924.3 v 1550 l 1040.08,182.1 V 6109.5 L 9840.82,5924.3" /><path
         id="path574"
         style="fill:#000000;fill-opacity:1;fill-rule:nonzero;stroke:none"
         d="M 9862.67,7455.9 V 5950.4 l 996.43,177.4 v 1502.6 z m -21.84,-1553.4 c -5.1,0 -10.07,1.7 -14.04,5.1 -4.95,4.1 -7.81,10.3 -7.81,16.7 v 1550 c 0,10.6 7.62,19.7 18.07,21.5 l 1040.05,182.1 c 6.4,1 12.9,-0.7 17.9,-4.8 4.9,-4.2 7.8,-10.3 7.8,-16.7 V 6109.5 c 0,-10.6 -7.6,-19.6 -18.1,-21.5 L 9844.64,5902.8 c -1.26,-0.2 -2.54,-0.3 -3.81,-0.3" /><path
         id="path576"
         style="fill:#ffffff;fill-opacity:1;fill-rule:nonzero;stroke:none"
         d="M 6646.61,6205.7 8355.33,5907 10050.3,6203.9 c 2.4,0.4 2.4,3.9 0,4.3 L 8335.95,6508.4 6646.61,6205.7" /><path
         id="path578"
         style="fill:#000000;fill-opacity:1;fill-rule:nonzero;stroke:none"
         d="M 6771.96,6205.9 8355.33,5929.1 9935.96,6206 8336,6486.2 Z m 1583.37,-320.8 c -1.26,0 -2.52,0.1 -3.76,0.3 l -1708.7,298.8 c -10.46,1.8 -18.08,10.8 -18.09,21.4 -0.03,10.6 7.54,19.7 17.98,21.6 l 1689.33,302.7 c 2.54,0.4 5.1,0.4 7.64,0 l 1714.37,-300.2 c 11.6,-2.1 19.9,-12 19.9,-23.7 0,-11.6 -8.3,-21.5 -19.8,-23.6 l -1695.1,-297 c -1.26,-0.2 -2.52,-0.3 -3.77,-0.3" /><path
         id="path580"
         style="fill:#ffffff;fill-opacity:1;fill-rule:nonzero;stroke:none"
         d="M 8355,3375.3 V 5909.4 L 6639.58,6206.7 V 3679.5 L 8355,3375.3" /><path
         id="path582"
         style="fill:#000000;fill-opacity:1;fill-rule:nonzero;stroke:none"
         d="m 7332.36,5830.7 329.86,-58.5 v 237.2 l -329.86,57.2 z m 351.71,-106.4 c -1.26,0 -2.54,0.1 -3.82,0.4 l -373.55,66.2 c -10.44,1.9 -18.03,10.9 -18.03,21.5 v 280.1 c 0,6.5 2.84,12.6 7.79,16.8 4.93,4.1 11.47,5.8 17.79,4.8 l 373.55,-64.8 c 10.48,-1.8 18.11,-10.9 18.11,-21.5 v -281.6 c 0,-6.5 -2.85,-12.6 -7.8,-16.8 -3.97,-3.3 -8.94,-5.1 -14.04,-5.1" /><path
         id="path584"
         style="fill:#000000;fill-opacity:1;fill-rule:nonzero;stroke:none"
         d="M 6661.43,3697.8 8333.16,3401.3 V 5891.1 L 6661.43,6180.8 Z M 8355,3353.4 c -1.25,0 -2.53,0.1 -3.81,0.4 L 6635.76,3658 c -10.43,1.8 -18.03,10.9 -18.03,21.5 v 2527.2 c 0,6.5 2.84,12.6 7.79,16.7 4.93,4.2 11.48,5.9 17.8,4.9 L 8358.74,5931 c 10.47,-1.8 18.11,-10.9 18.11,-21.5 V 3375.3 c 0,-6.5 -2.86,-12.6 -7.81,-16.8 -3.96,-3.3 -8.93,-5.1 -14.04,-5.1" /><path
         id="path586"
         style="fill:#ffffff;fill-opacity:1;fill-rule:nonzero;stroke:none"
         d="m 8355,3375.3 v 2534.1 l 1700.5,297.7 V 3678 L 8355,3375.3" /><path
         id="path588"
         style="fill:#000000;fill-opacity:1;fill-rule:nonzero;stroke:none"
         d="M 8376.85,5891.1 V 3401.3 l 1656.85,295 V 6181.1 Z M 8355,3353.4 c -5.09,0 -10.06,1.8 -14.03,5.1 -4.95,4.2 -7.81,10.3 -7.81,16.8 v 2534.2 c 0,10.6 7.62,19.6 18.07,21.5 l 1700.57,297.6 c 6.4,1.1 12.9,-0.6 17.8,-4.8 4.9,-4.1 7.8,-10.2 7.8,-16.7 V 3678 c 0,-10.5 -7.6,-19.6 -18,-21.5 L 8358.82,3353.8 c -1.25,-0.3 -2.54,-0.4 -3.82,-0.4" /></g></g></svg>