<?xml version="1.0" encoding="UTF-8" standalone="no"?>
<svg
   xmlns:dc="http://purl.org/dc/elements/1.1/"
   xmlns:cc="http://creativecommons.org/ns#"
   xmlns:rdf="http://www.w3.org/1999/02/22-rdf-syntax-ns#"
   xmlns:svg="http://www.w3.org/2000/svg"
   xmlns="http://www.w3.org/2000/svg"
   viewBox="0 0 3333.3333 3333.3333"
   height="3333.3333"
   width="3333.3333"
   xml:space="preserve"
   id="svg2"
   version="1.1"><metadata
     id="metadata8"><rdf:RDF><cc:Work
         rdf:about=""><dc:format>image/svg+xml</dc:format><dc:type
           rdf:resource="http://purl.org/dc/dcmitype/StillImage" /></cc:Work></rdf:RDF></metadata><defs
     id="defs6" /><g
     transform="matrix(1.3333333,0,0,-1.3333333,0,3333.3333)"
     id="g10"><g
       transform="scale(0.1)"
       id="g12"><g
         transform="scale(1.53374)"
         id="g14"><path
           id="path16"
           style="fill:#ffffff;fill-opacity:1;fill-rule:nonzero;stroke:none"
           d="M 16300,0 H 0 V 16300 H 16300 V 0" /></g><g
         transform="scale(1.29915)"
         id="g18"><path
           id="path20"
           style="fill:#ffffff;fill-opacity:1;fill-rule:nonzero;stroke:none"
           d="m 8128.88,15809.9 c 252.09,71.2 514.19,-75.4 585.39,-327.4 71.27,-252.1 -75.28,-514.2 -327.37,-585.4 -252.02,-71.3 -514.11,75.3 -585.39,327.3 -71.28,252.1 75.28,514.2 327.37,585.5 z m -813.19,-627.1 50.12,-177.3 200.94,10.8 c 18.96,-39 40.83,-75.9 65.51,-110.4 l -105.02,-171.3 132.06,-128.5 168.69,109.8 c 35.49,-23.9 72.89,-44.8 111.84,-62.5 l -5.23,-201.2 178.58,-45.3 90.98,179.2 c 42.34,-2.9 85.21,-2.3 128.39,2 l 95.99,-176.8 177.27,50.1 -10.78,200.9 c 38.95,19 75.9,40.9 110.39,65.5 l 171.34,-105 128.47,132.1 -109.84,168.6 c 23.93,35.5 44.87,72.9 62.57,111.9 l 201.22,-5.3 45.26,178.6 -179.2,91 c 3,42.4 2.31,85.3 -2,128.4 l 176.89,96 -50.12,177.3 -200.97,-10.8 c -18.94,39 -40.8,75.9 -65.51,110.4 l 105,171.3 -132.02,128.5 -168.64,-109.8 c -35.49,23.9 -72.98,44.8 -111.92,62.6 l 5.31,201.2 -178.66,45.2 -90.98,-179.2 c -42.34,3 -85.21,2.3 -128.32,-2 l -96.06,176.9 -177.27,-50.2 10.77,-200.9 c -38.94,-18.9 -75.89,-40.8 -110.37,-65.5 l -171.36,105 -128.47,-132 109.84,-168.7 c -23.92,-35.5 -44.85,-72.9 -62.57,-111.9 l -201.21,5.3 -45.24,-178.6 179.19,-91 c -2.96,-42.3 -2.27,-85.2 1.99,-128.4 l -176.85,-96" /></g><g
         transform="scale(1.30063)"
         id="g22"><path
           id="path24"
           style="fill:#000000;fill-opacity:1;fill-rule:nonzero;stroke:none"
           d="m 8119.62,15791.8 h 0.16 z m 4.62,-16.4 c -117.33,-33.2 -214.75,-110.1 -274.26,-216.6 -59.58,-106.4 -74.04,-229.7 -40.9,-347.1 33.22,-117.3 110.1,-214.7 216.59,-274.3 106.41,-59.5 229.66,-74 347.06,-40.8 117.33,33.2 214.74,110.1 274.33,216.5 59.51,106.5 74.04,229.7 40.83,347.1 -33.14,117.4 -110.1,214.8 -216.51,274.3 -106.49,59.5 -229.74,74.1 -347.14,40.9 z m 123.55,-930.5 c -82.8,0 -164.61,21.1 -238.88,62.6 -114.41,64 -197.06,168.8 -232.74,294.9 -35.67,126.2 -20.06,258.7 43.9,373.1 63.97,114.5 168.69,197.2 294.86,232.8 126.17,35.7 258.72,20.1 373.13,-43.9 114.48,-64 197.13,-168.7 232.81,-294.9 35.68,-126.2 20.07,-258.7 -43.98,-373.1 -63.97,-114.5 -168.69,-197.1 -294.86,-232.8 -44.36,-12.5 -89.41,-18.7 -134.24,-18.7 z m -304.78,-396 151.85,-38.4 84.73,166.8 c 3.08,6.1 9.69,9.8 16.46,9.3 41.05,-2.9 83.19,-2.2 125.32,1.9 6.77,0.7 13.46,-2.8 16.68,-8.8 l 89.42,-164.7 150.7,42.7 -10,187 c -0.38,6.9 3.39,13.3 9.62,16.3 37.98,18.5 74.27,40 107.79,64 5.61,4 12.99,4.2 18.91,0.6 l 159.46,-97.7 109.26,112.3 -102.26,157 c -3.76,5.7 -3.69,13.2 0.16,18.9 23.29,34.6 43.82,71.3 61.12,109.3 2.84,6.2 9.3,10.2 15.99,10 l 187.29,-4.9 38.53,151.8 -166.85,84.8 c -6.15,3.1 -9.76,9.5 -9.3,16.4 2.85,41 2.23,83.2 -1.92,125.3 -0.69,6.9 2.77,13.5 8.84,16.8 l 164.61,89.3 -42.59,150.8 -187.06,-10.1 c -6.92,-0.3 -13.31,3.4 -16.3,9.6 -18.53,38.1 -40.06,74.4 -63.97,107.8 -4,5.6 -4.23,13.1 -0.7,18.9 l 97.73,159.5 -112.26,109.3 -157,-102.3 c -5.76,-3.7 -13.22,-3.7 -18.91,0.2 -34.53,23.3 -71.35,43.8 -109.26,61.1 -6.3,2.8 -10.22,9.1 -10.07,16 l 4.92,187.3 -151.85,38.5 -84.65,-166.8 c -3.15,-6.1 -9.61,-9.8 -16.53,-9.3 -40.98,2.8 -83.11,2.2 -125.33,-2 -6.76,-0.7 -13.37,2.8 -16.68,8.9 l -89.42,164.6 -150.7,-42.6 10.08,-187 c 0.31,-6.9 -3.46,-13.4 -9.61,-16.4 -38.14,-18.5 -74.43,-40 -107.8,-63.9 -5.61,-4 -13.07,-4.3 -18.91,-0.7 l -159.51,97.7 -109.24,-112.2 102.25,-157 c 3.76,-5.8 3.69,-13.2 -0.15,-18.9 -23.29,-34.6 -43.84,-71.4 -61.11,-109.3 -2.85,-6.3 -9.13,-10.2 -16.04,-10.1 l -187.29,4.9 -38.47,-151.8 166.78,-84.7 c 6.14,-3.1 9.81,-9.6 9.33,-16.5 -2.87,-41 -2.22,-83.2 1.95,-125.3 0.67,-6.9 -2.82,-13.4 -8.87,-16.7 l -164.63,-89.4 42.62,-150.7 187.05,10 c 6.92,0.4 13.3,-3.4 16.31,-9.6 18.52,-38.1 40.04,-74.3 63.96,-107.8 4,-5.6 4.27,-13 0.67,-18.9 l -97.73,-159.5 112.27,-109.2 156.99,102.2 c 5.77,3.8 13.23,3.7 18.92,-0.1 34.52,-23.3 71.35,-43.9 109.33,-61.1 6.23,-2.9 10.15,-9.2 10,-16.1 z m 160.93,-75.5 c -1.39,0 -2.77,0.2 -4.23,0.5 l -178.38,45.2 c -7.76,2 -13.14,9 -12.92,17 l 5.01,189.8 c -32.61,15.4 -64.28,33.1 -94.42,52.8 l -159.08,-103.6 c -6.73,-4.4 -15.56,-3.5 -21.29,2.1 l -131.9,128.3 c -5.73,5.6 -6.84,14.4 -2.66,21.2 l 99.01,161.6 c -20.31,29.3 -38.86,60.6 -55.29,93.2 l -189.45,-10.2 c -7.86,-0.4 -15.21,4.8 -17.4,12.5 l -50.06,177.1 c -2.18,7.7 1.26,15.9 8.31,19.7 l 166.74,90.5 c -3.08,36.4 -3.64,72.7 -1.7,108.4 l -168.95,85.8 c -7.14,3.6 -10.81,11.7 -8.85,19.4 l 45.2,178.4 c 1.96,7.8 9.6,13.1 17.05,12.9 l 189.72,-4.9 c 15.4,32.6 33.12,64.2 52.81,94.4 l -103.57,159.1 c -4.38,6.7 -3.52,15.5 2.07,21.2 l 128.33,131.9 c 5.58,5.8 14.39,6.9 21.22,2.7 l 161.59,-99 c 29.3,20.3 60.59,38.8 93.19,55.3 l -10.15,189.4 c -0.46,8 4.69,15.2 12.38,17.4 l 177.14,50.1 c 7.69,2.2 15.84,-1.3 19.69,-8.3 l 90.49,-166.8 c 36.44,3.1 72.81,3.7 108.41,1.7 l 85.81,169 c 3.61,7.1 11.68,10.8 19.45,8.8 l 178.37,-45.2 c 7.77,-1.9 13.15,-9 12.92,-17 l -4.92,-189.7 c 32.52,-15.4 64.2,-33.1 94.41,-52.8 l 159,103.5 c 6.77,4.4 15.61,3.5 21.3,-2 l 131.94,-128.4 c 5.69,-5.6 6.84,-14.4 2.61,-21.2 l -98.95,-161.6 c 20.3,-29.3 38.83,-60.6 55.28,-93.2 l 189.45,10.2 c 7.84,0.4 15.22,-4.7 17.38,-12.4 l 50.05,-177.1 c 2.15,-7.7 -1.23,-15.9 -8.3,-19.7 l -166.77,-90.6 c 3.07,-36.4 3.69,-72.7 1.77,-108.3 l 168.91,-85.8 c 7.16,-3.6 10.77,-11.7 8.85,-19.5 l -45.21,-178.4 c -1.92,-7.8 -9.54,-13.1 -17.07,-12.9 l -189.68,5 c -15.38,-32.6 -33.14,-64.3 -52.82,-94.5 l 103.57,-159 c 4.38,-6.7 3.53,-15.6 -2.08,-21.3 l -128.32,-131.9 c -5.62,-5.7 -14.38,-6.8 -21.22,-2.7 l -161.54,99.1 c -29.37,-20.4 -60.66,-38.9 -93.26,-55.3 l 10.22,-189.5 c 0.39,-8 -4.76,-15.2 -12.45,-17.4 l -177.07,-50 c -7.77,-2.2 -15.92,1.2 -19.76,8.3 l -90.49,166.7 c -36.37,-3.1 -72.74,-3.6 -108.34,-1.7 l -85.8,-168.9 c -3,-5.9 -9,-9.4 -15.3,-9.4" /></g><g
         transform="scale(1.21383)"
         id="g26"><path
           id="path28"
           style="fill:#ffffff;fill-opacity:1;fill-rule:nonzero;stroke:none"
           d="m 6182.34,15402.3 c 461.64,130.5 941.66,-137.9 1072.17,-599.5 130.51,-461.7 -137.92,-941.7 -599.56,-1072.2 -461.63,-130.5 -941.66,137.9 -1072.17,599.6 -130.51,461.6 137.92,941.6 599.56,1072.1 z m -1489.31,-1148.4 91.79,-324.7 368.01,19.8 c 34.72,-71.4 74.78,-139 119.98,-202.2 l -192.34,-313.8 241.86,-235.3 308.89,201.2 c 65.02,-43.8 133.57,-82.2 204.94,-114.6 l -9.67,-368.5 327.09,-82.9 166.69,328.2 c 77.49,-5.4 156.07,-4.2 235.07,3.6 l 175.82,-323.9 324.7,91.8 -19.75,368 c 71.37,34.8 138.98,74.8 202.16,120 l 313.84,-192.3 235.3,241.8 -201.17,308.9 c 43.8,65.1 82.14,133.6 114.6,205 l 368.5,-9.7 82.85,327.1 -328.18,166.7 c 5.43,77.5 4.16,156.1 -3.63,235 l 323.89,175.9 -91.8,324.7 -368.01,-19.8 c -34.71,71.4 -74.78,139 -119.98,202.2 l 192.33,313.8 -241.84,235.3 -308.9,-201.1 c -65.02,43.8 -133.57,82.1 -204.93,114.6 l 9.66,368.5 -327.09,82.8 -166.69,-328.2 c -77.49,5.5 -156.07,4.2 -235.05,-3.6 l -175.84,323.9 -324.71,-91.8 19.77,-368 c -71.38,-34.7 -139,-74.8 -202.17,-120 l -313.84,192.3 -235.3,-241.8 201.18,-308.9 c -43.82,-65 -82.14,-133.6 -114.61,-204.9 l -368.5,9.6 -82.85,-327.1 328.18,-166.7 c -5.43,-77.5 -4.17,-156 3.63,-235 l -323.88,-175.9" /></g><g
         transform="scale(1.21531)"
         id="g30"><path
           id="path32"
           style="fill:#000000;fill-opacity:1;fill-rule:nonzero;stroke:none"
           d="m 6412.08,15398.3 c -77.57,0 -155.6,-10.7 -232.3,-32.4 -450.61,-127.4 -713.57,-597.6 -586.18,-1048.3 127.39,-450.5 597.63,-713.5 1048.24,-586.1 218.29,61.7 399.49,204.7 510.19,402.7 110.71,198 137.7,427.2 75.99,645.5 -61.7,218.3 -204.73,399.5 -402.72,510.2 -128.42,71.8 -270.01,108.4 -413.22,108.4 z m -0.95,-1735.6 c -386.47,0 -742.6,255.2 -852.8,645 -132.89,470 141.43,960.6 611.48,1093.5 l 4.99,-17.7 -4.99,17.7 c 227.71,64.3 466.87,36.2 673.38,-79.3 206.54,-115.5 355.73,-304.5 420.11,-532.2 64.37,-227.7 36.22,-466.9 -79.27,-673.4 -115.5,-206.5 -304.51,-355.7 -532.21,-420.1 -80.24,-22.7 -161.14,-33.5 -240.69,-33.5 z m -573.05,-748.5 298.3,-75.6 159.84,314.7 c 3.34,6.6 10.33,10.5 17.62,10 75.89,-5.3 153.83,-4.1 231.69,3.6 7.26,0.8 14.39,-3 17.91,-9.5 l 168.63,-310.6 296.1,83.7 -18.95,352.9 c -0.39,7.4 3.66,14.3 10.28,17.5 70.34,34.2 137.39,74 199.28,118.3 5.99,4.2 13.96,4.5 20.23,0.7 l 300.97,-184.5 214.57,220.6 -192.91,296.2 c -4.03,6.2 -3.96,14.2 0.15,20.3 43.09,63.9 81.1,131.9 112.98,202 3.05,6.7 9.85,10.9 17.16,10.7 l 353.4,-9.2 75.55,298.2 -314.71,159.9 c -6.57,3.3 -10.51,10.3 -9.99,17.6 5.31,75.8 4.11,153.8 -3.58,231.7 -0.72,7.3 3.02,14.4 9.49,17.9 l 310.62,168.6 -83.71,296.1 -352.93,-18.9 c -7.37,-0.4 -14.25,3.6 -17.47,10.3 -34.25,70.4 -74.03,137.5 -118.26,199.2 -4.27,6 -4.55,14 -0.71,20.3 l 184.44,301 -220.55,214.5 -296.23,-192.9 c -6.17,-4 -14.15,-4 -20.25,0.2 -63.9,43 -131.87,81 -202.02,112.9 -6.71,3.1 -10.93,9.9 -10.74,17.2 l 9.27,353.4 -298.29,75.6 -159.85,-314.8 c -3.33,-6.5 -10.22,-10.5 -17.62,-9.9 -75.82,5.3 -153.78,4.1 -231.69,-3.6 -7.21,-0.7 -14.37,3 -17.9,9.5 l -168.65,310.6 -296.1,-83.7 18.96,-353 c 0.39,-7.3 -3.66,-14.2 -10.28,-17.4 -70.41,-34.3 -137.46,-74.1 -199.27,-118.3 -5.99,-4.3 -13.95,-4.6 -20.24,-0.7 l -300.97,184.5 -214.57,-220.6 192.92,-296.2 c 4.02,-6.2 3.96,-14.2 -0.16,-20.3 -43.03,-63.8 -81.03,-131.8 -112.98,-202 -3.04,-6.7 -9.64,-11 -17.15,-10.7 l -353.41,9.2 -75.56,-298.3 314.72,-159.8 c 6.56,-3.4 10.51,-10.3 9.99,-17.6 -5.32,-75.9 -4.12,-153.8 3.58,-231.7 0.72,-7.4 -3.02,-14.4 -9.5,-17.9 l -310.6,-168.7 83.7,-296.1 352.94,19 c 7.52,0.4 14.24,-3.7 17.45,-10.3 34.23,-70.4 74,-137.4 118.26,-199.3 4.28,-6 4.56,-13.9 0.72,-20.2 l -184.44,-301 220.55,-214.5 296.24,192.9 c 6.16,4 14.14,3.9 20.24,-0.2 63.92,-43 131.9,-81 202.03,-113 6.7,-3 10.93,-9.8 10.73,-17.1 z m 307.99,-115.3 c -1.48,0 -2.99,0.2 -4.49,0.6 l -326.7,82.7 c -8.3,2.2 -14.04,9.7 -13.81,18.3 l 9.33,356 c -64.39,29.9 -126.91,64.9 -186.17,104.1 l -298.4,-194.4 c -7.2,-4.6 -16.65,-3.7 -22.78,2.3 l -241.56,235 c -6.13,5.9 -7.31,15.4 -2.84,22.7 l 185.79,303.1 c -40.36,57.5 -76.96,119.2 -109,183.7 l -355.47,-19.1 c -8.49,-0.4 -16.29,5.1 -18.62,13.4 l -91.68,324.3 c -2.33,8.2 1.36,17 8.9,21.1 l 312.84,169.8 c -6.48,71.8 -7.59,143.5 -3.33,213.6 l -316.99,161 c -7.65,3.9 -11.57,12.5 -9.47,20.8 l 82.76,326.7 c 2.09,8.3 9.36,14.2 18.24,13.8 l 355.97,-9.3 c 29.99,64.4 64.95,127 104.12,186.2 l -194.34,298.4 c -4.67,7.2 -3.76,16.6 2.22,22.7 l 235.01,241.6 c 5.97,6.1 15.4,7.3 22.71,2.9 l 303.15,-185.8 c 57.47,40.3 119.17,76.9 183.69,109 l -19.09,355.4 c -0.45,8.6 5.07,16.3 13.32,18.7 l 324.3,91.6 c 8.23,2.4 17.01,-1.3 21.1,-8.9 l 169.85,-312.8 c 71.78,6.5 143.52,7.6 213.58,3.3 l 161,317 c 3.87,7.6 12.5,11.6 20.85,9.5 l 326.68,-82.8 c 8.32,-2.1 14.05,-9.7 13.83,-18.2 l -9.33,-356 c 64.4,-29.9 126.93,-64.9 186.16,-104.1 l 298.4,194.3 c 7.21,4.7 16.64,3.8 22.78,-2.2 l 241.55,-235 c 6.14,-6 7.33,-15.4 2.85,-22.7 L 7577.2,15368 c 40.32,-57.4 76.93,-119.1 108.99,-183.7 l 355.46,19.1 c 8.45,0.5 16.29,-5 18.63,-13.3 l 91.69,-324.3 c 2.32,-8.2 -1.36,-17 -8.89,-21.1 l -312.86,-169.8 c 6.48,-71.8 7.58,-143.5 3.32,-213.6 l 316.99,-161 c 7.65,-3.9 11.58,-12.5 9.47,-20.9 l -82.74,-326.6 c -2.11,-8.4 -9.88,-14.2 -18.25,-13.9 l -355.96,9.4 c -29.94,-64.4 -64.9,-126.9 -104.11,-186.2 l 194.32,-298.4 c 4.68,-7.2 3.75,-16.6 -2.22,-22.8 l -235.01,-241.5 c -5.98,-6.2 -15.42,-7.3 -22.71,-2.9 l -303.15,185.8 c -57.53,-40.4 -119.23,-77 -183.7,-109 l 19.08,-355.5 c 0.46,-8.5 -5.06,-16.2 -13.31,-18.6 l -324.3,-91.7 c -8.26,-2.3 -17,1.4 -21.09,8.9 l -169.84,312.9 c -71.73,-6.5 -143.46,-7.6 -213.59,-3.3 l -161.01,-317 c -3.17,-6.3 -9.56,-10.1 -16.34,-10.1" /></g><g
         transform="scale(1.32685)"
         id="g34"><path
           id="path36"
           style="fill:#ffffff;fill-opacity:1;fill-rule:nonzero;stroke:none"
           d="M 15545.3,16300 H 12073 c -135.5,0 -245.3,-109.8 -245.3,-245.3 v -3831.1 c 0,-135.5 109.8,-245.3 245.3,-245.3 h 3472.3 c 135.5,0 245.3,109.8 245.3,245.3 v 3831.1 c 0,135.5 -109.8,245.3 -245.3,245.3" /></g><g
         transform="scale(1.32822)"
         id="g38"><path
           id="path40"
           style="fill:#000000;fill-opacity:1;fill-rule:nonzero;stroke:none"
           d="m 12060.6,16266.5 c -125.9,0 -228.3,-102.5 -228.3,-228.3 v -3827.1 c 0,-125.9 102.4,-228.3 228.3,-228.3 h 3468.7 c 125.9,0 228.3,102.4 228.3,228.3 v 3827.1 c 0,125.8 -102.4,228.3 -228.3,228.3 z m 3468.7,-4317.3 h -3468.7 c -144.4,0 -261.9,117.5 -261.9,261.9 v 3827.1 c 0,144.3 117.5,261.8 261.9,261.8 h 3468.7 c 144.4,0 261.8,-117.5 261.8,-261.8 v -3827.1 c 0,-144.4 -117.4,-261.9 -261.8,-261.9" /></g><g
         transform="scale(1.29545)"
         id="g42"><path
           id="path44"
           style="fill:#000000;fill-opacity:1;fill-rule:nonzero;stroke:none"
           d="m 15976.9,16265.6 h -3662.8 c -9.5,0 -17.1,7.7 -17.1,17.2 0,9.5 7.6,17.2 17.1,17.2 h 3662.8 c 9.5,0 17.2,-7.7 17.2,-17.2 0,-9.5 -7.7,-17.2 -17.2,-17.2" /></g><g
         transform="scale(1.31661)"
         id="g46"><path
           id="path48"
           style="fill:#000000;fill-opacity:1;fill-rule:nonzero;stroke:none"
           d="m 12243,16236.6 c 0,-35 -28.4,-63.4 -63.4,-63.4 -35,0 -63.4,28.4 -63.4,63.4 0,35 28.4,63.4 63.4,63.4 35,0 63.4,-28.4 63.4,-63.4" /></g><g
         transform="scale(1.31661)"
         id="g50"><path
           id="path52"
           style="fill:#000000;fill-opacity:1;fill-rule:nonzero;stroke:none"
           d="m 12496.5,16236.6 c 0,-35 -28.3,-63.4 -63.3,-63.4 -35,0 -63.4,28.4 -63.4,63.4 0,35 28.4,63.4 63.4,63.4 35,0 63.3,-28.4 63.3,-63.4" /></g><g
         transform="scale(1.31661)"
         id="g54"><path
           id="path56"
           style="fill:#000000;fill-opacity:1;fill-rule:nonzero;stroke:none"
           d="m 12750.1,16236.6 c 0,-35 -28.4,-63.4 -63.4,-63.4 -35,0 -63.3,28.4 -63.3,63.4 0,35 28.3,63.4 63.3,63.4 35,0 63.4,-28.4 63.4,-63.4" /></g><g
         transform="scale(1.31286)"
         id="g58"><path
           id="path60"
           style="fill:#000000;fill-opacity:1;fill-rule:nonzero;stroke:none"
           d="m 15765.1,16266.1 h -358.2 c -9.4,0 -17,7.6 -17,16.9 0,9.4 7.6,17 17,17 h 358.2 c 9.3,0 16.9,-7.6 16.9,-17 0,-9.3 -7.6,-16.9 -16.9,-16.9" /></g><g
         transform="scale(1.31286)"
         id="g62"><path
           id="path64"
           style="fill:#000000;fill-opacity:1;fill-rule:nonzero;stroke:none"
           d="m 15245.8,16266.1 h -1483.3 c -9.4,0 -17,7.6 -17,16.9 0,9.4 7.6,17 17,17 h 1483.3 c 9.4,0 17,-7.6 17,-17 0,-9.3 -7.6,-16.9 -17,-16.9" /></g><g
         transform="scale(1.31286)"
         id="g66"><path
           id="path68"
           style="fill:#000000;fill-opacity:1;fill-rule:nonzero;stroke:none"
           d="m 13372.5,16266.1 h -315.7 c -9.4,0 -17,7.6 -17,16.9 0,9.4 7.6,17 17,17 h 315.7 c 9.4,0 17,-7.6 17,-17 0,-9.3 -7.6,-16.9 -17,-16.9" /></g><g
         transform="scale(1.26946)"
         id="g70"><path
           id="path72"
           style="fill:#ffffff;fill-opacity:1;fill-rule:nonzero;stroke:none"
           d="m 13805,14894.4 c 119.5,209.1 341.9,356.8 600.3,383.5 l 18,1022.1 c -742.2,-2.5 -1397.3,-420.7 -1695.6,-1038.7 l 1077.3,-366.9" /></g><g
         transform="scale(1.27083)"
         id="g74"><path
           id="path76"
           style="fill:#000000;fill-opacity:1;fill-rule:nonzero;stroke:none"
           d="m 12738.5,15255.1 1043.8,-355.5 c 123.8,207.3 342.6,347.2 590.2,377.6 l 17.4,987.6 c -705.3,-8.9 -1349.8,-403.1 -1651.4,-1009.7 z m 1051.7,-394.2 c -1.9,0 -3.9,0.3 -5.7,0.9 l -1076.1,366.5 c -4.8,1.6 -8.6,5.2 -10.6,9.8 -1.9,4.6 -1.8,9.9 0.4,14.4 306,633.9 977,1045 1709.5,1047.5 5.2,-0.2 9.2,-1.9 12.5,-5.2 3.3,-3.4 5.1,-7.9 5,-12.6 l -17.9,-1021 c -0.2,-8.9 -6.9,-16.2 -15.7,-17.2 -247.8,-25.6 -466.9,-165.5 -586.2,-374.3 -3.2,-5.6 -9.1,-8.8 -15.2,-8.8" /></g><g
         transform="scale(1.25895)"
         id="g78"><path
           id="path80"
           style="fill:#000000;fill-opacity:1;fill-rule:nonzero;stroke:none"
           d="m 13869.2,16138.3 c -7,0 -13.7,4.2 -16.4,11.1 -3.7,9 0.7,19.3 9.7,23 169,68.4 347,111 529.1,126.8 9.8,0.8 18.4,-6.4 19.2,-16.1 0.8,-9.7 -6.4,-18.3 -16.1,-19.2 -178.6,-15.4 -353.2,-57.3 -518.9,-124.3 -2.2,-0.9 -4.5,-1.3 -6.6,-1.3" /></g><g
         transform="scale(1.24363)"
         id="g82"><path
           id="path84"
           style="fill:#000000;fill-opacity:1;fill-rule:nonzero;stroke:none"
           d="m 13436.5,15934.8 c -4.6,0 -9.1,1.7 -12.6,5.1 -7,6.9 -7.2,18.2 -0.2,25.3 129.1,131.8 278.8,242.9 445.1,330.2 8.8,4.6 19.6,1.2 24.3,-7.5 4.5,-8.8 1.2,-19.6 -7.6,-24.2 -163,-85.6 -309.8,-194.4 -436.2,-323.6 -3.6,-3.6 -8.2,-5.3 -12.8,-5.3" /></g><g
         transform="scale(1.26526)"
         id="g86"><path
           id="path88"
           style="fill:#ffffff;fill-opacity:1;fill-rule:nonzero;stroke:none"
           d="m 15287.5,14489.4 c -61.1,-336.9 -368.1,-601.8 -744.1,-613.5 -112.1,-3.5 -219.3,15.9 -316.5,53.8 l -587,-908.9 c 272.9,-123.1 581.1,-183.5 903.5,-164.9 937.6,53.8 1674.7,759.6 1756.6,1609.3 l -1012.5,24.2" /></g><g
         transform="scale(1.26665)"
         id="g90"><path
           id="path92"
           style="fill:#000000;fill-opacity:1;fill-rule:nonzero;stroke:none"
           d="m 13650.9,13014.2 c 271.2,-118.7 573.5,-172.3 875.5,-154.9 901.9,51.8 1644.8,726.4 1736.3,1572.9 l -977.6,23.4 c -69.9,-344.4 -385.8,-601 -757.1,-612.5 -107.2,-3.4 -211.2,13.4 -309.6,49.7 z m 764.1,-193.3 c -276.5,0 -549.9,57.9 -797.3,169.6 -4.6,2.1 -8.2,6.1 -9.6,11 -1.4,5 -0.7,10.3 2.1,14.6 l 586.3,907.8 c 4.6,7 13.3,9.9 21.2,6.8 97.9,-38.2 201.9,-55.8 309.2,-52.5 360.1,11.2 665.6,262.9 726.4,598.4 1.6,8.6 9.4,14.6 17.8,14.5 l 1011.4,-24.2 c 4.9,-0.2 9.5,-2.3 12.7,-6 3.2,-3.6 4.8,-8.4 4.3,-13.3 -84,-872.3 -845.4,-1570.3 -1771.1,-1623.4 -37.7,-2.2 -75.6,-3.3 -113.4,-3.3" /></g><g
         transform="scale(1.12966)"
         id="g94"><path
           id="path96"
           style="fill:#000000;fill-opacity:1;fill-rule:nonzero;stroke:none"
           d="m 16161.1,14540.4 c -221.6,0 -437.8,35 -642.8,104.2 -10.3,3.5 -15.8,14.7 -12.3,25 3.4,10.3 14.6,15.9 24.9,12.4 200.9,-67.8 412.9,-102.2 630.2,-102.2 39,0 78.5,1.1 117.5,3.4 10.8,0.6 20.2,-7.7 20.8,-18.6 0.6,-10.9 -7.6,-20.2 -18.5,-20.8 -39.8,-2.3 -80,-3.4 -119.8,-3.4" /></g><g
         transform="scale(1.25355)"
         id="g98"><path
           id="path100"
           style="fill:#000000;fill-opacity:1;fill-rule:nonzero;stroke:none"
           d="m 15044.8,13167.3 c -7.8,0 -15,5.2 -17.1,13.1 -2.6,9.5 3,19.2 12.4,21.8 621.7,169.5 1101.8,663 1223.1,1257.2 2,9.7 11.4,15.9 21,13.9 9.7,-2 15.8,-11.4 13.9,-21 -124.1,-607.2 -614.1,-1111.4 -1248.6,-1284.4 -1.5,-0.4 -3.1,-0.6 -4.7,-0.6" /></g><g
         transform="scale(1.17378)"
         id="g102"><path
           id="path104"
           style="fill:#ffffff;fill-opacity:1;fill-rule:nonzero;stroke:none"
           d="m 14504.9,14138.6 638.5,982.6 c -191,141.4 -313.7,361.4 -313.7,611 0,60.3 7.2,119.1 20.8,175.8 l -1169.5,392 c -62.9,-184.1 -96.8,-380.1 -96.8,-583 0,-672.2 368.8,-1250.8 920.7,-1578.4" /></g><g
         transform="scale(1.17532)"
         id="g106"><path
           id="path108"
           style="fill:#000000;fill-opacity:1;fill-rule:nonzero;stroke:none"
           d="m 13675,16254.7 c -59.4,-180.5 -89.6,-368.2 -89.6,-558.3 0,-632.7 334.1,-1211 894.6,-1550.6 l 618.1,951.2 c -195.2,151 -306.8,374 -306.8,614.7 0,54.7 5.9,109.4 17.5,163 z m 811,-2153.5 c -3.4,0 -6.7,0.9 -9.7,2.7 -581.6,345.1 -928.8,940.5 -928.8,1592.5 0,200.6 32.9,398.5 97.7,588.4 3.3,9.9 14,15.2 23.9,11.9 l 1168.1,-391.6 c 9.3,-3.1 14.6,-12.8 12.3,-22.3 -13.4,-56 -20.2,-113.6 -20.2,-171.1 0,-234.3 111.3,-451.2 305.6,-595 8.1,-6 10.1,-17.2 4.7,-25.6 l -637.7,-981.3 c -3.7,-5.5 -9.7,-8.6 -15.9,-8.6" /></g><g
         transform="scale(1.32598)"
         id="g110"><path
           id="path112"
           style="fill:#ffffff;fill-opacity:1;fill-rule:nonzero;stroke:none"
           d="m 14112.3,14663.7 c 326.7,-48.6 577.9,-301.8 607.8,-614.8 l 1579.9,-45.8 c 0,0.7 0,1.4 0,2 0,1159.1 -923.5,2150.9 -2159.5,2278.6 l -28.2,-1620" /></g><g
         transform="scale(1.32735)"
         id="g114"><path
           id="path116"
           style="fill:#000000;fill-opacity:1;fill-rule:nonzero;stroke:none"
           d="m 14720.1,14050.8 1546.3,-44.8 c -8,1149.4 -917.1,2109.1 -2123.9,2242.3 l -27.8,-1585.4 c 323.1,-54.3 569,-303.1 605.4,-612.1 z m 1562.9,-78.9 c 0,0 -0.2,0 -0.3,0 l -1578.3,45.8 c -8.4,0.2 -15.4,6.7 -16.2,15.1 -29.1,305.2 -272.9,551.6 -593,599.2 -8.3,1.2 -14.4,8.5 -14.3,16.9 l 28.3,1618.3 c 0,4.7 2.2,9.2 5.6,12.3 3.6,3.1 8.2,4.6 12.9,4.1 599.1,-61.9 1150.3,-330.7 1552.1,-756.9 400,-424.3 620.2,-969.8 620.2,-1536 0,-4.5 -1.8,-9.9 -5,-13 -3.3,-3.1 -7.5,-5.8 -12,-5.8" /></g><g
         transform="scale(1.17324)"
         id="g118"><path
           id="path120"
           style="fill:#ffffff;fill-opacity:1;fill-rule:nonzero;stroke:none"
           d="m 13947.5,16300 h -2337 c -115.3,0 -208.6,-93.4 -208.6,-208.5 v -3105.3 c 0,-115.1 93.3,-208.5 208.6,-208.5 h 2337 c 115.1,0 208.5,93.4 208.5,208.5 v 3105.3 c 0,115.1 -93.4,208.5 -208.5,208.5" /></g><g
         transform="scale(1.17461)"
         id="g122"><path
           id="path124"
           style="fill:#000000;fill-opacity:1;fill-rule:nonzero;stroke:none"
           d="m 11597,16262.1 c -104.5,0 -189.4,-85 -189.4,-189.3 v -3101.7 c 0,-104.4 84.9,-189.3 189.4,-189.3 h 2334.3 c 104.3,0 189.3,84.9 189.3,189.3 v 3101.7 c 0,104.3 -85,189.3 -189.3,189.3 z m 2334.3,-3518.2 H 11597 c -125.4,0 -227.4,101.9 -227.4,227.2 v 3101.7 c 0,125.3 102,227.2 227.4,227.2 h 2334.3 c 125.3,0 227.2,-101.9 227.2,-227.2 v -3101.7 c 0,-125.3 -101.9,-227.2 -227.2,-227.2" /></g><g
         transform="scale(1.10079)"
         id="g126"><path
           id="path128"
           style="fill:#ffffff;fill-opacity:1;fill-rule:nonzero;stroke:none"
           d="m 13140.7,14198.7 h -639.4 V 16300 h 639.4 v -2101.3" /></g><g
         transform="scale(1.10216)"
         id="g130"><path
           id="path132"
           style="fill:#000000;fill-opacity:1;fill-rule:nonzero;stroke:none"
           d="m 12506,14201.3 h 598.2 v 2058.3 H 12506 Z m 618.4,-40.4 h -638.6 c -11.2,0 -20.1,9.1 -20.1,20.2 v 2098.7 c 0,11.2 8.9,20.2 20.1,20.2 h 638.6 c 11.2,0 20.3,-9 20.3,-20.2 v -2098.7 c 0,-11.1 -9.1,-20.2 -20.3,-20.2" /></g><g
         transform="scale(1.13995)"
         id="g134"><path
           id="path136"
           style="fill:#ffffff;fill-opacity:1;fill-rule:nonzero;stroke:none"
           d="m 13460.9,13711 h -617.4 v 2589 h 617.4 v -2589" /></g><g
         transform="scale(1.14132)"
         id="g138"><path
           id="path140"
           style="fill:#000000;fill-opacity:1;fill-rule:nonzero;stroke:none"
           d="m 12847.6,13714.1 h 577.7 V 16261 h -577.7 z m 597.1,-39.1 h -616.6 c -10.8,0 -19.6,8.8 -19.6,19.5 v 2586 c 0,10.8 8.8,19.5 19.6,19.5 h 616.6 c 10.9,0 19.6,-8.7 19.6,-19.5 v -2586 c 0,-10.7 -8.7,-19.5 -19.6,-19.5" /></g><g
         transform="scale(1.04349)"
         id="g142"><path
           id="path144"
           style="fill:#ffffff;fill-opacity:1;fill-rule:nonzero;stroke:none"
           d="m 15548.2,14978.5 h -674.6 V 16300 h 674.6 v -1321.5" /></g><g
         transform="scale(1.04485)"
         id="g146"><path
           id="path148"
           style="fill:#000000;fill-opacity:1;fill-rule:nonzero;stroke:none"
           d="m 14875.5,14980.2 h 631 v 1277.2 h -631 z m 652.4,-42.6 h -673.7 c -11.8,0 -21.3,9.5 -21.3,21.3 v 1319.8 c 0,11.8 9.5,21.3 21.3,21.3 h 673.7 c 11.7,0 21.3,-9.5 21.3,-21.3 v -1319.8 c 0,-11.8 -9.6,-21.3 -21.3,-21.3" /></g><path
         id="path150"
         style="fill:#ffffff;fill-opacity:1;fill-rule:nonzero;stroke:none"
         d="m 10894,6684.6 61.5,-586 396.2,-46.4 v 694.7 l -457.7,-62.3" /><path
         id="path152"
         style="fill:#000000;fill-opacity:1;fill-rule:nonzero;stroke:none"
         d="m 10975.8,6118.7 353.6,-41.5 v 644.2 l -411,-56 z m 375.9,-88.8 c -0.8,0 -1.7,0 -2.6,0.1 l -396.2,46.5 c -10.3,1.2 -18.4,9.4 -19.5,19.8 l -61.5,585.9 c -1.3,12 7.2,22.8 19.1,24.4 l 457.7,62.4 c 6.5,0.9 12.8,-1.1 17.7,-5.3 4.8,-4.2 7.6,-10.3 7.6,-16.8 v -694.7 c 0,-6.4 -2.7,-12.4 -7.5,-16.7 -4.1,-3.6 -9.4,-5.6 -14.8,-5.6" /><path
         id="path154"
         style="fill:#ffffff;fill-opacity:1;fill-rule:nonzero;stroke:none"
         d="m 11414.1,5032.1 c -165.1,-23.2 -435.9,-43.7 -753.7,0.3 -104.2,14.4 -173.2,115.5 -148.1,217.6 70,284.5 190.6,824.1 397.5,1074.1 l 51.5,-135.6 71,127.7 c 9.7,17.5 27.2,29.3 47,31.8 l 155.6,19.8 c 32.4,4.1 62.7,-17.4 69.4,-49.5 l 24.8,-117.7 54.2,154.5 180.9,-1124.7 c 12.7,-96.1 -54.1,-184.8 -150.1,-198.3" /><path
         id="path156"
         style="fill:#000000;fill-opacity:1;fill-rule:nonzero;stroke:none"
         d="m 10903.1,6279.2 c -175.7,-239.5 -286.7,-695.7 -354.2,-973 l -15,-61.5 c -10.5,-43 -2.7,-86.9 22.2,-123.5 24.6,-36.4 63.8,-60.7 107.4,-66.7 312.4,-43.3 578.9,-24.1 747.5,-0.3 83.4,11.7 142.2,89.5 131.1,173.3 l -166.9,1037.5 -25.1,-71.7 c -3.3,-9.5 -12.6,-15.5 -22.5,-14.9 -10,0.7 -18.3,7.9 -20.3,17.7 l -24.8,117.6 c -4.3,20.6 -23.9,34.6 -44.8,32 l -155.6,-19.8 c -12.8,-1.6 -24.1,-9.2 -30.4,-20.5 l -71,-127.7 c -4.2,-7.6 -12.4,-12 -21,-11.4 -8.7,0.6 -16.2,6.2 -19.3,14.3 z m 136.4,-1295 c -115.8,0 -244.6,7.1 -382.2,26.2 -56,7.7 -106.4,39 -138.1,85.8 -31.6,46.5 -42,104.5 -28.5,159.1 l 15,61.4 c 71.4,293.5 190.8,784.6 387,1021.6 5,6.1 13,9.1 20.8,7.8 7.8,-1.3 14.4,-6.7 17.2,-14.1 l 34.4,-90.8 47.7,85.8 c 13.1,23.6 36.9,39.7 63.7,43.1 l 155.6,19.8 c 43.4,5.5 84.9,-23.9 94,-67 l 8.3,-39.7 27.9,79.3 c 3.4,9.6 12.9,15.7 23,14.8 10.1,-0.9 18.4,-8.6 20,-18.6 l 180.9,-1124.8 c 14.3,-108.6 -61.5,-208.7 -169,-223.8 l -3.1,22 3.1,-22 c -97.1,-13.7 -226.2,-25.9 -377.7,-25.9" /><path
         id="path158"
         style="fill:#000000;fill-opacity:1;fill-rule:nonzero;stroke:none"
         d="m 10955.2,5172.7 c -105.6,0 -219.9,9.4 -333.8,35.3 -12,2.8 -19.5,14.7 -16.8,26.7 2.8,12 14.8,19.5 26.7,16.7 388.2,-88.4 794.8,25.3 798.9,26.5 11.8,3.4 24.1,-3.5 27.5,-15.3 3.4,-11.8 -3.5,-24.2 -15.3,-27.5 -12.1,-3.5 -222.4,-62.4 -487.2,-62.4" /><path
         id="path160"
         style="fill:#000000;fill-opacity:1;fill-rule:nonzero;stroke:none"
         d="m 10860.6,5608.4 c -12,0 -21.9,9.5 -22.3,21.6 -0.4,12.3 9.3,22.5 21.5,23 l 371.4,12.2 c 12.2,0.1 22.6,-9.2 23,-21.5 0.4,-12.3 -9.2,-22.6 -21.5,-23 l -371.4,-12.3 c -0.2,0 -0.5,0 -0.7,0" /><path
         id="path162"
         style="fill:#ffffff;fill-opacity:1;fill-rule:nonzero;stroke:none"
         d="m 12749.7,6996.6 59.4,-855.1 h 476.8 l 22.1,855.1 h -558.3" /><path
         id="path164"
         style="fill:#000000;fill-opacity:1;fill-rule:nonzero;stroke:none"
         d="m 12829.9,6163.7 h 434.2 l 21.1,810.6 h -511.6 z m 456,-44.5 h -476.8 c -11.7,0 -21.4,9.1 -22.2,20.7 l -59.4,855.1 c -0.4,6.2 1.7,12.2 6,16.7 4.2,4.6 10.1,7.1 16.2,7.1 h 558.3 c 6,0 11.8,-2.4 16,-6.7 4.2,-4.3 6.4,-10.1 6.3,-16.1 l -22.2,-855.1 c -0.3,-12.1 -10.2,-21.7 -22.2,-21.7" /><path
         id="path166"
         style="fill:#ffffff;fill-opacity:1;fill-rule:nonzero;stroke:none"
         d="m 12684.6,5658.7 c -1.2,-80.8 54,-151.9 132.8,-170.2 274.1,-63.8 891.5,-205.8 1067.6,-232 228.6,-34.1 509.5,36 630.3,169.7 120.7,133.6 -270.5,452.9 -456.1,569 -275.8,172.5 -540.8,513.6 -651.9,528.9 -111.1,15.4 -318.5,-307 -318.5,-307 l -339.1,142.4 c 0,0 -59,-290.5 -65.1,-700.8" /><path
         id="path168"
         style="fill:#000000;fill-opacity:1;fill-rule:nonzero;stroke:none"
         d="m 12684.6,5658.7 h 0.2 z m 82,669.6 c -14.3,-80.8 -54.8,-337 -59.8,-669.9 -1,-70 47.6,-132.4 115.7,-148.2 261.7,-60.9 889.5,-205.5 1065.8,-231.7 229.2,-34.1 497.3,37.3 610.5,162.6 14.1,15.6 19.3,35.1 15.9,59.4 -19.8,142 -314.2,380 -467.3,475.8 -139.5,87.3 -272.8,213.7 -390.4,325.3 -105,99.6 -204.2,193.7 -252.8,200.4 -70.4,9.9 -219.4,-176.9 -296.7,-296.9 -5.9,-9.1 -17.4,-12.7 -27.3,-8.5 z m 1238,-1102.7 c -41.5,0 -82.8,2.9 -122.9,8.8 -177.9,26.5 -807.1,171.4 -1069.3,232.4 -88.3,20.6 -151.4,101.4 -150.1,192.3 6.1,407.6 65,701.9 65.6,704.9 1.3,6.5 5.5,12.1 11.4,15.2 5.9,3.1 12.9,3.4 19.1,0.8 l 321.9,-135.2 c 52.5,79.4 219.7,316.6 330,301.4 62.8,-8.7 152.8,-94.1 277.4,-212.3 116.1,-110.1 247.6,-234.9 383.3,-319.8 149.1,-93.3 464.5,-340 487.8,-507.4 5.3,-37.7 -3.8,-69.8 -27,-95.5 -101.9,-112.8 -317.7,-185.6 -527.2,-185.6" /><path
         id="path170"
         style="fill:#000000;fill-opacity:1;fill-rule:nonzero;stroke:none"
         d="m 13999.8,5382.3 c -495.4,0 -1161.5,269.1 -1199.1,284.5 -11.4,4.6 -16.9,17.6 -12.2,29 4.6,11.4 17.7,16.8 29,12.2 12.2,-5 1219.6,-492.9 1575,-171.9 9.2,8.2 23.3,7.5 31.5,-1.6 8.2,-9.1 7.5,-23.2 -1.6,-31.5 -97.3,-87.9 -249.6,-120.7 -422.6,-120.7" /><path
         id="path172"
         style="fill:#000000;fill-opacity:1;fill-rule:nonzero;stroke:none"
         d="m 13471.4,5900.5 c -6,0 -12.1,2.5 -16.5,7.3 -8.2,9.2 -7.5,23.2 1.6,31.5 L 13699,6158 c 9.1,8.2 23.2,7.5 31.4,-1.6 8.3,-9.1 7.6,-23.2 -1.6,-31.5 l -242.5,-218.7 c -4.2,-3.8 -9.5,-5.7 -14.9,-5.7" /><path
         id="path174"
         style="fill:#000000;fill-opacity:1;fill-rule:nonzero;stroke:none"
         d="m 10758.8,12571 c 0,0 -147.7,-2673.1 -225,-3595.9 -77.3,-922.8 180.8,-2406.1 180.8,-2406.1 l 735.9,38.7 c 0,0 50.4,1803.5 105.1,2304.3 0,0 310.8,679 402.9,1284.5 92.1,605.6 406,1562 406,1562 0,0 254.8,-4773.9 279.4,-5148.9 0,0 577,-25.7 783.9,104.4 0,0 366.6,1740.7 313.9,2687.8 -52.6,947.1 5.2,3300.2 5.2,3300.2 l -2988.1,-131" /><path
         id="path176"
         style="fill:#ffffff;fill-opacity:1;fill-rule:nonzero;stroke:none"
         d="m 11420.1,8889.9 h -225 c -12.3,0 -22.3,10 -22.3,22.3 0,12.3 10,22.3 22.3,22.3 h 225 c 12.3,0 22.2,-10 22.2,-22.3 0,-12.3 -9.9,-22.3 -22.2,-22.3" /><path
         id="path178"
         style="fill:#ffffff;fill-opacity:1;fill-rule:nonzero;stroke:none"
         d="m 13022.4,7501.5 c -0.2,0 -0.3,0 -0.5,0 -12.2,0.2 -22,10.4 -21.8,22.7 8.1,441.1 492.4,1232.3 513,1265.7 6.4,10.5 20.2,13.8 30.6,7.3 10.5,-6.4 13.8,-20.2 7.3,-30.6 -5,-8.1 -498.5,-814.3 -506.4,-1243.2 -0.2,-12.2 -10.1,-21.9 -22.2,-21.9" /><g
         transform="scale(1.11205)"
         id="g180"><path
           id="path182"
           style="fill:#ffffff;fill-opacity:1;fill-rule:nonzero;stroke:none"
           d="m 12571.2,15148.8 c 48.2,3.8 284.7,-480.5 1024.6,-460.2 740,20.3 1333.7,848.3 1333.7,848.3 0,0 255.6,431 449.5,586.8 194,155.7 224.4,176.3 224.4,176.3 0,0 60.8,-81 0,-176.3 -60.8,-95.4 -228.7,-273.7 -228.7,-273.7 0,0 185,-101.6 101.5,-313.1 -95.9,-243.2 -366.2,-223.6 -366.2,-223.6 0,0 -548.7,-2429.1 -2816.1,-1274.8 l 277.3,1110.3" /></g><g
         transform="scale(1.11359)"
         id="g184"><path
           id="path186"
           style="fill:#000000;fill-opacity:1;fill-rule:nonzero;stroke:none"
           d="m 12300.2,14029.7 c 664.3,-334.8 1243.3,-390.9 1721.3,-166.7 800.5,375.7 1045.7,1423 1048.1,1433.5 2.2,9.6 11.1,16.2 20.9,15.5 10.4,-0.7 256.7,-15.2 345.8,210.8 75.6,191.8 -85.6,283.9 -92.5,287.8 -5.4,3 -9.1,8.3 -10.1,14.4 -0.9,6.1 1,12.3 5.2,16.8 1.6,1.7 167,177.8 226,270.3 37.1,58.1 22.8,110 10.7,135.9 -24.6,-18.6 -81.2,-62.5 -205.3,-162.2 -188.6,-151.6 -441.7,-576.3 -444.2,-580.5 -6.9,-9.8 -608.1,-836.7 -1348.4,-857 -15.7,-0.4 -31,-0.6 -46.2,-0.6 -563.3,0 -823.1,289.7 -935.7,415.4 -10.4,11.5 -21,23.3 -29.5,32 z m 1099.6,-341.4 c -343.9,0 -722.4,104.4 -1132,312.9 -8.3,4.3 -12.5,13.7 -10.3,22.7 l 277,1108.8 c 2,8.4 9.2,14.4 17.8,15.1 19.9,1.5 35.5,-15.9 73.2,-58 112,-124.9 374.1,-417.4 951,-401.5 720.7,19.8 1310.3,830.6 1316.1,838.8 9.6,16.3 258.4,433.8 452.7,589.9 192.1,154.3 224,176.2 225.3,177 8.9,6 20.8,4 27.2,-4.5 2.9,-3.8 68.2,-93.2 0.9,-198.9 -50.6,-79.3 -171,-211.8 -214.7,-259.1 48.7,-36.4 160.4,-143.6 89.4,-323.4 -85.6,-217.3 -305.7,-235.6 -368.7,-236.3 -34.5,-134.6 -302.6,-1086.5 -1066,-1444.9 -196.9,-92.4 -410.3,-138.6 -638.9,-138.6" /></g><g
         transform="scale(1.10366)"
         id="g188"><path
           id="path190"
           style="fill:#ffffff;fill-opacity:1;fill-rule:nonzero;stroke:none"
           d="m 8971.44,14145.2 c 0,0 223.71,1444.1 1014.26,1799.5 790.5,355.3 1859.9,305.9 2154.8,128.4 294.9,-177.4 1063.6,-979.7 1063.6,-979.7 l -679.3,-948.2 c 0,0 155.3,-2552.6 32.5,-3226.5 0,0 -755.5,-88.1 -1076,38.1 -320.5,126.2 -1374.3,303 -1877.96,71.6 l 91.51,3231.8 -723.41,-115" /></g><g
         transform="scale(1.10456)"
         id="g192"><path
           id="path194"
           style="fill:#000000;fill-opacity:1;fill-rule:nonzero;stroke:none"
           d="m 10279.7,11152.5 c 477.4,0 992.9,-104.4 1199.6,-185.8 287.4,-113.2 943.3,-49.8 1050.6,-38.4 116,685.1 -33.8,3178.9 -35.4,3204.2 -0.2,4.6 1.1,9.2 3.7,12.9 l 669,933.9 c -97.3,100.8 -777.6,801.4 -1046.9,963.5 -277.3,166.9 -1344.2,225.8 -2134.47,-129.5 C 9274.5,15593.6 9024.9,14358.4 8988.8,14158 l 695.01,110.5 c 6.06,0.9 12.04,-0.8 16.47,-4.8 4.53,-3.9 7.07,-9.7 6.89,-15.7 l -90.54,-3197.3 c 178.53,73.7 415.77,101.8 663.07,101.8 z m 1734.6,-293.1 c -200.5,0 -412.6,15.7 -549.8,69.8 -315.2,124.1 -1357.5,303.1 -1860.54,72 -6.34,-2.9 -13.67,-2.4 -19.56,1.5 -5.79,3.8 -9.23,10.4 -9.05,17.4 l 90.8,3204.8 -698.84,-111.1 c -6.35,-1 -12.83,1 -17.39,5.6 -4.56,4.5 -6.68,11 -5.7,17.4 9.2,59.3 234.32,1457.9 1025.04,1813.3 778.44,349.9 1854.14,318.4 2171.84,127.3 293.5,-176.7 1035.3,-949.5 1066.8,-982.3 6.7,-7 7.5,-17.8 1.8,-25.7 l -674.5,-941.7 c 8.9,-150.4 150.3,-2571 31.8,-3221.5 -1.6,-8.7 -8.7,-15.3 -17.5,-16.4 -17.9,-2.1 -266,-30.4 -535.2,-30.4" /></g><path
         id="path196"
         style="fill:#000000;fill-opacity:1;fill-rule:nonzero;stroke:none"
         d="m 11365.1,12884.4 c -10.6,0 -20,7.6 -21.9,18.4 -2.1,12.1 6,23.7 18.1,25.8 1326,234.4 1713.1,1152.5 1716.8,1161.7 4.7,11.4 17.6,16.9 29,12.3 11.4,-4.6 16.9,-17.6 12.3,-29 -3.8,-9.5 -399,-950 -1750.4,-1188.8 -1.3,-0.3 -2.6,-0.4 -3.9,-0.4" /><g
         transform="scale(1.00575)"
         id="g198"><path
           id="path200"
           style="fill:#000000;fill-opacity:1;fill-rule:nonzero;stroke:none"
           d="m 13681.3,14414.5 h -1688 l 528.8,1885.5 H 14210 l -528.7,-1885.5" /></g><path
         id="path202"
         style="fill:#ffffff;fill-opacity:1;fill-rule:nonzero;stroke:none"
         d="m 10051.1,15605.3 859.2,384.1 c 0,0 -121,-1455.8 1617.3,-783.6 0,0 -64.1,187.1 -55,405.6 9,218.6 139.8,7.1 158.1,-170.5 18.3,-177.6 426.4,-105.5 671.7,-35.5 245.2,70 567.2,24.1 0,-288.7 -567.2,-312.9 -691.5,-173.3 -691.5,-173.3 0,0 -724.4,-1013.6 -1625.6,-798.3 -1108.5,264.9 -934.2,1460.2 -934.2,1460.2" /><path
         id="path204"
         style="fill:#000000;fill-opacity:1;fill-rule:nonzero;stroke:none"
         d="m 10071.6,15590.1 c -6.6,-58.7 -29.7,-324 52.7,-610.9 124,-431.4 415.4,-704.7 866.2,-812.4 83.8,-20 166.3,-29.1 246.8,-29.1 760.8,-0.1 1349,809.6 1355.5,818.6 3.9,5.5 10.1,8.9 16.9,9.3 7,0.4 13.3,-2.4 17.8,-7.4 0.8,-0.7 128.2,-117.6 664.1,178 320.8,177 305.9,240.7 303.2,247.4 -13.7,33.3 -144.5,40.8 -286.3,0.4 -115,-32.8 -501.4,-132.4 -645.4,-34.9 -32.4,21.9 -50.7,52 -54.6,89.5 -13.3,129.1 -78.7,239.9 -100.5,243.7 0.4,-0.9 -10.7,-12.7 -13.2,-71.8 -8.8,-211.5 53.3,-395.6 53.9,-397.5 3.8,-11.3 -1.9,-23.6 -13.1,-27.9 -594,-229.8 -1039.2,-238.5 -1323.3,-25.9 -315.3,235.9 -329.4,665.8 -326,795.1 z m 1165.2,-1496.9 c -83.7,0 -169.3,9.4 -256.7,30.3 -583,139.3 -810.7,536.3 -899,844.9 -95.23,332.7 -53.9,627.7 -52.1,640.1 1.1,7.6 6,14 13,17.1 l 859.2,384.1 c 7.2,3.2 15.5,2.4 22,-2.1 6.4,-4.6 9.9,-12.2 9.3,-20.1 -0.5,-5.3 -39.7,-533.8 306.7,-792.8 267.9,-200.3 692.1,-192.1 1260.9,24.4 -16.4,55 -57.3,212.5 -49.8,393.3 1.2,27.9 4.7,112.8 56.4,114.4 0.4,0 0.8,0 1.2,0 67.2,0 133.1,-168.7 144.9,-283.6 2.5,-24.1 14,-42.8 35.2,-57.2 101.9,-68.9 391.3,-21.1 608.2,40.8 113.8,32.5 306.7,54.1 339.8,-26.2 28.3,-68.7 -77.3,-168 -322.9,-303.4 -464.7,-256.4 -641.4,-216.1 -697.6,-184.7 -93.3,-121.9 -659.3,-819.3 -1378.7,-819.3" /><g
         transform="scale(1.21639)"
         id="g206"><path
           id="path208"
           style="fill:#000000;fill-opacity:1;fill-rule:nonzero;stroke:none"
           d="m 10148.5,15064.2 c -61,-55.9 -180.29,-124.1 -273.68,-77.1 -69.47,35 -108.27,125.7 -105.89,229.6 -32.23,-2.6 -74.4,-0.4 -104.49,26.3 -46.37,40.9 -37.73,116.3 -35.84,165.8 8.3,228.7 -124.47,263.8 -92,418.9 25.57,122 121.35,194.6 139.27,208.2 90.43,68.6 151.68,46.5 303.68,86.3 255.85,67 263.95,177.3 432.55,177.8 9.7,0 239.1,-2.5 317,-161 63.3,-128.9 -10.6,-285.5 -87.1,-367.8 -99.1,-106.6 -170.2,-54 -269.5,-143.3 -174.4,-157 -42.7,-397.8 -224,-563.7" /></g><g
         transform="scale(1.19549)"
         id="g210"><path
           id="path212"
           style="fill:#ffffff;fill-opacity:1;fill-rule:nonzero;stroke:none"
           d="m 10845.3,15742.6 -10.2,8.9 c -51.5,44.4 -105.1,95.9 -118.8,162.5 -58.1,283.2 -317.5,386 -329.5,126 -3,-65.6 -242.6,-62.2 -214.1,-131.1 74.1,-179.6 75.7,-131.3 -28.9,-197.4 -11.9,-0.5 -23.7,-3.1 -34.7,-8.3 -53.7,-25 -72.7,-97.8 -42.5,-162.7 18.4,-39.4 50.7,-66.4 85.2,-76.3 v -283.7 c 0,-106.3 -64.3,-202.1 -162.75,-242.4 l -95.78,-39.1 c 0,0 446.63,-291.6 900.03,28.5 l -60.5,27.2 c -106.6,47.8 -176.5,152.2 -180.2,268.9 l -0.5,55.5 c 30.5,-2.7 60,-0.7 87.3,7.3 126.8,36.9 168.9,183 147.3,364.6 l 51.7,27.7 c 24.1,13 27.7,46.1 6.9,63.9" /></g><g
         transform="scale(1.18925)"
         id="g214"><path
           id="path216"
           style="fill:#000000;fill-opacity:1;fill-rule:nonzero;stroke:none"
           d="m 9987.97,14974.4 c 107.13,-56.1 462.43,-207.2 823.73,28.1 l -30.3,13.5 c -112.8,50.7 -188.3,163.3 -192.1,286.9 l -0.5,56.2 c -0.1,5.2 2.1,10.3 5.9,13.9 3.9,3.6 9.1,5.3 14.4,4.9 29.4,-2.6 56.7,-0.4 80.9,6.6 108.1,31.5 157.2,157.7 134.7,346.4 -0.8,7.6 3,15.1 9.8,18.7 l 51.9,27.9 c 6,3.2 9.9,9 10.6,15.8 0.8,6.8 -1.7,13.3 -7,17.7 0,0 0,0 0,0 l -10.3,8.9 c -52.8,45.6 -110.4,100.3 -125.5,173.8 -33.7,164.1 -138.3,267.8 -214.7,261.8 -46.8,-3.7 -75.8,-51.9 -79.5,-132.2 -2.1,-45.1 -62.2,-62 -125.8,-79.8 -35.5,-10 -84.2,-23.6 -91.4,-38.2 -0.4,-0.8 -1,-2.2 0.5,-5.8 10.7,-26.1 20,-47.3 27.6,-64.8 35.2,-81.1 42.5,-98 -18.9,-130.8 -11.9,-6.4 -26.9,-14.4 -45,-25.8 -2.8,-1.8 -6,-2.8 -9.2,-2.9 -10,-0.4 -19.4,-2.7 -27.8,-6.6 -44.5,-20.7 -59.6,-82.9 -33.6,-138.7 15.4,-32.9 43,-57.8 73.8,-66.6 8,-2.3 13.5,-9.6 13.5,-18 v -285.2 c 0,-115 -68.7,-217.4 -175.2,-260.9 z m 401.13,-137.1 c -259.4,0 -451.25,122.2 -454.19,124.2 -5.8,3.8 -9.08,10.5 -8.41,17.4 0.67,6.9 5.13,12.9 11.52,15.6 l 96.38,39.3 c 92.2,37.8 151.9,126.6 151.9,226.3 v 271.9 c -35.8,14.4 -65.9,43.6 -83.8,82.1 -34.7,74.5 -11.5,159 51.7,188.5 11.4,5.3 23.8,8.5 36.8,9.7 17.4,10.8 31.7,18.4 43.3,24.6 13.3,7.1 25.9,13.8 26.2,17.2 0.8,8.5 -9.6,32.5 -24,65.7 -7.6,17.6 -17,39.1 -27.8,65.4 -5.2,12.6 -5,25.2 0.5,36.5 14.5,29.7 61,42.7 114.9,57.8 38.9,11 97.7,27.4 98.5,45.5 6.7,143.9 81.9,165.3 114,167.8 92.1,7.2 215.4,-102.2 254.3,-291.5 12.7,-62 65.2,-111.5 113.3,-153 l 10.3,-8.9 c 14.5,-12.5 21.9,-31.2 19.8,-50.2 -2.1,-19 -13.4,-35.7 -30.2,-44.7 l -40.8,-21.9 c 20.9,-201.7 -38.1,-337.7 -162.9,-374 -22.8,-6.7 -47.8,-9.7 -74,-9.2 l 0.3,-35.8 c 3.4,-109 70.2,-208.6 170,-253.4 l 60.9,-27.3 c 6.1,-2.7 10.3,-8.6 10.9,-15.3 0.7,-6.7 -2.2,-13.2 -7.8,-17.1 -164.1,-115.8 -328.2,-153.2 -471.6,-153.2" /></g><g
         transform="scale(1.13422)"
         id="g218"><path
           id="path220"
           style="fill:#000000;fill-opacity:1;fill-rule:nonzero;stroke:none"
           d="m 11122.2,16084.8 c -1.1,0 -2.1,0 -3,0.2 -192.8,29.5 -279.3,176.6 -282.9,182.8 -5.4,9.4 -2.2,21.4 7.3,26.8 9.3,5.4 21.3,2.2 26.8,-7.2 0.8,-1.4 81.2,-137 254.7,-163.6 10.7,-1.6 18,-11.6 16.4,-22.4 -1.4,-9.7 -9.8,-16.6 -19.3,-16.6" /></g><path
         id="path222"
         style="fill:#000000;fill-opacity:1;fill-rule:nonzero;stroke:none"
         d="m 5374.13,15685.9 c -20.72,0 -41.75,-3.9 -62.12,-12.1 -85.17,-34.4 -126.49,-131.6 -92.12,-216.8 16.66,-41.3 48.39,-73.6 89.35,-91.1 40.95,-17.4 86.23,-17.8 127.49,-1.1 85.18,34.3 126.5,131.6 92.13,216.8 -26.17,64.9 -88.77,104.3 -154.73,104.3 z m 0.25,-377.9 c -28.02,0 -56.01,5.7 -82.57,17 -51.91,22 -92.11,63 -113.22,115.3 -43.58,108 8.81,231.3 116.76,274.8 107.95,43.6 231.25,-8.8 274.81,-116.8 43.57,-108 -8.81,-231.3 -116.77,-274.8 -25.52,-10.3 -52.28,-15.5 -79.01,-15.5" /><g
         transform="scale(1.29244)"
         id="g224"><path
           id="path226"
           style="fill:#000000;fill-opacity:1;fill-rule:nonzero;stroke:none"
           d="m 16200.3,11481.8 c -4.4,0 -8.6,1.6 -11.9,4.8 -6.9,6.5 -7.2,17.4 -0.6,24.3 l 80.8,84.4 c 6.5,6.9 17.5,7.2 24.3,0.6 6.9,-6.6 7.1,-17.5 0.5,-24.4 l -80.7,-84.4 c -3.4,-3.6 -7.9,-5.3 -12.4,-5.3" /></g><g
         transform="scale(1.27003)"
         id="g228"><path
           id="path230"
           style="fill:#000000;fill-opacity:1;fill-rule:nonzero;stroke:none"
           d="m 16198.5,11383.7 c -4.4,0 -8.7,1.6 -12.1,4.9 -7,6.7 -7.3,17.8 -0.6,24.8 l 82.2,85.8 c 6.6,7.1 17.8,7.3 24.8,0.6 7,-6.7 7.2,-17.8 0.5,-24.7 l -82.1,-85.9 c -3.5,-3.6 -8.1,-5.5 -12.7,-5.5" /></g><g
         transform="scale(1.26991)"
         id="g232"><path
           id="path234"
           style="fill:#000000;fill-opacity:1;fill-rule:nonzero;stroke:none"
           d="m 16280.7,11680.9 c -4.5,0 -8.9,1.7 -12.4,5.1 l -83.3,82.2 c -7,6.7 -7.1,17.9 -0.3,24.8 6.9,6.8 18,7 24.8,0.1 l 83.5,-82.2 c 6.9,-6.7 7,-17.8 0.2,-24.8 -3.4,-3.4 -8,-5.2 -12.5,-5.2" /></g><g
         transform="scale(1.29266)"
         id="g236"><path
           id="path238"
           style="fill:#000000;fill-opacity:1;fill-rule:nonzero;stroke:none"
           d="m 16281,11192.6 c -4.4,0 -8.7,1.6 -12,5 l -82,80.7 c -6.8,6.8 -6.9,17.7 -0.2,24.4 6.7,6.8 17.6,6.9 24.4,0.2 l 81.9,-80.8 c 6.8,-6.7 6.9,-17.6 0.2,-24.4 -3.4,-3.4 -7.8,-5.1 -12.3,-5.1" /></g><g
         transform="scale(1.31067)"
         id="g240"><path
           id="path242"
           style="fill:#000000;fill-opacity:1;fill-rule:nonzero;stroke:none"
           d="m 10205,16181 c -4.2,0 -8.4,1.6 -11.7,4.7 -6.8,6.5 -7,17.3 -0.6,24 l 79.7,83.3 c 6.5,6.8 17.2,7 24,0.5 6.7,-6.5 7,-17.2 0.5,-24 l -79.6,-83.3 c -3.3,-3.4 -7.9,-5.2 -12.3,-5.2" /></g><g
         transform="scale(1.28724)"
         id="g244"><path
           id="path246"
           style="fill:#000000;fill-opacity:1;fill-rule:nonzero;stroke:none"
           d="m 10106.9,16178.8 c -4.3,0 -8.6,1.6 -11.9,4.8 -6.9,6.6 -7.2,17.6 -0.6,24.5 l 81.1,84.8 c 6.6,6.9 17.5,7.1 24.4,0.5 7,-6.6 7.2,-17.6 0.6,-24.5 l -81,-84.7 c -3.5,-3.6 -8,-5.4 -12.6,-5.4" /></g><g
         transform="scale(1.31002)"
         id="g248"><path
           id="path250"
           style="fill:#000000;fill-opacity:1;fill-rule:nonzero;stroke:none"
           d="m 10009.4,16184.6 c -4.3,0 -8.6,1.6 -11.96,4.9 l -80.85,79.7 c -6.71,6.6 -6.79,17.3 -0.22,24 6.64,6.7 17.4,6.8 24.04,0.2 l 80.89,-79.7 c 6.7,-6.6 6.8,-17.3 0.2,-24 -3.3,-3.4 -7.7,-5.1 -12.1,-5.1" /></g><g
         transform="scale(1.2876)"
         id="g252"><path
           id="path254"
           style="fill:#000000;fill-opacity:1;fill-rule:nonzero;stroke:none"
           d="m 10471.7,16182.6 c -4.4,0 -8.8,1.6 -12.1,5 l -82.4,81.1 c -6.8,6.7 -6.9,17.6 -0.1,24.4 6.7,6.8 17.6,6.9 24.5,0.2 l 82.2,-81.1 c 6.8,-6.7 6.9,-17.7 0.2,-24.5 -3.4,-3.4 -7.8,-5.1 -12.3,-5.1" /></g><path
         id="path256"
         style="fill:#ffffff;fill-opacity:1;fill-rule:nonzero;stroke:none"
         d="m 10164.4,7215.4 -338.17,-3463 -241.34,10.1 119.9,3640.5 459.61,-187.6" /><path
         id="path258"
         style="fill:#000000;fill-opacity:1;fill-rule:nonzero;stroke:none"
         d="m 9607.88,3783.8 198.24,-8.3 334.48,3425.5 -414.6,169.3 z m 218.36,-53.7 c -0.31,0 -0.63,0 -0.94,0 l -241.35,10.2 c -12.21,0.5 -21.72,10.7 -21.32,22.9 l 119.9,3640.6 c 0.24,7.2 4.03,13.9 10.15,17.9 6.13,4 13.79,4.7 20.53,1.9 L 10172.8,7236 c 9.2,-3.7 14.7,-13 13.8,-22.8 l -338.2,-3463 c -1.11,-11.4 -10.75,-20.1 -22.16,-20.1" /><path
         id="path260"
         style="fill:#ffffff;fill-opacity:1;fill-rule:nonzero;stroke:none"
         d="m 5628.05,7340 330.04,-3596.3 249.49,18.8 -119.9,3771.9 -459.63,-194.4" /><path
         id="path262"
         style="fill:#000000;fill-opacity:1;fill-rule:nonzero;stroke:none"
         d="m 5651.7,7325.8 326.56,-3558.2 206.39,15.5 -118.2,3718.1 z m 306.36,-3604.3 c -11.4,0 -21.1,8.7 -22.15,20.2 l -330.04,3596.2 c -0.9,9.7 4.56,18.8 13.49,22.6 l 459.63,194.4 c 6.78,2.9 14.52,2.2 20.69,-1.8 6.18,-3.9 10.03,-10.7 10.25,-18 l 119.91,-3771.9 c 0.38,-11.9 -8.69,-22 -20.59,-22.9 l -249.5,-18.8 c -0.57,0 -1.14,0 -1.69,0" /><path
         id="path264"
         style="fill:#ffffff;fill-opacity:1;fill-rule:nonzero;stroke:none"
         d="m 4479.19,8186.2 97.08,-3776.3 194.85,42.2 178.66,3913.7 -470.59,-179.6" /><path
         id="path266"
         style="fill:#000000;fill-opacity:1;fill-rule:nonzero;stroke:none"
         d="m 4501.86,8171 95.99,-3733.6 151.81,32.9 176.34,3862.5 z m 74.41,-3783.4 c -4.94,0 -9.79,1.7 -13.75,4.8 -5.22,4.1 -8.34,10.3 -8.51,16.9 l -97.08,3776.3 c -0.25,9.5 5.49,18 14.32,21.4 l 470.61,179.6 c 6.97,2.6 14.9,1.6 20.98,-2.8 6.08,-4.4 9.54,-11.6 9.2,-19.1 L 4793.37,4451.1 c -0.46,-10.1 -7.65,-18.6 -17.53,-20.7 L 4581,4388.1 c -1.57,-0.3 -3.15,-0.5 -4.73,-0.5" /><path
         id="path268"
         style="fill:#ffffff;fill-opacity:1;fill-rule:nonzero;stroke:none"
         d="m 8286.15,8270.6 97.09,-3776.2 202.43,-1.1 171.08,3956.9 -470.6,-179.6" /><path
         id="path270"
         style="fill:#ffffff;fill-opacity:1;fill-rule:nonzero;stroke:none"
         d="m 7308.01,11219.9 v -878.7 c 0,-859.3 677.76,-1556 1513.8,-1556 836.05,0 1513.79,-696.6 1513.79,-1555.9 0,-76.6 -61.9,-138.7 -138.4,-138.7 H 6190.1 c -1253.34,0 -2269.38,1044.4 -2269.38,2332.6 v 1874.9 c 0,512.3 404.11,927.7 902.61,927.7 h 1506.01 c 540.51,0 978.67,-450.4 978.67,-1005.9" /><path
         id="path272"
         style="fill:#000000;fill-opacity:1;fill-rule:nonzero;stroke:none"
         d="m 4823.33,12203.5 c -485.42,0 -880.34,-406.2 -880.34,-905.4 V 9423.2 c 0,-1273.9 1008.05,-2310.3 2247.11,-2310.3 h 4007.1 c 64,0 116.1,52.2 116.1,116.4 0,845.7 -669.06,1533.7 -1491.48,1533.7 -847,0 -1536.07,708 -1536.07,1578.2 v 878.7 c 0,542.4 -429.05,983.6 -956.41,983.6 z M 10197.2,7068.4 H 6190.1 c -1263.63,0 -2291.65,1056.4 -2291.65,2354.8 v 1874.9 c 0,523.8 414.9,950 924.88,950 h 1506.01 c 551.92,0 1000.95,-461.3 1000.95,-1028.2 v -878.7 c 0,-845.7 669.09,-1533.7 1491.53,-1533.7 846.98,0 1536.08,-708 1536.08,-1578.2 0,-88.7 -72.1,-160.9 -160.7,-160.9" /><path
         id="path274"
         style="fill:#000000;fill-opacity:1;fill-rule:nonzero;stroke:none"
         d="m 3532.61,12859.3 c -61.44,25.4 -115.51,69.7 -149.55,130.4 -50.37,89.9 -77.34,233.8 35.89,439.4 255.73,464.4 682.81,244.8 846.22,298.6 366.14,120.6 279.53,318.5 428.25,510.8 111.26,143.9 495.56,415.4 1079.27,-90.3 0,0 262.15,-357.8 559.23,-221.6 364.98,167.2 1098.44,-211.2 866.67,-773.7 -66.84,-162.2 -187.22,-286.9 -333.86,-354.6 -26.59,-12.2 -55.69,-24.1 -87.32,-35 -91.5,-31.5 -162.16,-113 -185.08,-218.3 -74.63,-342.5 -357.11,-1003.8 -1405.47,-338.4 -79.06,50.2 -172.92,56.6 -254.65,18.6 -100.46,-46.7 -209.49,-227.5 -694.11,-151.2 -311.28,49.1 -410.18,411.4 -492.37,576.2 -65.45,131.3 -159.45,186.9 -213.12,209.1" /><path
         id="path276"
         style="fill:#ffffff;fill-opacity:1;fill-rule:nonzero;stroke:none"
         d="m 8923.47,10331 c -412.27,-128.9 -1202.12,228.9 -1336.8,828.8 -106.81,475.8 -273.71,717.2 -338.29,796.8 -30.86,52.7 -71.46,102.2 -125.15,149.4 -384.02,337.5 -1049.09,228.2 -1336.93,180.9 -326.48,-53.6 -596.95,-98.1 -780.92,-305.2 -48.86,-55 -83.49,-112.6 -107.28,-173.9 l -0.03,0.2 c -351.42,-661.7 -66.58,-1344.9 109.07,-1660.5 C 5036.12,8882 4617.69,9080.9 4730.92,8519 c 159.54,-791.5 1434.28,-495.6 1897.99,-394.5 162.68,35.4 1014.52,-217.5 1222.74,439.7 121.51,383.5 -109.42,560.6 -313.31,1213.1 1044.48,-649.2 1820.33,457.8 1820.33,457.8 l 80.46,388.1 c 0,0 -210.73,-196.8 -515.66,-292.2" /><path
         id="path278"
         style="fill:#000000;fill-opacity:1;fill-rule:nonzero;stroke:none"
         d="m 8923.47,10331 h 0.22 z m -4006.96,1464.2 c -339.45,-641.9 -76.85,-1301 110.1,-1636.9 1.75,-3.1 2.72,-6.7 2.79,-10.3 16.51,-720.7 -111.65,-971.5 -205.21,-1154.6 -71.75,-140.4 -119.15,-233.2 -71.43,-470 32.23,-159.9 114.6,-284.1 244.84,-369.1 417.64,-272.6 1214.53,-98.2 1597.49,-14.4 l 29.08,6.3 c 37.8,8.3 101.92,2.9 190.7,-4.5 320.53,-26.7 856.92,-71.5 1015.55,429.2 76.86,242.6 7.85,400.4 -106.46,661.8 -60.51,138.4 -135.82,310.5 -206.87,537.9 -2.77,8.9 0.27,18.6 7.62,24.3 7.37,5.7 17.49,6.2 25.39,1.3 425.05,-264.2 854.85,-269.3 1277.38,-15.1 297.24,178.8 486.22,430.1 510.34,463.2 l 66.36,320.1 c -80.42,-64.1 -251.64,-185.1 -474.06,-254.6 -213.87,-66.9 -531.19,-6.7 -808.45,153.3 -293.08,169.2 -496.01,421.3 -556.73,691.9 -105.34,469.2 -268.57,707.1 -333.86,787.6 -0.71,0.9 -1.35,1.8 -1.92,2.8 -30.69,52.4 -70.16,99.5 -120.63,143.8 -376.09,330.6 -1036.55,222.1 -1318.57,175.8 -329.21,-54.1 -589.21,-96.9 -767.93,-298.1 -45.76,-51.5 -79.5,-106.2 -103.18,-167.2 -0.61,-1.6 -1.4,-3.1 -2.34,-4.5 z m 718.48,-3832.1 c -247.07,-0.1 -485.49,38.9 -661.74,153.9 -140.61,91.8 -229.49,225.6 -264.16,397.6 -50.79,252 2.16,355.7 75.43,499.1 91.18,178.4 215.97,422.6 200.48,1127.8 -191.34,345.6 -456.07,1018.5 -106.77,1676.6 25.57,65.1 61.73,123.5 110.51,178.4 189.2,213 469.44,259.1 793.95,312.4 288.31,47.4 963.34,158.3 1355.24,-186.2 53.65,-47.1 95.79,-97.3 128.81,-153.4 67.96,-84.2 234.83,-328.7 341.65,-804.6 58.02,-258.4 253.21,-500.1 535.55,-663 266.99,-154.1 570.38,-212.7 772.89,-149.4 296.18,92.6 505.02,285.2 507.1,287.2 7.11,6.6 17.68,7.9 26.11,3.1 8.45,-4.7 12.86,-14.4 10.89,-23.9 l -80.46,-388.1 c -0.61,-3 -1.83,-5.8 -3.57,-8.2 -1.97,-2.9 -200.43,-282.9 -525.23,-478.7 -292.06,-176.1 -746.68,-317.6 -1274.13,-15.7 64.93,-197.8 132.23,-351.7 187.22,-477.5 114.43,-261.6 190.03,-434.5 108.12,-693 -169.36,-534.6 -749.85,-486.2 -1061.71,-460.2 -78.46,6.6 -146.2,12.2 -177.52,5.4 l -29.05,-6.4 c -230.69,-50.4 -609.33,-133.2 -969.61,-133.2" /><path
         id="path280"
         style="fill:#ffffff;fill-opacity:1;fill-rule:nonzero;stroke:none"
         d="m 7100.95,10434.5 c 0,0 752.1,274.1 986.92,775.4 L 8572,11661 c 0,0 -6.85,-218.1 -150.6,-309.1 0,0 123.39,-248.5 -58.69,-420 0,0 -136.57,-108.6 -217.97,-110.6 0,0 -238.42,-783.1 -882.11,-1016.3 0,0 -180.77,274.8 -161.68,629.5" /><path
         id="path282"
         style="fill:#000000;fill-opacity:1;fill-rule:nonzero;stroke:none"
         d="m 7122.52,10418.8 c -11.11,-290.2 114.18,-526 149.57,-586.5 613.25,234.4 849.02,987.9 851.35,995.5 2.79,9.2 11.16,15.6 20.75,15.8 60.65,1.5 168.3,76.8 204.66,105.7 166.23,156.7 57.31,383.2 52.59,392.7 -5.04,10.2 -1.58,22.6 8.04,28.7 87.82,55.6 120.82,164.8 133.11,232.5 l -436.41,-406.7 c -222.93,-469.6 -876.46,-736.6 -983.66,-777.7 z m 140.12,-636 c -7.33,0 -14.4,3.6 -18.61,10 -7.55,11.5 -184.58,285 -165.32,642.9 0.47,8.9 6.23,16.6 14.6,19.7 7.44,2.7 746.25,276.9 974.39,763.9 1.21,2.6 2.9,4.9 4.99,6.9 l 484.13,451.1 c 6.56,6.1 16.21,7.7 24.38,4 8.18,-3.7 13.34,-12 13.06,-21 -0.29,-9.1 -8.38,-215.4 -145.2,-316.4 24.83,-62.5 91.73,-274.9 -71.09,-428.2 -6.79,-5.5 -129.03,-102 -216.64,-115.2 -36.86,-108.5 -292.82,-799.7 -891.11,-1016.4 -2.48,-0.9 -5.05,-1.3 -7.58,-1.3" /><path
         id="path284"
         style="fill:#000000;fill-opacity:1;fill-rule:nonzero;stroke:none"
         d="m 6422.96,9556.2 c -626.68,0 -986.39,310.5 -991.21,314.8 -9.2,8.1 -10.04,22.2 -1.89,31.4 8.16,9.2 22.22,10 31.43,1.9 6.34,-5.6 646.48,-556.1 1711.87,-160.8 11.48,4.2 24.35,-1.6 28.62,-13.2 4.29,-11.5 -1.59,-24.3 -13.13,-28.6 -286.28,-106.2 -542.9,-145.5 -765.69,-145.5" /><path
         id="path286"
         style="fill:#000000;fill-opacity:1;fill-rule:nonzero;stroke:none"
         d="m 6807.65,10404.2 c -545.97,0 -863.86,310.9 -1037.99,585 -204.75,322.4 -259.27,665 -259.79,668.4 -1.87,12.2 6.46,23.5 18.62,25.4 12.32,1.9 23.53,-6.5 25.4,-18.6 0.52,-3.4 53.94,-337.9 254.1,-652.4 266.67,-419 653.88,-605.9 1150.79,-555.4 12.13,1.3 23.16,-7.6 24.42,-19.9 1.23,-12.2 -7.68,-23.1 -19.91,-24.4 -53.82,-5.5 -105.71,-8.1 -155.64,-8.1" /><path
         id="path288"
         style="fill:#000000;fill-opacity:1;fill-rule:nonzero;stroke:none"
         d="m 7231.09,10799.1 c -1.08,0 -2.16,0 -3.25,0.2 -12.18,1.8 -20.6,13.1 -18.82,25.3 98.23,671.3 -208.99,1051.2 -212.11,1055 -7.84,9.4 -6.54,23.5 2.91,31.3 9.46,7.9 23.48,6.6 31.34,-2.9 13.25,-15.9 323.21,-397.7 221.93,-1089.9 -1.62,-11.1 -11.14,-19 -22,-19" /><path
         id="path290"
         style="fill:#ffffff;fill-opacity:1;fill-rule:nonzero;stroke:none"
         d="m 7092.31,12685.8 c -20.88,139.8 12.58,510.9 6.46,501.9 -59.88,-87.9 -257.05,16.1 -434.61,23.1 -177.56,7 -117.8,-259.7 -117.8,-259.7 0,0 -51.99,180.9 -162.83,67.7 -64.31,-65.8 6.6,-150.6 72.64,-206.1 -18.14,-20.7 -338.02,-365.4 -533.89,-570.4 l 434.52,-329.8 217.54,203.2 -44.34,70.7 c -31.62,50.4 -34.45,113.6 -7.46,166.7 l 106.37,180.3 c 24.44,-29.6 55.27,-63.4 83.72,-83.2 56.66,-39.6 127.12,-33.4 177.1,14.3 68.55,65.4 116.48,138.9 138.22,210.3 l 64.36,11" /><path
         id="path292"
         style="fill:#000000;fill-opacity:1;fill-rule:nonzero;stroke:none"
         d="m 5955.6,12245 399.72,-303.4 190.38,177.8 -34.56,55.1 c -35.59,56.7 -38.82,129 -8.44,188.7 l 107.02,181.5 c 3.69,6.2 10.19,10.3 17.42,10.9 7.24,0.6 14.29,-2.5 18.92,-8 30.88,-37.3 57.56,-64 79.33,-79.2 47.81,-33.3 106.27,-28.6 148.96,12.2 65.65,62.7 111.39,132.1 132.29,200.7 2.46,8 9.25,14 17.56,15.4 l 43.43,7.4 c -10.57,105.9 0.13,297.4 6.09,403.6 0.64,11.5 1.28,22.8 1.82,33.1 -53.33,-22.8 -132.71,-4.6 -221.29,15.8 -62.97,14.5 -128.08,29.4 -190.97,31.9 -32.75,1.3 -57.29,-7.9 -74.24,-28.3 -43.14,-51.7 -29.75,-165 -20.95,-204.2 2.63,-11.8 -4.54,-23.5 -16.2,-26.5 -11.56,-3 -23.56,3.8 -26.93,15.4 -5.83,20.1 -30.07,79.4 -63.75,87.8 -17.47,4.4 -38.28,-5.5 -61.77,-29.5 -13.51,-13.8 -19.68,-28.7 -18.86,-45.6 1.71,-35.2 33.65,-80.6 89.93,-127.9 4.59,-3.8 7.42,-9.4 7.87,-15.4 0.46,-5.9 -1.52,-11.8 -5.48,-16.3 -16.76,-19.1 -316.4,-342.3 -517.3,-553 z m 401.21,-354.7 c -4.73,0 -9.48,1.5 -13.47,4.5 l -434.53,329.8 c -5.06,3.8 -8.23,9.6 -8.74,15.9 -0.51,6.4 1.72,12.6 6.1,17.2 178.97,187.3 450.46,479.4 518.25,553.2 -42.13,38.5 -85.71,90.9 -88.33,144.5 -1.44,29.5 9.17,56.1 31.51,78.9 35.4,36.2 70.54,50.2 104.56,41.6 16.4,-4.1 30.45,-13.2 42.34,-24.5 0.76,47.3 9.79,100.7 40.33,137.3 26.03,31.3 62.96,46.2 110.21,44.3 67.04,-2.6 137.25,-18.8 199.19,-33 100.18,-23 186.75,-42.9 216.15,0.2 5.65,8.3 16.34,11.9 25.78,8.7 17.5,-5.9 17.5,-5.9 12.03,-103.7 -6.3,-112.3 -17.99,-321.4 -3.85,-416.1 1.78,-12 -6.34,-23.3 -18.29,-25.3 l -51.09,-8.7 c -24.68,-71.5 -72.8,-142.7 -139.85,-206.7 -57.8,-55.2 -140.27,-61.8 -205.23,-16.5 -19.8,13.9 -42.47,35.1 -67.61,63.3 l -90.55,-153.5 c -22.63,-44.5 -20.16,-100 7.15,-143.5 l 44.33,-70.7 c 5.67,-9 4.14,-20.8 -3.66,-28.1 l -217.53,-203.1 c -4.27,-4 -9.72,-6 -15.2,-6" /><path
         id="path294"
         style="fill:#ffffff;fill-opacity:1;fill-rule:nonzero;stroke:none"
         d="m 6594.94,12580.8 33.97,-47.4 -33.97,47.4" /><path
         id="path296"
         style="fill:#000000;fill-opacity:1;fill-rule:nonzero;stroke:none"
         d="m 6628.93,12511.1 c -6.94,0 -13.78,3.2 -18.13,9.3 l -33.97,47.4 c -7.17,10 -4.86,23.9 5.13,31.1 9.99,7.1 23.9,4.8 31.08,-5.2 l 33.97,-47.4 c 7.17,-10 4.87,-23.9 -5.13,-31 -3.93,-2.9 -8.46,-4.2 -12.95,-4.2" /><path
         id="path298"
         style="fill:#ffffff;fill-opacity:1;fill-rule:nonzero;stroke:none"
         d="m 10372.9,5535.8 c -4.3,-17.7 203.9,-970.2 203.9,-970.2 l -478.5,80.1 -144.07,805.3 418.67,84.8" /><path
         id="path300"
         style="fill:#000000;fill-opacity:1;fill-rule:nonzero;stroke:none"
         d="M 10117.5,4665.1 10548,4593 c -142.1,651.1 -182.4,852.2 -193.2,916.4 l -374.81,-75.9 z m 459.3,-121.8 c -1.2,0 -2.5,0.1 -3.7,0.3 l -478.4,80.1 c -9.3,1.6 -16.6,8.8 -18.3,18.1 l -144.1,805.3 c -2.13,11.9 5.65,23.3 17.5,25.7 l 418.7,84.8 c 7.5,1.6 15.2,-0.8 20.4,-6.3 4.4,-4.5 6.6,-10.5 6.3,-16.6 3.2,-39.5 123.1,-597 203.3,-964.4 1.6,-7.2 -0.5,-14.7 -5.6,-20.1 -4.2,-4.4 -10.1,-6.9 -16.1,-6.9" /><path
         id="path302"
         style="fill:#ffffff;fill-opacity:1;fill-rule:nonzero;stroke:none"
         d="m 10322.7,4878 c 29.3,24.6 71.1,48.7 124.4,50.9 80.2,3.5 153.3,-46.7 186.5,-120.5 82.9,-184.4 301.7,-698.1 363.5,-1117.9 21.9,-148.4 -90.1,-269 -264.5,-171.8 -285.9,159.3 -682.6,525.1 -890.19,1065.3 -23.83,62.1 -15.33,132.2 23.81,185.7 31.97,43.7 75.33,96.6 125.67,141.7 48.11,43.2 120.51,43.8 170.41,2.8 l 45,-37 c 33.7,-27.7 82,-27.3 115.4,0.8" /><path
         id="path304"
         style="fill:#000000;fill-opacity:1;fill-rule:nonzero;stroke:none"
         d="m 10078.3,4922.3 c -25.7,0 -51.2,-9.2 -71.5,-27.4 -41.2,-36.9 -82.44,-83.4 -122.61,-138.4 -34.57,-47.2 -42.42,-108.7 -20.99,-164.5 203.2,-528.6 587.9,-891 880.2,-1053.9 69,-38.4 131.7,-42.6 176.3,-11.8 44.3,30.6 65.5,92.3 55.4,161 -60.8,413.1 -273.3,915.2 -361.8,1112 -30.3,67.2 -96.5,110.3 -165.3,107.4 -39.6,-1.7 -76.9,-17.1 -110.9,-45.7 -41.6,-35 -102.2,-35.4 -144,-1 l -45,37 c -20.5,16.9 -45.3,25.3 -69.8,25.3 z m 772.1,-1461.1 c -35,0 -78,9.8 -128.7,38 -299.1,166.7 -692.7,537.2 -900.09,1076.8 -26.87,70 -16.92,147.3 26.64,206.8 41.99,57.5 85.33,106.3 128.79,145.2 56.36,50.6 140.26,52 199.36,3.4 l 45,-37 c 25.2,-20.7 61.8,-20.5 87,0.7 41.2,34.6 88.8,54 137.7,56.1 86.4,3.7 170.1,-50 207.8,-133.6 89.3,-198.5 303.6,-705.2 365.3,-1123.8 12.6,-85.6 -15.8,-163.8 -74.2,-204.1 -19.1,-13.2 -50.7,-28.5 -94.6,-28.5" /><path
         id="path306"
         style="fill:#000000;fill-opacity:1;fill-rule:nonzero;stroke:none"
         d="m 10888.3,3628.5 c -37.7,0 -441.1,23.6 -930.29,990.4 -5.55,11 -1.16,24.4 9.81,30 11,5.5 24.38,1.1 29.93,-9.9 490.25,-969 887.05,-966 891.25,-965.9 12.9,0.4 22.6,-9.2 23.1,-21.5 0.4,-12.3 -9.2,-22.6 -21.5,-23 -0.5,-0.1 -1.3,-0.1 -2.3,-0.1" /><path
         id="path308"
         style="fill:#000000;fill-opacity:1;fill-rule:nonzero;stroke:none"
         d="m 10582.1,4160.7 c -8.9,0 -17.3,5.4 -20.7,14.2 -4.5,11.4 1.1,24.3 12.5,28.8 l 226.8,89.5 c 11.5,4.5 24.4,-1.1 28.9,-12.5 4.5,-11.5 -1.1,-24.4 -12.5,-28.9 l -226.8,-89.5 c -2.7,-1.1 -5.5,-1.6 -8.2,-1.6" /><path
         id="path310"
         style="fill:#000000;fill-opacity:1;fill-rule:nonzero;stroke:none"
         d="m 10502.6,4334.5 c -8.9,0 -17.3,5.4 -20.7,14.2 -4.5,11.5 1.2,24.4 12.6,28.8 l 266.1,103.5 c 11.4,4.5 24.3,-1.2 28.8,-12.6 4.5,-11.5 -1.2,-24.4 -12.7,-28.9 l -266,-103.5 c -2.6,-1 -5.4,-1.5 -8.1,-1.5" /><path
         id="path312"
         style="fill:#ffffff;fill-opacity:1;fill-rule:nonzero;stroke:none"
         d="m 8314.15,5449.3 c -11.34,-14.3 -222.82,-966 -222.82,-966 l -400.46,273.7 207.71,791.3 415.57,-99" /><path
         id="path314"
         style="fill:#000000;fill-opacity:1;fill-rule:nonzero;stroke:none"
         d="m 7716.4,4766.6 360.33,-246.4 c 144.66,650.5 192.69,850 209.83,912.8 l -371.96,88.6 z M 8091.33,4461 c -4.42,0 -8.8,1.3 -12.57,3.9 l -400.46,273.8 c -7.76,5.3 -11.36,14.9 -8.97,24 l 207.71,791.3 c 3.08,11.7 14.95,18.8 26.71,16 l 415.56,-99 c 7.4,-1.8 13.39,-7.2 15.88,-14.4 2.03,-5.9 1.5,-12.2 -1.32,-17.6 -13.68,-37.3 -139.23,-593.5 -220.8,-960.6 -1.6,-7.2 -6.67,-13.1 -13.56,-15.9 -2.64,-1 -5.41,-1.5 -8.18,-1.5" /><path
         id="path316"
         style="fill:#ffffff;fill-opacity:1;fill-rule:nonzero;stroke:none"
         d="m 7992.12,4873.5 c 36.9,10.1 84.96,14.3 134.24,-6 74.2,-30.6 119.45,-106.9 118.56,-187.8 -2.21,-202.2 -19.63,-760.2 -139.99,-1167.2 -42.54,-143.8 -194.84,-206.2 -312.27,-44.7 -192.46,264.8 -398.61,763.4 -359.94,1340.9 4.44,66.3 41.65,126.3 99.64,158.4 47.38,26.2 108.98,56.1 173.62,75.8 61.79,18.9 127.73,-10.9 155.76,-69.1 l 25.25,-52.5 c 18.96,-39.3 62.98,-59.2 105.13,-47.8" /><path
         id="path318"
         style="fill:#000000;fill-opacity:1;fill-rule:nonzero;stroke:none"
         d="m 7744.01,5026.4 c -10.43,0 -21.05,-1.6 -31.52,-4.8 -52.89,-16.2 -109.86,-41 -169.34,-74 -51.25,-28.3 -84.22,-80.8 -88.21,-140.4 -37.83,-565 158.95,-1055.6 355.73,-1326.3 46.44,-63.8 101.43,-94 155,-84.8 53.04,9.2 98.21,56.2 117.9,122.8 118.42,400.3 136.71,945.3 139.09,1161.1 0.8,73.6 -41.31,140.7 -104.78,166.9 -36.66,15.1 -77.01,16.8 -119.91,5.2 -52.46,-14.3 -107.54,10.8 -131.04,59.6 l -25.25,52.4 c -18.78,39 -57,62.3 -97.67,62.3 z M 7946.84,3350 c -44.24,0 -109.46,18.4 -172.2,104.7 -201.36,277 -402.77,778.6 -364.13,1355.5 5,74.7 46.52,140.7 111.07,176.4 62.18,34.4 122.03,60.5 177.88,77.6 72.41,22.2 149.11,-11.8 182.35,-80.8 l 25.25,-52.4 c 14.18,-29.5 47.48,-44.6 79.23,-36 51.93,14.1 103.29,11.7 148.55,-6.9 80.17,-33.1 133.36,-116.9 132.36,-208.6 -2.4,-217.6 -20.91,-767.5 -140.92,-1173.3 -24.54,-82.9 -83.18,-141.9 -153.05,-154 -7.56,-1.3 -16.44,-2.2 -26.39,-2.2" /><path
         id="path320"
         style="fill:#000000;fill-opacity:1;fill-rule:nonzero;stroke:none"
         d="m 7990.83,3499.4 c -2.88,0 -5.8,0.5 -8.62,1.7 -15.96,6.7 -391.37,177.2 -429.93,1290.6 -0.43,12.3 9.19,22.6 21.48,23.1 12.03,0.3 22.59,-9.2 23.04,-21.5 37.57,-1085.2 399.03,-1249.6 402.68,-1251.1 11.34,-4.8 16.66,-17.9 11.9,-29.2 -3.59,-8.5 -11.85,-13.6 -20.55,-13.6" /><path
         id="path322"
         style="fill:#000000;fill-opacity:1;fill-rule:nonzero;stroke:none"
         d="m 8178.78,4097.5 c -0.44,0 -0.87,0 -1.32,0 l -243.41,14.2 c -12.28,0.7 -21.65,11.2 -20.95,23.5 0.72,12.3 11.05,21.6 23.54,20.9 l 243.41,-14.1 c 12.27,-0.7 21.65,-11.2 20.94,-23.5 -0.69,-11.9 -10.5,-21 -22.21,-21" /><path
         id="path324"
         style="fill:#000000;fill-opacity:1;fill-rule:nonzero;stroke:none"
         d="m 8221.18,4284.8 c -0.47,0 -0.95,0 -1.42,0 l -284.89,17.9 c -12.27,0.8 -21.6,11.4 -20.83,23.6 0.77,12.3 11.51,21.6 23.62,20.9 l 284.88,-17.9 c 12.28,-0.8 21.62,-11.4 20.84,-23.6 -0.74,-11.8 -10.55,-20.9 -22.2,-20.9" /><path
         id="path326"
         style="fill:#000000;fill-opacity:1;fill-rule:nonzero;stroke:none"
         d="m 6076.31,9200.8 c 0,0 2913.4,126.4 3231.89,-169.4 432.03,-401.2 1174.2,-3741 1174.2,-3741 l -716.59,-200.9 c 0,0 -1079.75,2740.9 -1347.27,2740.9 -267.54,0 -2789.97,90.1 -2789.97,90.1 l 447.74,1280.3" /><path
         id="path328"
         style="fill:#000000;fill-opacity:1;fill-rule:nonzero;stroke:none"
         d="m 5883.72,9273.7 c -230.3,11.7 -436.05,-142.1 -490.25,-366.2 -83.95,-347.2 -156.64,-822 31.26,-948.5 305.75,-205.7 2509.76,-188.2 2433.32,-162.5 -76.43,25.7 -197.1,-1847 -197.1,-2567.1 l 693.94,-26.7 c 0,0 1105.88,2896.1 986.67,3219.4 -213.26,578.6 -1854.89,711.1 -2380.18,788.5 -70.56,10.4 -669.66,42.2 -1077.66,63.1" /><path
         id="path330"
         style="fill:#ffffff;fill-opacity:1;fill-rule:nonzero;stroke:none"
         d="m 8975.1,6828.7 c -2.26,0 -4.54,0.3 -6.8,1 -11.72,3.8 -18.17,16.3 -14.41,28 24.95,77.9 49.75,154.6 74.03,229.6 194.2,600.1 361.92,1118.3 292.5,1327.8 -147.44,445 -1249.9,615.5 -1612.17,671.6 -12.16,1.8 -20.49,13.2 -18.61,25.4 1.88,12.1 13.32,20.5 25.42,18.6 640.34,-99.1 1507.81,-279.6 1647.64,-701.5 74.01,-223.4 -87.68,-723.1 -292.4,-1355.6 -24.27,-75 -49.06,-151.6 -74.01,-229.5 -3.02,-9.4 -11.77,-15.4 -21.19,-15.4" /><path
         id="path332"
         style="fill:#ffffff;fill-opacity:1;fill-rule:nonzero;stroke:none"
         d="m 15356.7,7729.3 338.2,-3463 241.4,10.1 -119.9,3640.6 -459.7,-187.7" /><path
         id="path334"
         style="fill:#000000;fill-opacity:1;fill-rule:nonzero;stroke:none"
         d="m 15380.5,7715 334.5,-3425.5 198.3,8.3 -118.1,3586.5 z m 314.4,-3471 c -11.4,0 -21,8.7 -22.1,20.2 l -338.2,3462.9 c -1,9.9 4.6,19.1 13.7,22.8 l 459.7,187.7 c 6.7,2.7 14.4,2 20.5,-1.9 6.1,-4 9.9,-10.7 10.1,-18 l 119.9,-3640.5 c 0.4,-12.2 -9.1,-22.5 -21.3,-23 l -241.3,-10.1 c -0.4,0 -0.7,-0.1 -1,-0.1" /><g
         transform="scale(1.22044)"
         id="g336"><path
           id="path338"
           style="fill:#ffffff;fill-opacity:1;fill-rule:nonzero;stroke:none"
           d="m 16300,6435.33 -270.4,-2946.66 -204.4,15.32 98.2,3090.62 376.6,-159.28" /></g><g
         transform="scale(1.22185)"
         id="g340"><path
           id="path342"
           style="fill:#000000;fill-opacity:1;fill-rule:nonzero;stroke:none"
           d="m 15825.6,3516.87 168.9,-12.68 267.3,2912.05 -339.5,143.63 z m 185.4,-50.49 c -0.5,0 -0.9,0 -1.4,0.08 l -204.2,15.3 c -9.7,0.74 -17.2,9 -16.8,18.83 l 98.1,3086.95 c 0.2,6.06 3.4,11.54 8.4,14.81 5,3.28 11.4,3.77 17,1.39 l 376.1,-159.1 c 7.3,-3.11 11.8,-10.56 11.1,-18.42 l -270.1,-2943.23 c -0.9,-9.49 -8.9,-16.61 -18.2,-16.61" /></g><g
         transform="scale(1.29092)"
         id="g344"><path
           id="path346"
           style="fill:#ffffff;fill-opacity:1;fill-rule:nonzero;stroke:none"
           d="m 16300,6739.46 -75.2,-2925.2 -151,32.69 -138.3,3031.63 364.5,-139.12" /></g><g
         transform="scale(1.2923)"
         id="g348"><path
           id="path350"
           style="fill:#000000;fill-opacity:1;fill-rule:nonzero;stroke:none"
           d="m 16073.3,3856.85 117.4,-25.47 74.3,2889.19 -328.2,125.21 z m 134.2,-63.92 c -1.3,0 -2.5,0.15 -3.7,0.38 l -150.8,32.66 c -7.6,1.7 -13.2,8.28 -13.5,16.09 l -138.3,3028.4 c -0.3,5.8 2.5,11.3 7.1,14.7 4.7,3.41 10.8,4.26 16.2,2.17 l 364.2,-138.98 c 6.8,-2.55 11.3,-9.21 11.1,-16.48 l -75.2,-2922.15 c 0,-5.11 -2.4,-9.98 -6.5,-13.16 -3.1,-2.4 -6.9,-3.63 -10.6,-3.63" /></g><g
         transform="scale(1.05736)"
         id="g352"><path
           id="path354"
           style="fill:#ffffff;fill-opacity:1;fill-rule:nonzero;stroke:none"
           d="m 16300,8308.04 -91.8,-3571.44 -191.5,-1.04 -161.8,3742.24 445.1,-169.76" /></g><g
         transform="scale(1.05874)"
         id="g356"><path
           id="path358"
           style="fill:#000000;fill-opacity:1;fill-rule:nonzero;stroke:none"
           d="m 15856.6,8435.67 159.4,-3685.13 150.5,0.85 90.8,3531.46 z m 139.3,-3727.35 c -11.3,0 -20.5,8.88 -21.1,20.12 l -161.5,3737.45 c -0.4,7.09 2.9,13.79 8.7,17.95 5.7,4.16 13.2,5.1 19.7,2.64 l 444.5,-169.63 c 8.4,-3.21 13.8,-11.24 13.6,-20.21 l -91.7,-3566.78 c -0.3,-11.34 -9.5,-20.4 -21,-20.5 l -191.1,-1.04 h -0.1" /></g><g
         transform="scale(1.32518)"
         id="g360"><path
           id="path362"
           style="fill:#ffffff;fill-opacity:1;fill-rule:nonzero;stroke:none"
           d="m 13744,8854.51 v -663.08 c 0,-648.44 -511.5,-1174.11 -1142.4,-1174.11 -630.9,0 -1142.3,-525.66 -1142.3,-1174.18 0,-57.73 46.7,-104.59 104.4,-104.59 h 3023.9 c 945.7,0 1712.4,788.05 1712.4,1760.22 v 1414.75 c 0,386.66 -304.9,700.13 -681.1,700.13 h -1136.5 c -407.8,0 -738.4,-339.88 -738.4,-759.14" /></g><g
         transform="scale(1.32655)"
         id="g364"><path
           id="path366"
           style="fill:#000000;fill-opacity:1;fill-rule:nonzero;stroke:none"
           d="m 14467.5,9586.93 c -397.5,0 -721,-332.67 -721,-741.55 v -662.32 c 0,-656.07 -519.4,-1189.79 -1157.9,-1189.79 -620,0 -1124.4,-518.63 -1124.4,-1156.16 0,-48.32 39.3,-87.67 87.5,-87.67 h 3020.8 c 934,0 1694,781.28 1694,1741.59 v 1413.3 c 0,376.39 -297.7,682.6 -663.7,682.6 z m 105,-3871.11 h -3020.8 c -66.7,0 -121,54.43 -121,121.29 0,656.07 519.4,1189.79 1157.9,1189.79 620,0 1124.4,518.64 1124.4,1156.16 v 662.32 c 0,427.42 338.5,775.09 754.5,775.09 h 1135.3 c 384.4,0 697.2,-321.28 697.2,-716.14 v -1413.3 c 0,-978.86 -774.9,-1775.21 -1727.5,-1775.21" /></g><g
         transform="scale(1.14121)"
         id="g368"><path
           id="path370"
           style="fill:#ffffff;fill-opacity:1;fill-rule:nonzero;stroke:none"
           d="m 15708.8,10245.6 c 0,0 -191.4,-1739.93 -1476.6,-1853.75 l 1476.6,-21.03 c 0,0 546.8,1109.17 568.9,1541.08 22.3,431.9 -568.9,333.7 -568.9,333.7" /></g><g
         transform="scale(1.14142)"
         id="g372"><path
           id="path374"
           style="fill:#000000;fill-opacity:1;fill-rule:nonzero;stroke:none"
           d="m 14444.9,8406.74 1249,-17.69 c 57,116.87 540.9,1122.11 561.5,1522.05 5,97.7 -22.9,174.3 -82.8,227.9 -132.9,118.7 -386.3,95.5 -449.1,87.5 -10.8,-81 -70.3,-474.76 -256.1,-874.97 -237.9,-512.69 -588.7,-835.45 -1022.5,-944.79 z M 15706,8349.8 c -0.1,0 -0.2,0 -0.3,0 l -1476.3,21.02 c -10.4,0.18 -18.8,8.41 -19.3,18.75 -0.3,10.43 7.5,19.27 17.8,20.15 654.2,58 1015.7,552.65 1203.7,957.32 204.9,441.21 254.5,874.56 255,878.86 1,8.7 7.6,15.7 16.2,17.1 13.5,2.2 330.3,52.9 495.8,-94.9 69.2,-61.8 101.4,-148.9 95.8,-259.01 -22.2,-430.87 -548.4,-1502.96 -570.9,-1548.43 -3.3,-6.66 -10.1,-10.86 -17.5,-10.86" /></g><g
         transform="scale(1.27721)"
         id="g376"><path
           id="path378"
           style="fill:#000000;fill-opacity:1;fill-rule:nonzero;stroke:none"
           d="m 15670.6,10142.7 c -222.8,52.4 -315.7,53.1 -1125.5,23.8 -198,-7.2 -433.4,-255.9 -456.6,-452.81 62.8,-188.86 353.2,-1121.36 -153.7,-1849.98 -71.8,-103.35 -169.6,-216.8 -303.8,-325.47 75.4,-61.07 192.5,-140.55 349.9,-187.29 261.3,-77.67 392.6,6.27 603.2,0 557,-16.6 761.2,-637.64 1120.9,-559.65 96.1,20.82 223.4,95.83 342.7,347.47 67.7,208.58 127.9,453.57 161.4,730.5 90.9,750.54 -57.8,1375.5 -190.6,1767.61 -39.4,123.86 -85.2,444.02 -347.9,505.82" /></g><g
         transform="scale(1.12783)"
         id="g380"><path
           id="path382"
           style="fill:#000000;fill-opacity:1;fill-rule:nonzero;stroke:none"
           d="m 15724.3,10169.8 c 0,0 148.2,1190.6 575.7,1292.2 l -98.2,-1566.04 -477.5,273.84" /></g><g
         transform="scale(1.28165)"
         id="g384"><path
           id="path386"
           style="fill:#ffffff;fill-opacity:1;fill-rule:nonzero;stroke:none"
           d="m 15748.6,9228.96 c 171.8,-72.8 373.6,-158.54 551.2,-234.93 0.1,-2.26 0.1,-4.45 0.2,-6.63 l -551.2,237.89 -0.2,3.67" /></g><g
         transform="scale(1.28302)"
         id="g388"><path
           id="path390"
           style="fill:#000000;fill-opacity:1;fill-rule:nonzero;stroke:none"
           d="m 16282.5,8960.39 c -2.3,0 -4.6,0.47 -6.8,1.4 l -550.7,237.65 c -6,2.64 -10.1,8.49 -10.4,15.11 l -0.2,3.67 c -0.3,6 2.5,11.69 7.4,15.12 4.9,3.43 11.2,4.05 16.7,1.71 209.7,-88.77 400.1,-169.99 550.7,-234.75 6.3,-2.66 10.4,-8.73 10.6,-15.44 l 0.1,-6.78 c 0.1,-5.84 -2.8,-11.46 -7.7,-14.73 -2.9,-1.95 -6.3,-2.96 -9.7,-2.96" /></g><g
         transform="scale(1.28922)"
         id="g392"><path
           id="path394"
           style="fill:#000000;fill-opacity:1;fill-rule:nonzero;stroke:none"
           d="m 16300,8705.88 c 0,0 -36.6,618.67 -90,857.73 -112.3,502.89 -763.3,508.09 -763.3,508.09 l 113.7,-1279.8 739.6,-86.02" /></g><g
         transform="scale(1.21862)"
         id="g396"><path
           id="path398"
           style="fill:#ffffff;fill-opacity:1;fill-rule:nonzero;stroke:none"
           d="m 15748.6,10745.5 -23.3,331.1 c -15.8,1.1 -26.7,1.8 -29.9,1.8 -92.3,1 -122.3,31 -130.2,106.8 -5,47.4 -6.7,117.9 16.4,206.1 2.4,9.4 1.9,19.4 -1.9,28.3 l -15.8,37.1 c -3.3,12.1 0.9,25.1 10.7,33.1 l 8.4,6.9 c 30.1,24.7 55.1,55.1 75.1,88.8 18.5,31 49.8,89.1 71.3,99.4 60.7,29 306.6,157.8 444.1,-67.2 107.1,-175.5 -68,-417.1 -131.7,-496.2 -15.3,-19.2 104,-394.3 104,-394.3 l 154.2,-37.2 c 0,0 -119,-211.7 -480.5,-124.1 -257.4,62.3 -216.5,158.1 -216.5,158.1 l 145.6,21.5" /></g><g
         transform="scale(1.22004)"
         id="g400"><path
           id="path402"
           style="fill:#000000;fill-opacity:1;fill-rule:nonzero;stroke:none"
           d="m 15600.7,10695.4 c 0.1,-5.4 1.6,-13 6.5,-22 12.4,-23.3 54.8,-67.5 198.1,-102.1 275.7,-66.8 404.3,46.4 444.9,94.8 l -127.6,30.9 c -6.1,1.5 -11.1,6.1 -13.1,12.2 -122.1,384 -107.5,402 -100.6,410.7 71.8,89.3 228.2,314.2 130.1,474.7 -124.2,203.3 -341.9,98 -413.4,63.4 l -6.6,-3.2 c -13.5,-6.4 -41.5,-54.6 -55,-77.8 l -8.5,-14.4 c -22,-36.9 -48.6,-68.3 -79.2,-93.4 l -8.3,-6.9 c -3.9,-3.2 -5.8,-8.4 -4.9,-13.3 l 15.2,-35.5 c 5.3,-12.4 6.3,-26.7 2.8,-40.1 -17.7,-67.4 -22.9,-132.7 -15.9,-199.3 6.5,-61.7 24.2,-89.3 112,-90.4 3.4,0 14.7,-0.7 31,-1.8 9.1,-0.7 16.3,-7.9 17,-17 l 23.3,-330.6 c 0.6,-9.5 -6.1,-18 -15.6,-19.4 z m 366.9,-181.6 c -50,0 -106.8,6.5 -170.9,22 -121.9,29.5 -196.9,70.9 -223.1,122.8 -16.4,32.8 -6.8,57.4 -5.6,60.1 2.5,5.8 7.8,9.9 14.2,10.9 l 128.6,19 -20.9,297.9 c -6.7,0.4 -11.2,0.6 -13.1,0.7 -98.6,1.2 -138.7,34.5 -147.9,123.1 -7.5,71.1 -1.9,140.6 16.9,212.3 1.4,5.7 1,11.6 -1.1,16.6 l -15.7,37 c -0.4,0.7 -0.6,1.5 -0.9,2.3 -5.1,19 1.4,39.5 16.7,52 l 8.4,6.9 c 27.3,22.4 51.2,50.6 71,83.9 l 8.2,14 c 26.8,46 49,82 70.8,92.5 l 6.5,3.1 c 211.7,102.4 366.6,76.4 460.5,-77.3 108.9,-178.3 -52.6,-416 -130.3,-513.3 -0.1,-31.6 50.1,-208.6 101.3,-370.3 l 144.1,-34.8 c 5.5,-1.3 10.1,-5.2 12.4,-10.4 2.3,-5.3 2,-11.3 -0.8,-16.2 -4.3,-7.7 -90.3,-154.8 -329.3,-154.8" /></g><g
         transform="scale(1.22774)"
         id="g404"><path
           id="path406"
           style="fill:#000000;fill-opacity:1;fill-rule:nonzero;stroke:none"
           d="m 15978.2,11815.4 c -66.2,14.3 -142.2,4.1 -174.3,16 -51.8,19 -53.3,81.1 -124.9,98.5 -86.7,21.1 -122.9,-15.9 -156.9,-67.6 -5.6,-8.6 -10.5,-18.2 -14.6,-29.1 -54.5,-146.4 14.3,-217.8 44.9,-241.1 0,0 195.1,-100.9 228.6,-129.7 31.2,-27 67.3,-90.8 44.6,-182.6 -3,-11.8 2.2,-24.1 12.2,-30.2 11.8,-7 26.9,-3.7 35,7.9 25.3,36.9 80.8,108.1 120.2,91.3 49.5,-21.2 34.1,-169.9 -75.2,-187 -33.5,-5.3 -60.8,-39.7 -57.6,-74.9 2.2,-23 23.8,-50.8 56,-58.1 19.6,-4.6 38.9,3.4 56.2,14.4 71.4,45.6 272.5,238.9 297.5,412.2 30.1,208.8 -203.7,341 -291.7,360" /></g><g
         transform="scale(1.18507)"
         id="g408"><path
           id="path410"
           style="fill:#000000;fill-opacity:1;fill-rule:nonzero;stroke:none"
           d="m 16144.9,11374.7 c -10,0 -18.4,8 -18.7,18.1 -0.5,10.4 7.6,19.1 18,19.6 0.7,0 73.2,3.3 122.6,45.4 7.9,6.6 19.8,5.7 26.4,-2.2 6.8,-8 5.8,-19.8 -2.1,-26.5 -59.5,-50.6 -142,-54.2 -145.5,-54.4 -0.3,0 -0.4,0 -0.7,0" /></g><g
         transform="scale(1.05596)"
         id="g412"><path
           id="path414"
           style="fill:#ffffff;fill-opacity:1;fill-rule:nonzero;stroke:none"
           d="m 16300,5100.02 c -38.8,39.39 -263.2,737.91 -263.2,737.91 l -443.2,-316.59 485.9,-653.81 220.5,232.49" /></g><g
         transform="scale(1.05743)"
         id="g416"><path
           id="path418"
           style="fill:#000000;fill-opacity:1;fill-rule:nonzero;stroke:none"
           d="m 15601.6,5509.02 457.5,-615.65 191.9,202.48 c -52.5,100.24 -199.7,551.33 -247.7,700.09 z m 455.5,-669.36 c -0.3,0 -0.8,0 -1.2,0 -6.2,0.38 -11.9,3.5 -15.6,8.51 l -485.3,652.91 c -3.3,4.54 -4.7,10.21 -3.9,15.79 0.9,5.58 4,10.59 8.6,13.9 l 442.6,316.14 c 5.5,3.97 12.5,5.02 18.9,2.94 6.3,-2.18 11.4,-7.19 13.3,-13.62 85.1,-264.51 230.1,-696.31 257.9,-728.65 7.1,-8.23 7.6,-21.28 0.2,-29.13 l -220.1,-232.17 c -4,-4.25 -9.6,-6.62 -15.4,-6.62" /></g><g
         transform="scale(1.07868)"
         id="g420"><path
           id="path422"
           style="fill:#000000;fill-opacity:1;fill-rule:nonzero;stroke:none"
           d="m 15174.7,4127.91 288.5,1.76 c 190.9,1.12 368.5,98.27 472.7,258.47 l 285.2,452.22 c 78.9,124.96 34.8,290.54 -95.6,359.97 -119.1,63.32 -243.9,125.06 -273.1,122.28 -59.3,-5.65 -83.3,-286.83 -83.3,-286.83 l -257.1,-9.92 c 0,0 -127,-528.7 -238.7,-588.78 -81.4,-43.75 -138.2,-108.09 -176.5,-166.77 -40.1,-61.47 4.6,-142.77 77.9,-142.4" /></g><g
         transform="scale(1.07095)"
         id="g424"><path
           id="path426"
           style="fill:#ffffff;fill-opacity:1;fill-rule:nonzero;stroke:none"
           d="m 15313.4,4250.52 c -10.1,0 -19,7.47 -20.5,17.74 -1.7,11.4 6.1,21.95 17.5,23.63 l 397.5,59.95 c 83.3,12.6 155.9,61.34 199.3,133.71 l 351.2,587.51 c 5.9,9.9 18.6,13.07 28.5,7.19 9.8,-5.88 13.1,-18.67 7.2,-28.48 l -351.3,-587.6 c -49.6,-83.02 -133,-138.95 -228.7,-153.42 l -397.5,-59.95 c -1.1,-0.19 -2.1,-0.28 -3.2,-0.28" /></g><g
         transform="scale(1.03989)"
         id="g428"><path
           id="path430"
           style="fill:#ffffff;fill-opacity:1;fill-rule:nonzero;stroke:none"
           d="m 16276.2,4832.53 c -1.9,0 -3.7,0.29 -5.6,0.77 l -228.1,62.22 c -11.5,3.08 -18.1,14.91 -15,26.25 3,11.45 14.8,18.18 26.2,15.1 l 228.1,-62.22 c 11.5,-3.07 18.2,-14.9 15,-26.34 -2.6,-9.53 -11.1,-15.78 -20.6,-15.78" /></g><g
         transform="scale(1.0323)"
         id="g432"><path
           id="path434"
           style="fill:#ffffff;fill-opacity:1;fill-rule:nonzero;stroke:none"
           d="m 16276.2,4749.98 c -1.7,0 -3.4,0.19 -5.2,0.57 l -154,37.78 c -11.6,2.82 -18.7,14.44 -15.8,26.06 2.8,11.53 14.6,18.7 26.1,15.79 l 154,-37.68 c 11.6,-2.91 18.7,-14.53 15.9,-26.06 -2.4,-9.88 -11.2,-16.46 -21,-16.46" /></g><path
         id="path436"
         style="fill:#ffffff;fill-opacity:1;fill-rule:nonzero;stroke:none"
         d="m 15615.1,5526.2 -543.4,-546.6 -288,105.9 500.9,699.3 330.5,-258.6" /><path
         id="path438"
         style="fill:#000000;fill-opacity:1;fill-rule:nonzero;stroke:none"
         d="m 14818.8,5096.3 247.2,-90.9 515.6,518.7 -292.4,228.8 z m 252.9,-139 c -2.5,0 -5.1,0.5 -7.7,1.4 l -288,105.9 c -6.6,2.4 -11.6,7.7 -13.6,14.4 -2.1,6.6 -0.9,13.8 3.2,19.5 l 500.9,699.3 c 3.5,4.9 8.9,8.2 14.9,9 6,0.9 12.1,-0.7 16.9,-4.5 l 330.5,-258.6 c 5,-3.9 8.1,-9.8 8.5,-16.1 0.4,-6.4 -1.9,-12.6 -6.4,-17.1 l -543.4,-546.6 c -4.2,-4.3 -10,-6.6 -15.8,-6.6" /><g
         transform="scale(1.15104)"
         id="g440"><path
           id="path442"
           style="fill:#ffffff;fill-opacity:1;fill-rule:nonzero;stroke:none"
           d="m 16065,8306.77 c 0,0 -2157.5,264.72 -2799.1,-320.75 -641.5,-585.47 1012.7,-3103.2 1012.7,-3103.2 l 523.2,409.02 -496.3,1779.52 1994.5,597.12 -235,638.29" /></g><g
         transform="scale(1.15245)"
         id="g444"><path
           id="path446"
           style="fill:#000000;fill-opacity:1;fill-rule:nonzero;stroke:none"
           d="m 14982.9,8335.82 c -638.1,0 -1389.1,-71.67 -1720.2,-373.81 -593.7,-541.8 858.1,-2831.89 1003.2,-3056.97 l 495.7,387.52 -492.1,1764.94 c -2.9,10.15 2.9,20.65 13,23.69 l 1972.3,590.48 -223.5,607.06 c -77.4,8.85 -525,57.09 -1048.4,57.09 z m -721.8,-3478.33 c -1,0 -2.1,0.08 -3.1,0.26 -5.3,0.86 -10.1,3.9 -13,8.41 -67.9,103.26 -1653.9,2535.21 -1008.4,3124.4 640,583.97 2722.7,336.06 2811.1,325.22 7.2,-0.87 13.2,-5.73 15.8,-12.5 l 234.7,-637.51 c 1.8,-5.03 1.5,-10.59 -0.9,-15.36 -2.4,-4.77 -6.7,-8.33 -11.8,-9.8 l -1973.8,-591.01 490.6,-1759.03 c 2.1,-7.55 -0.6,-15.62 -6.7,-20.48 l -522.5,-408.53 c -3.5,-2.68 -7.6,-4.07 -12,-4.07" /></g><g
         transform="scale(1.25275)"
         id="g448"><path
           id="path450"
           style="fill:#ffffff;fill-opacity:1;fill-rule:nonzero;stroke:none"
           d="m 15851.5,6567.53 c -287.9,-96.35 -803.1,-220.88 -1523.2,-210.58 -204.6,2.96 -393.6,-116.22 -486.5,-308.36 -213.3,-441.03 -675,-1235.04 -1427,-1749.74 l -359.1,204.03 916.7,2175.52 c 83.6,198.6 240.2,352.99 433.7,427.78 l 1816.8,702.37 c 0,0 563.4,166.04 839.5,-364.16 49.4,-94.67 140.9,74.56 162.8,-1.83 74.8,-261.9 -126.4,-792.26 -373.7,-875.03" /></g><g
         transform="scale(1.25417)"
         id="g452"><path
           id="path454"
           style="fill:#000000;fill-opacity:1;fill-rule:nonzero;stroke:none"
           d="m 12064.6,4505.47 335.4,-190.49 c 745.6,514.13 1203.3,1306.77 1410.2,1734.54 95,196.22 292,320.93 502.2,318.06 705.2,-10.21 1213.5,108.28 1515.7,209.38 238.4,79.81 432.4,604.71 361.8,852.36 -1.8,6.38 -3.6,7.89 -3.6,7.98 -4.9,0.55 -22.1,-11.49 -32.5,-18.51 -25.2,-16.9 -53.8,-36.03 -83.4,-28.46 -17,4.31 -31.1,16.91 -41.7,37.48 -265.8,510.06 -795.5,361.51 -817.9,354.89 l -1813.4,-701.02 c -187.7,-72.64 -342,-224.85 -423.3,-417.73 z m 336.2,-229.16 c -3,0 -6,0.72 -8.7,2.31 l -358.8,203.8 c -7.8,4.39 -11,14.04 -7.5,22.33 l 915.6,2173 c 84.9,201.72 246.6,361.03 443.3,437.02 l 1814.7,701.58 c 7.1,2.15 581.4,164.18 860.8,-372.12 5.8,-11.24 12.2,-17.78 18.9,-19.53 14.4,-3.67 35.9,10.84 55,23.6 22.7,15.23 44.1,29.66 65,22 11.8,-4.38 20.2,-14.82 24.9,-31.25 76,-266 -126.6,-809.38 -384.6,-895.73 l -5.7,16.82 5.7,-16.82 c -304.8,-101.99 -817.3,-221.51 -1527.5,-211.22 -2.5,0 -4.9,0.08 -7.3,0.08 -196.5,0 -373.2,-113.7 -462.4,-298.13 -209.3,-432.72 -673.5,-1236.04 -1431.3,-1754.63 -3.1,-2.07 -6.6,-3.11 -10.1,-3.11" /></g><path
         id="path456"
         style="fill:#000000;fill-opacity:1;fill-rule:nonzero;stroke:none"
         d="m 15243.4,5065.1 c 0,0 26.3,-232.5 -18.3,-438 -23.7,-109.5 -122.3,-186.5 -234.2,-186.5 h -1333.6 c -95.3,0 -138.6,119.1 -65.5,180.4 237.1,198.9 673.3,502.6 1209.7,591.7 l 149.5,-209.6 292.4,62" /><path
         id="path458"
         style="fill:#ffffff;fill-opacity:1;fill-rule:nonzero;stroke:none"
         d="m 15102.8,4601.9 h -1382.1 c -12.3,0 -22.3,9.9 -22.3,22.2 0,12.3 10,22.3 22.3,22.3 h 1382.1 c 12.3,0 22.2,-10 22.2,-22.3 0,-12.3 -9.9,-22.2 -22.2,-22.2" /><path
         id="path460"
         style="fill:#ffffff;fill-opacity:1;fill-rule:nonzero;stroke:none"
         d="m 14491.9,4847.7 c -8.8,0 -17.1,5.2 -20.6,13.8 l -73.2,177.6 c -4.7,11.4 0.7,24.4 12.1,29.1 11.4,4.7 24.4,-0.7 29.1,-12.1 l 73.2,-177.7 c 4.6,-11.3 -0.8,-24.4 -12.1,-29 -2.8,-1.2 -5.7,-1.7 -8.5,-1.7" /><path
         id="path462"
         style="fill:#ffffff;fill-opacity:1;fill-rule:nonzero;stroke:none"
         d="m 14251.3,4800.9 c -9.3,0 -18,6 -21.1,15.3 l -53,160.3 c -3.8,11.7 2.5,24.3 14.2,28.1 11.7,3.9 24.3,-2.4 28.2,-14.1 l 52.9,-160.3 c 3.8,-11.7 -2.5,-24.3 -14.2,-28.1 -2.3,-0.8 -4.6,-1.2 -7,-1.2" /><g
         transform="scale(1.28688)"
         id="g464"><path
           id="path466"
           style="fill:#ffffff;fill-opacity:1;fill-rule:nonzero;stroke:none"
           d="M 15780.8,8841.75 C 15592.6,8156.22 15033.6,7718.8 14223,7488.55 l 123.7,-231.02 c 1126.4,39.63 1717.1,529.19 1953.3,1468.74 l -519.2,115.48" /></g><g
         transform="scale(1.2883)"
         id="g468"><path
           id="path470"
           style="fill:#000000;fill-opacity:1;fill-rule:nonzero;stroke:none"
           d="m 14232.8,7469.61 108.3,-202.44 c 1067.2,40.44 1677.8,497.25 1919.9,1436.47 l -485.3,107.97 c -183.9,-647.13 -702.8,-1098.5 -1542.9,-1342 z m 98.1,-237.37 c -6.4,0 -12.2,3.49 -15.2,9.16 l -123.5,230.77 c -2.5,4.58 -2.7,10.09 -0.7,14.9 2.1,4.82 6.2,8.46 11.2,9.86 846.7,240.55 1366.1,691.3 1544,1339.67 2.5,8.93 11.5,14.36 20.5,12.35 l 518.7,-115.43 c 4.5,-1.01 8.4,-3.8 10.9,-7.76 2.4,-4.04 3.2,-8.77 2,-13.35 -244.1,-971.2 -869.2,-1441.51 -1967.3,-1480.17 -0.1,0 -0.4,0 -0.6,0" /></g><g
         transform="scale(1.13965)"
         id="g472"><path
           id="path474"
           style="fill:#ffffff;fill-opacity:1;fill-rule:nonzero;stroke:none"
           d="m 16277.8,8477.43 c -12.9,25.35 -34.7,45.45 -61.4,55.01 -19.1,6.85 -38,15.97 -56,25.54 l -249.1,132.14 c -46.7,22.9 -113.4,-30.36 -161.8,-46.33 -146.1,-48 -448.8,-161.1 -423.8,-267.27 26.8,-114.6 286.9,-60.37 379.3,-37.29 21.1,5.26 212.2,-63.88 272.5,-68.54 83.6,-6.31 102.8,14.92 143.7,36.42 18.6,9.74 39.3,14.13 61.7,14.3 34.4,0.27 67.2,14.65 88.8,41.51 l 0.4,0.7 c 23.8,29.57 27.9,70.46 10.6,104.24 l -4.9,9.57" /></g><g
         transform="scale(1.14111)"
         id="g476"><path
           id="path478"
           style="fill:#000000;fill-opacity:1;fill-rule:nonzero;stroke:none"
           d="m 15687.8,8348.36 c 15.4,0 44.2,-7.89 117.7,-29.71 58.1,-17.26 123.9,-36.81 153.1,-39.08 64.1,-4.82 85.2,7.18 114.2,23.74 5.8,3.42 12,6.93 18.6,10.43 20.6,10.78 44.4,16.39 70.8,16.57 29.4,0.17 56.1,12.61 73.4,34.17 19.4,24.19 22.7,56.79 8.9,83.69 l -4.9,9.56 c -11,21.55 -29,37.68 -50.5,45.39 -17.6,6.31 -36.2,14.81 -58.6,26.64 l -248.7,131.98 c -23.4,11.48 -62.2,-7.98 -96.4,-25.24 -17.6,-8.77 -34.1,-17.09 -49.9,-22.26 -267.8,-87.99 -425.2,-181.49 -410.4,-243.97 3.4,-14.64 12,-25.94 26.3,-34.71 51.3,-31.19 174.2,-26.72 328.8,11.92 2.2,0.53 4.6,0.88 7.6,0.88 z m 296.6,-108.84 c -8.8,0 -18.3,0.35 -28.7,1.14 -33.4,2.54 -98.4,21.9 -161.3,40.57 -42.6,12.62 -95.8,28.75 -106.6,28.13 -96.3,-24.27 -273.3,-57.92 -356.7,-7.1 -23.4,14.29 -38.2,34.09 -44.1,59.07 -26.3,112.52 222.7,219.78 436.3,289.98 13,4.29 28.4,12.01 44.6,20.07 42.3,21.29 90.3,45.39 131.6,25.15 l 249.3,-132.24 c 20.7,-10.95 37.7,-18.75 53.4,-24.36 31,-11.13 56.6,-34.01 72.1,-64.41 l 4.9,-9.64 c 20.8,-40.49 15.8,-89.65 -12.7,-125.23 -25,-31.38 -62.9,-49.17 -104.1,-49.43 -20.3,-0.08 -37.6,-4.03 -52.8,-12 -6.3,-3.34 -11.9,-6.58 -17.5,-9.73 -26.8,-15.34 -52.3,-29.97 -107.7,-29.97" /></g><g
         transform="scale(1.19453)"
         id="g480"><path
           id="path482"
           style="fill:#ffffff;fill-opacity:1;fill-rule:nonzero;stroke:none"
           d="m 6654.38,7754.7 h 9336.52 c 173.9,0 309.1,-114.44 289.4,-245.04 l -644.7,-4277.25 h -465.5 l 403.6,4014.31 c 7.1,70.73 -67,131.09 -160.8,131.09 H 7398.29 c -140.48,0 -251.25,-90.24 -240.62,-196.14 L 7557.24,3207.3 h -465.52 l -655.71,4362.56 c -14.8,98.53 87.17,184.84 218.37,184.84" /></g><g
         transform="scale(1.19506)"
         id="g484"><path
           id="path486"
           style="fill:#000000;fill-opacity:1;fill-rule:nonzero;stroke:none"
           d="m 7104.63,3224.54 h 428.67 l -397.33,3952.12 c -4.67,46.44 11.65,92.96 45.94,130.87 48.54,53.64 128.21,85.69 213.1,85.69 h 8011.09 c 58.4,0 113.4,-22.18 146.9,-59.33 24.2,-26.61 35.7,-59.42 32.3,-92.22 L 15184,3249.64 h 428.7 l 642,4259.47 c 7,45.86 -7.2,90.71 -40.6,129.7 -50.6,58.74 -136.7,93.8 -230.2,93.8 H 6651.45 c -69.28,0 -132.91,-25.85 -170.19,-69.11 -24.4,-28.37 -34.66,-60.92 -29.66,-94.14 z m 449.27,-37.24 h -465.31 c -9.23,0 -17.07,6.69 -18.43,15.82 l -655.42,4360.63 c -6.56,43.68 7.04,87.78 38.28,124.01 44.26,51.47 118.44,82.09 198.43,82.09 h 9332.45 c 104.2,0 200.9,-39.83 258.4,-106.69 40.2,-46.77 57.7,-103.51 49.3,-159.57 l -644.5,-4275.37 c -1.4,-9.12 -9.2,-15.82 -18.4,-15.82 h -465.3 c -5.3,0 -10.3,2.18 -13.8,6.11 -3.6,3.94 -5.3,9.12 -4.8,14.4 l 403.4,4012.53 c 2.9,28.45 -10.8,50.21 -22.8,63.43 -26.6,29.45 -71.3,47.02 -119.3,47.02 H 7395.01 c -74.54,0 -143.87,-27.44 -185.46,-73.38 -27.53,-30.46 -40.15,-65.77 -36.49,-102.09 L 7572.45,3207.8 c 0.53,-5.27 -1.19,-10.46 -4.72,-14.39 -3.54,-3.93 -8.56,-6.11 -13.83,-6.11" /></g><g
         transform="scale(1.14233)"
         id="g488"><path
           id="path490"
           style="fill:#ffffff;fill-opacity:1;fill-rule:nonzero;stroke:none"
           d="m 15062.2,8252.2 -524.7,1546.23 c -31.5,48.42 -86.3,77.83 -145.2,77.83 h -1398.5 c -63.4,0 -104.3,-61.63 -83.6,-116.08 8.3,-21.62 17.1,-42.98 24.4,-65.04 l 474.2,-1445.74 h 0.2 c 1.5,-84.56 70.3,-152.58 155,-152.58 h 2580.8 c 85.7,0 155.2,69.59 155.2,155.38 h -1237.8" /></g><g
         transform="scale(1.14369)"
         id="g492"><path
           id="path494"
           style="fill:#000000;fill-opacity:1;fill-rule:nonzero;stroke:none"
           d="m 13410.5,8247.84 c 1.1,-2.45 1.8,-5.16 1.8,-7.95 1.4,-73.54 62.1,-133.34 135.5,-133.34 h 2577.7 c 68.1,0 124.7,50.62 134.2,116.28 h -1215.5 c -8.3,0 -15.8,5.34 -18.5,13.21 l -523.2,1542.02 c -28.2,41.97 -75.6,66.89 -127.4,66.89 h -1396.8 c -23.6,0 -44.6,-10.76 -57.6,-29.64 -12.3,-17.84 -15.1,-40.22 -7.7,-59.81 l 7,-18.19 c 6,-15.38 12.3,-31.38 17.6,-47.65 z m 2715,-180.21 h -2577.7 c -93.2,0 -170.7,75.02 -174.3,167.88 l -472.9,1442 c -5,15.3 -11,30.69 -16.9,45.64 l -7.1,18.45 c -12,31.65 -7.5,67.41 12,95.83 20.5,29.55 53.1,46.51 89.7,46.51 h 1396.8 c 65.8,0 126.2,-32.43 161.3,-86.64 0.9,-1.31 1.6,-2.8 2.1,-4.38 l 519.6,-1531.09 h 1222.4 c 10.8,0 19.5,-8.74 19.5,-19.5 0,-96.35 -78.3,-174.7 -174.5,-174.7" /></g><path
         id="path496"
         style="fill:#000000;fill-opacity:1;fill-rule:nonzero;stroke:none"
         d="m 16018.5,10376.6 c 22.5,-74.8 -11.9,-151.4 -76.9,-171 -65,-19.6 -135.9,25.1 -158.4,99.9 -22.5,74.8 11.9,151.4 76.9,171 64.9,19.6 135.9,-25.1 158.4,-99.9" /><path
         id="path498"
         style="fill:#ffffff;fill-opacity:1;fill-rule:nonzero;stroke:none"
         d="M 10686.7,9223.8 H 7738.87 c -80.53,0 -145.8,65.3 -145.8,145.8 v 28.1 h 3239.43 v -28.1 c 0,-80.5 -65.2,-145.8 -145.8,-145.8" /><path
         id="path500"
         style="fill:#000000;fill-opacity:1;fill-rule:nonzero;stroke:none"
         d="m 7615.34,9375.5 v -5.9 c 0,-68.1 55.42,-123.5 123.53,-123.5 h 2947.83 c 68.1,0 123.6,55.4 123.6,123.5 v 5.9 z m 3071.36,-174 H 7738.87 c -92.67,0 -168.07,75.4 -168.07,168.1 v 28.1 c 0,12.3 9.97,22.3 22.27,22.3 h 3239.43 c 12.3,0 22.3,-10 22.3,-22.3 v -28.1 c 0,-92.7 -75.4,-168.1 -168.1,-168.1" /><path
         id="path502"
         style="fill:#ffffff;fill-opacity:1;fill-rule:nonzero;stroke:none"
         d="M 10832.6,9394.6 H 8978.96 l 588.94,1733.6 c 35.24,54.2 96.64,87.1 162.64,87.1 h 1566.96 c 71.1,0 116.9,-69 93.7,-129.9 -9.3,-24.2 -19.2,-48.1 -27.3,-72.7 l -531.3,-1618.1" /><path
         id="path504"
         style="fill:#000000;fill-opacity:1;fill-rule:nonzero;stroke:none"
         d="m 9010.05,9416.9 h 1806.45 l 526.2,1602.7 c 6,18.2 13,36.1 19.8,53.4 l 7.8,20.4 c 8.4,21.8 5.2,46.7 -8.5,66.5 -14.5,21.1 -37.9,33.2 -64.3,33.2 H 9730.54 c -57.9,0 -110.95,-27.9 -142.48,-74.8 z m 1822.55,-44.6 H 8978.96 c -7.17,0 -13.92,3.5 -18.1,9.3 -4.18,5.9 -5.3,13.4 -2.98,20.2 l 588.94,1733.6 c 0.59,1.7 1.4,3.4 2.41,4.9 39.57,60.9 107.35,97.3 181.31,97.3 h 1566.96 c 41.2,0 78,-19.1 101,-52.4 22,-31.9 27,-72.2 13.5,-107.7 l -8.1,-20.7 c -6.5,-16.7 -13.2,-34 -18.8,-51.1 l -531.4,-1618.1 c -2.9,-9.1 -11.5,-15.3 -21.1,-15.3" /><path
         id="path506"
         style="fill:#000000;fill-opacity:1;fill-rule:nonzero;stroke:none"
         d="m 10144.7,10328.4 c -22.1,-73.3 11.7,-148.3 75.4,-167.6 63.7,-19.2 133.3,24.6 155.4,97.9 22.1,73.3 -11.7,148.3 -75.4,167.6 -63.8,19.2 -133.3,-24.6 -155.4,-97.9" /><g
         transform="scale(1.29808)"
         id="g508"><path
           id="path510"
           style="fill:#ffffff;fill-opacity:1;fill-rule:nonzero;stroke:none"
           d="M 16189.4,2887.73 H 13851 c -140.4,0 -245.4,128.88 -217.1,266.31 l 354.8,1724.55 c 29.8,145.06 157.5,249.14 305.5,249.14 H 16300 l -110.6,-2240" /></g><g
         transform="scale(1.29946)"
         id="g512"><path
           id="path514"
           style="fill:#000000;fill-opacity:1;fill-rule:nonzero;stroke:none"
           d="m 14279,5105.12 c -139.1,0 -260.4,-98.89 -288.4,-235.1 l -354.4,-1722.71 c -12.4,-60.41 2.8,-122.51 41.8,-170.3 38.9,-47.8 96.6,-75.19 158.3,-75.19 h 2319.6 l 108.8,2203.3 z m 1893.2,-2237.54 h -2335.9 c -72,0 -139.4,32.01 -184.9,87.8 -45.5,55.79 -63.3,128.29 -48.8,198.78 l 354.4,1722.71 c 31.3,152.14 166.7,262.57 322,262.57 h 2003.7 c 4.7,0 9.1,-1.92 12.4,-5.31 3.2,-3.46 4.9,-8 4.7,-12.69 l -110.5,-2237.55 c -0.4,-9.16 -8,-16.31 -17.1,-16.31" /></g><g
         transform="scale(1.32813)"
         id="g516"><path
           id="path518"
           style="fill:#ffffff;fill-opacity:1;fill-rule:nonzero;stroke:none"
           d="m 16115.7,2822.39 h -443.5 c -137.2,0 -239.9,125.97 -212.2,260.29 l 381.9,1856.53 c 8.7,42.23 45.9,72.5 88.9,72.5 h 114.1 c 47.3,0 86.7,-36.29 90.5,-83.42 l 156.2,-1915.03 c 8.4,-102.77 -72.8,-190.87 -175.9,-190.87" /></g><g
         transform="scale(1.32917)"
         id="g520"><path
           id="path522"
           style="fill:#000000;fill-opacity:1;fill-rule:nonzero;stroke:none"
           d="m 15918.4,4991.03 c -34.9,0 -65.4,-24.83 -72.4,-59.06 l -381.6,-1855 c -12.2,-59.06 2.7,-119.78 40.7,-166.5 38.2,-46.72 94.6,-73.5 154.9,-73.5 h 443.1 c 45.2,0 86.8,18.28 117.4,51.46 30.5,33.18 45.3,76.14 41.7,121.13 l -156.1,1913.53 c -3.1,38.07 -35.5,67.94 -73.7,67.94 z m 184.7,-2187.54 H 15660 c -70.4,0 -136.4,31.3 -180.8,85.84 -44.5,54.55 -61.9,125.42 -47.6,194.34 l 381.6,1855.07 c 10.2,49.73 54.4,85.84 105.2,85.84 h 114 c 55.5,0 102.6,-43.41 107.1,-98.78 l 156.1,-1913.53 c 4.4,-53.57 -14,-106.99 -50.4,-146.56 -36.5,-39.58 -88.3,-62.22 -142.1,-62.22" /></g><g
         transform="scale(1.28733)"
         id="g524"><path
           id="path526"
           style="fill:#000000;fill-opacity:1;fill-rule:nonzero;stroke:none"
           d="m 16003.3,4240.42 h -1846.1 c -9.6,0 -17.3,7.77 -17.3,17.32 0,9.56 7.7,17.33 17.3,17.33 h 1846.1 c 47,0 87.3,31.84 98.1,77.52 l 162.8,687.01 c 2.2,9.32 11.5,14.99 20.8,12.82 9.3,-2.18 15,-11.5 12.8,-20.82 l -162.7,-687.01 c -14.5,-61.29 -68.7,-104.17 -131.8,-104.17" /></g><g
         transform="scale(1.20763)"
         id="g528"><path
           id="path530"
           style="fill:#ffffff;fill-opacity:1;fill-rule:nonzero;stroke:none"
           d="m 16300,4538.74 -55.2,-222.34 c -8.9,-37.67 -42.4,-64.26 -81.1,-64.26 h -389.8 c -42.5,0 -73.2,40.5 -61.8,81.4 l 57.1,205.2 h 530.8" /></g><g
         transform="scale(1.20905)"
         id="g532"><path
           id="path534"
           style="fill:#000000;fill-opacity:1;fill-rule:nonzero;stroke:none"
           d="m 15764.6,4514.95 -53.2,-191.47 c -3.9,-13.89 -1.1,-28.37 7.6,-39.86 8.6,-11.42 22,-18.04 36.4,-18.04 h 389.3 c 30.2,0 56.1,20.52 63.1,49.96 l 49.4,199.41 z m 380.1,-286.17 h -389.3 c -26.1,0 -50,11.83 -65.8,32.58 -15.7,20.68 -20.8,46.9 -13.7,71.97 l 57,205.03 c 2.2,7.94 9.5,13.48 17.7,13.48 h 530.2 c 5.6,0 11,-2.65 14.5,-7.11 3.5,-4.47 4.7,-10.26 3.4,-15.8 l -55.1,-222.07 c -10.8,-45.91 -51.6,-78.08 -98.9,-78.08" /></g><g
         transform="scale(1.25196)"
         id="g536"><path
           id="path538"
           style="fill:#000000;fill-opacity:1;fill-rule:nonzero;stroke:none"
           d="m 16282.3,3156.02 h -2016.7 c -9.8,0 -17.8,7.99 -17.8,17.73 0,9.91 8,17.82 17.8,17.82 h 2016.7 c 9.8,0 17.7,-7.91 17.7,-17.82 0,-9.74 -7.9,-17.73 -17.7,-17.73" /></g><g
         transform="scale(1.18106)"
         id="g540"><path
           id="path542"
           style="fill:#000000;fill-opacity:1;fill-rule:nonzero;stroke:none"
           d="m 16218.4,5721.83 h -166.9 c -45.1,0 -81.6,-36.57 -81.6,-81.62 h 330.1 c 0,45.05 -36.6,81.62 -81.6,81.62" /></g><g
         transform="scale(1.18242)"
         id="g544"><path
           id="path546"
           style="fill:#000000;fill-opacity:1;fill-rule:nonzero;stroke:none"
           d="m 15973.1,5652.54 h 286.3 c -8,25.37 -31.8,43.81 -59.8,43.81 h -166.7 c -28,0 -51.7,-18.44 -59.8,-43.81 z m 308,-37.71 h -329.7 c -10.4,0 -18.9,8.45 -18.9,18.86 0,55.31 45.1,100.38 100.4,100.38 h 166.7 c 55.3,0 100.4,-45.07 100.4,-100.38 0,-10.41 -8.5,-18.86 -18.9,-18.86" /></g><g
         transform="scale(1.27796)"
         id="g548"><path
           id="path550"
           style="fill:#000000;fill-opacity:1;fill-rule:nonzero;stroke:none"
           d="m 16224.6,5287.97 h -154.3 c -41.6,0 -75.4,-33.8 -75.4,-75.43 h 305.1 c 0,41.63 -33.8,75.43 -75.4,75.43" /></g><g
         transform="scale(1.27933)"
         id="g552"><path
           id="path554"
           style="fill:#000000;fill-opacity:1;fill-rule:nonzero;stroke:none"
           d="m 15997.9,5224.39 h 264.6 c -7.4,23.45 -29.4,40.5 -55.3,40.5 h -154 c -25.9,0 -47.9,-17.05 -55.3,-40.5 z m 284.7,-34.86 h -304.8 c -9.6,0 -17.4,7.82 -17.4,17.44 0,51.12 41.6,92.78 92.8,92.78 h 154 c 51.1,0 92.8,-41.66 92.8,-92.78 0,-9.62 -7.8,-17.44 -17.4,-17.44" /></g><g
         transform="scale(1.27221)"
         id="g556"><path
           id="path558"
           style="fill:#ffffff;fill-opacity:1;fill-rule:nonzero;stroke:none"
           d="m 16257.3,5315.93 25,148.24 c 17.7,105.17 -53.2,190.46 -158.4,190.46 H 15195 c -105.1,0 -204.7,-85.29 -222.4,-190.46 l -25,-148.24 h 71.1 l 19.4,115.39 c 13.8,81.82 91.3,148.16 173.2,148.16 h 871.1 c 81.9,0 137,-66.34 123.3,-148.16 l -19.4,-115.39 h 71" /></g><g
         transform="scale(1.27293)"
         id="g560"><path
           id="path562"
           style="fill:#000000;fill-opacity:1;fill-rule:nonzero;stroke:none"
           d="m 16197.9,5330.47 h 35.6 l 22.4,133.55 c 7.8,46.2 -2.8,89.25 -29.9,121.3 -26.6,31.34 -66,48.63 -111.1,48.63 h -928.4 c -96.7,0 -188.7,-78.8 -205,-175.74 l -21.6,-127.74 h 35.6 l 17,100.72 c 15.1,89.71 100.5,162.69 190.3,162.69 h 870.6 c 44.4,0 83.6,-17.36 110.3,-48.86 27.1,-32.05 37.8,-74.56 30.2,-119.65 z m 50.3,-35.04 h -71 c -5.2,0 -10,2.28 -13.3,6.21 -3.3,3.93 -4.8,9.11 -4,14.22 l 19.5,115.33 c 5.8,34.8 -2.1,67.24 -22.5,91.28 -19.8,23.49 -49.5,36.45 -83.5,36.45 h -870.6 c -73.6,0 -143.4,-59.94 -155.8,-133.55 l -19.4,-115.32 c -1.4,-8.41 -8.7,-14.62 -17.3,-14.62 h -71 c -5.2,0 -10.1,2.28 -13.4,6.21 -3.4,3.93 -4.8,9.11 -3.9,14.22 l 25,148.16 c 19,112.97 126.5,204.89 239.5,204.89 h 928.4 c 55.6,0 104.5,-21.61 137.8,-60.97 33.9,-40.06 47.3,-93.17 37.8,-149.73 l -25,-148.16 c -1.4,-8.41 -8.7,-14.62 -17.3,-14.62" /></g><g
         transform="scale(1.25917)"
         id="g564"><path
           id="path566"
           style="fill:#000000;fill-opacity:1;fill-rule:nonzero;stroke:none"
           d="m 16244.4,5775.22 h -824.5 c -33.2,0 -64.6,-26.92 -70.3,-60.19 l -12.1,-72.03 c -5.6,-33.2 16.8,-60.12 50.1,-60.12 h 824.4 c 33.2,0 64.7,26.92 70.3,60.12 l 12.1,72.03 c 5.6,33.27 -16.8,60.19 -50,60.19" /></g><g
         transform="scale(1.26037)"
         id="g568"><path
           id="path570"
           style="fill:#000000;fill-opacity:1;fill-rule:nonzero;stroke:none"
           d="m 15405.3,5752.05 c -24.5,0 -48.7,-20.79 -52.8,-45.38 l -12.1,-71.97 c -1.9,-10.95 0.5,-21.02 6.8,-28.4 6,-7.14 15.1,-11.03 25.8,-11.03 h 823.6 c 24.5,0 48.7,20.79 52.8,45.31 l 12.1,71.96 c 1.8,11.03 -0.5,21.1 -6.7,28.48 -6.1,7.14 -15.3,11.03 -25.9,11.03 z m 791.3,-192.17 H 15373 c -21.2,0 -40,8.42 -52.8,23.57 -13.1,15.47 -18.2,35.7 -14.7,57.13 l 12.2,71.96 c 7,41.97 45.5,74.82 87.6,74.82 h 823.6 c 21.2,0 40,-8.33 52.9,-23.49 13,-15.47 18.2,-35.78 14.5,-57.2 l -12,-71.97 c -7.2,-41.89 -45.6,-74.82 -87.7,-74.82" /></g><g
         transform="scale(1.30296)"
         id="g572"><path
           id="path574"
           style="fill:#000000;fill-opacity:1;fill-rule:nonzero;stroke:none"
           d="m 15970.6,3032.47 c -5.9,0 -11.7,3.07 -14.8,8.6 -4.7,8.21 -1.9,18.65 6.4,23.33 l 303.6,172.99 v 1737.73 c 0,9.44 7.6,17.12 17.1,17.12 9.4,0 17.1,-7.68 17.1,-17.12 V 3227.49 c 0,-6.14 -3.3,-11.82 -8.6,-14.89 L 15979,3034.7 c -2.6,-1.54 -5.5,-2.23 -8.4,-2.23" /></g></g></g></svg>